<?xml version="1.0" standalone="no"?>
<!DOCTYPE svg PUBLIC "-//W3C//DTD SVG 1.1//EN" "http://www.w3.org/Graphics/SVG/1.1/DTD/svg11.dtd" >
<svg xmlns="http://www.w3.org/2000/svg">
<metadata>
This is a custom SVG webfont generated by Font Squirrel.
Copyright   : Copyright c 2009 Dave Crossland davelab6com
Designer    : Dave Crossland
Foundry URL : httpabattisorg
</metadata>
<defs>
<font id="webfontrhLguuAp" horiz-adv-x="1327" >
<font-face units-per-em="2048" ascent="1513" descent="-535" />
<missing-glyph horiz-adv-x="559" />
<glyph unicode=" "  horiz-adv-x="559" />
<glyph unicode="&#x09;" horiz-adv-x="559" />
<glyph unicode="&#xa0;" horiz-adv-x="559" />
<glyph unicode="!" horiz-adv-x="649" d="M172 -41l82 283h281l-80 -283h-283zM319 418l299 1044h252l-299 -1044h-252z" />
<glyph unicode="&#x22;" horiz-adv-x="794" d="M369 1042l145 510h266l-145 -510h-266zM758 1042l145 510h268l-147 -510h-266z" />
<glyph unicode="#" horiz-adv-x="1400" d="M102 338l68 231h315l78 271h-317l65 231h318l112 391h242l-113 -391h277l113 391h241l-112 -391h317l-68 -231h-315l-78 -271h316l-66 -231h-315l-117 -410h-244l119 410h-276l-117 -410h-244l119 410h-318zM727 569h277l77 271h-276z" />
<glyph unicode="$" horiz-adv-x="1363" d="M313 299l129 190l35 -14q92 -41 141 -51q57 -12 134 -12q150 0 217 26q71 28 86 86l1 3q1 3 1 5q0 25 -41 48q-33 18 -98 34q-63 16 -127 37q-51 16 -129 49q-57 25 -99 72q-39 45 -39 111q0 29 11 65q12 43 38 84q20 33 76 84q49 47 121 78q74 33 170 51l76 266h250 l-72 -247q92 -4 125 -11q72 -14 117 -28l37 -13l-123 -190l-35 8q-123 35 -244 35q-117 0 -188 -31q-70 -31 -82 -65v-11q0 -29 53 -53q59 -27 133 -47q90 -25 158 -51q78 -31 133 -82q55 -52 55 -123q0 -25 -10 -59q-18 -53 -41 -92q-29 -49 -76 -93q-47 -45 -129 -82 q-84 -39 -180 -53l-84 -289h-250l80 279q-152 10 -297 72z" />
<glyph unicode="%" horiz-adv-x="1492" d="M86 0l1511 1421h271l-1512 -1421h-270zM426 956q0 57 23 138q43 145 147 229q102 82 219 82q37 0 78 -10q43 -10 72 -29q34 -22 55 -61q20 -39 20 -97q0 -52 -18 -116q-43 -150 -154 -238q-109 -88 -237 -88q-94 0 -148 45q-57 47 -57 145zM614 1014q0 -74 68 -74 q96 0 139 150q12 43 13 67q0 70 -70 70q-98 0 -135 -133q-15 -45 -15 -80zM922 223q0 61 20 129q43 145 154 230q109 82 231 82q86 0 147.5 -43t61.5 -146q0 -61 -20 -125q-43 -147 -148 -237q-102 -88 -225 -88q-96 0 -160 47q-61 47 -61 151zM1126 274q0 -74 68 -73 q96 0 139 147q12 43 13 70q0 68 -70 67q-100 0 -137 -133q-13 -43 -13 -78z" />
<glyph unicode="&#x26;" horiz-adv-x="1587" d="M203 170q0 57 16 113q25 80 64 141q43 68 86 117t104 98l100 78q16 12 27.5 18t27 16.5t36.5 22.5q-41 57 -70 125q-25 59 -25 125q0 53 15 98q46 157 202 258q156 100 347 101q137 0 217 -61.5t80 -166.5q0 -35 -13 -77q-18 -53 -31 -76q-25 -41 -43 -66 q-25 -31 -59 -63l-61 -56q-14 -12 -74 -53l-70 -47q-20 -14 -71 -47l200 -307l422 352l109 -151l-426 -361l223 -342h-315l-125 184q-55 -41 -115 -80q-57 -37 -129 -71q-80 -39 -164 -60q-82 -20 -176 -20q-147 0 -229 72q-80 69 -80 186zM475 279q0 -59 41 -98.5 t117 -39.5q84 0 170 43q82 41 184 115l-213 317q-59 -37 -100 -67q-63 -47 -82 -64q-43 -37 -72 -77q-27 -39 -39 -80q-6 -24 -6 -49zM823 1083q0 -8 4 -28q2 -6 15 -33q4 -8 16 -27q6 -10 23 -34q8 -12 15 -21.5t9 -13.5q160 100 189 125q55 46 67 92q2 8 2 24 q0 39 -28.5 63.5t-83.5 24.5q-76 0 -142 -43q-65 -43 -80 -98q-6 -19 -6 -31z" />
<glyph unicode="'" horiz-adv-x="403" d="M369 1042l145 510h266l-145 -510h-266z" />
<glyph unicode="(" horiz-adv-x="741" d="M285 139q0 231 59 436q37 131 113 289q68 141 158 276.5t165 231.5q94 119 164 197l31 33l174 -107l-35 -37q-279 -311 -428 -651q-145 -330 -145 -666q0 -229 69 -444l11 -35l-234 -127l-12 37q-90 272 -90 567z" />
<glyph unicode=")" horiz-adv-x="741" d="M-74 -338l31 35q72 80 149 178q49 61 152 225q78 125 139 267q55 125 97 303q39 164 38 338q0 219 -69 450l-10 37l233 107l10 -33q90 -281 90 -561q0 -225 -59 -433q-41 -150 -113 -294q-68 -137 -163 -281q-104 -156 -168 -236q-80 -102 -162 -192l-33 -37z" />
<glyph unicode="*" horiz-adv-x="1193" d="M371 860l286 127l-215 125l193 223l188 -153l66 280h256l-94 -280l276 153l66 -223l-287 -125l215 -127l-193 -223l-190 154l-66 -279h-256l97 279l-279 -154z" />
<glyph unicode="+" horiz-adv-x="1398" d="M242 549l61 219h502l145 506h230l-146 -506h502l-63 -219h-500l-146 -506h-229l143 506h-499z" />
<glyph unicode="," horiz-adv-x="569" d="M-94 -260l327 471h269l-328 -471h-268z" />
<glyph unicode="-" horiz-adv-x="1208" d="M291 549l63 219h942l-63 -219h-942z" />
<glyph unicode="." horiz-adv-x="569" d="M127 -41l84 293h293l-84 -293h-293z" />
<glyph unicode="/" horiz-adv-x="724" d="M-55 -131l981 1593h256l-979 -1593h-258z" />
<glyph unicode="0" horiz-adv-x="1462" d="M272 434q0 129 47 293q37 131 97 244q57 109 129 186q74 80 147 133q84 61 156 88q86 33 153 47q70 14 144 15q63 0 129 -13q59 -12 125 -47q57 -31 104 -82q45 -49 74 -127q27 -74 27 -176q0 -119 -43 -270q-41 -145 -101 -256q-63 -121 -129 -195q-63 -72 -149 -137 q-76 -57 -158 -92q-80 -34 -154 -49q-78 -16 -143 -16q-72 0 -129 14q-61 15 -123 49q-59 33 -104 84t-72 129t-27 178zM537 508q0 -86 22 -141q25 -63 64 -93q43 -33 82 -47q41 -14 90 -14q51 0 100 14.5t111 51.5q55 33 114 92q53 53 105 145q49 90 84 205q33 119 32 199 q0 77 -24 135q-27 61 -63.5 90t-84.5 45q-41 14 -92 14q-59 0 -100 -12q-45 -14 -111 -49q-59 -33 -114.5 -88.5t-102.5 -137t-78 -190.5q-34 -123 -34 -219z" />
<glyph unicode="1" horiz-adv-x="1462" d="M305 0l66 231h358l270 943l-348 -109l-37 207l457 149h289l-340 -1190h344l-68 -231h-991z" />
<glyph unicode="2" horiz-adv-x="1462" d="M236 0l38 131q78 123 168 219q98 104 187 172q106 82 186 133l178 107q82 45 150 86q74 43 112 80q43 40 56 80q6 18 6 30q0 72 -76 117q-78 47 -197 47q-164 0 -419 -80l-41 -12l-19 205l41 16q262 100 541 101q213 0 332 -82q117 -80 116 -211q0 -37 -14 -88 q-28 -98 -104 -179q-80 -84 -183 -147l-219 -131q-106 -61 -235 -160q-129 -96 -213 -203h747l-67 -231h-1071z" />
<glyph unicode="3" horiz-adv-x="1462" d="M190 49l134 211l34 -8q205 -57 326 -57q156 0 293 63q131 61 160 162q6 18 6 41q0 18 -13 51q-8 23 -38 49q-28 25 -74 43q-39 16 -121 29q-63 10 -174 10h-47l65 227h47q117 0 205 18.5t140 47.5q47 27 77 57q27 27 37 60q4 16 4 26q0 55 -63 88q-66 35 -172 35 q-162 0 -365 -80l-45 -16l-24 209l39 16q240 106 487 107q199 0 311.5 -76t112.5 -201q0 -39 -12 -82q-29 -92 -90 -170q-65 -80 -154 -129q141 -71 141 -221q0 -49 -16 -108q-66 -225 -279 -361q-215 -135 -510 -135q-223 0 -391 80z" />
<glyph unicode="4" horiz-adv-x="1544" d="M207 303l45 158l909 960h342l-254 -886h248l-65 -232h-248l-88 -303h-246l88 303h-731zM590 535h383l164 575z" />
<glyph unicode="5" horiz-adv-x="1462" d="M180 25l115 231l39 -8q152 -33 325 -33q100 0 193 16q86 14 143 41q51 23 95 60q41 35 61 63q16 25 29 64q6 25 6 47q0 39 -17 69q-18 33 -55 62q-39 31 -115 49q-66 16 -178 16q-141 0 -338 -22l-47 -6l213 747h1020l-65 -231h-764l-76 -260q92 8 188 8q106 0 209 -20 q94 -18 148 -52q59 -35 92 -78q37 -46 49 -92q14 -53 14 -98q0 -63 -18 -125q-18 -63 -53 -126.5t-103 -131.5q-63 -63 -157 -119q-84 -49 -226 -84q-133 -33 -301 -32q-206 0 -387 36z" />
<glyph unicode="6" horiz-adv-x="1462" d="M297 338q0 111 39 246q242 848 1102 848q57 0 129 -7l37 -4l-84 -229l-41 2q-53 6 -103 6q-127 0 -211 -16q-102 -20 -164 -45q-72 -29 -124 -68q-49 -35 -93 -82q-25 -27 -65 -92q158 76 330 76q205 0 305 -94q102 -96 102 -244q0 -86 -35 -180.5t-100 -178.5 q-66 -82 -156 -151q-92 -70 -207 -109q-123 -41 -249 -41q-68 0 -117 9q-51 8 -110.5 34.5t-96.5 63.5q-39 39 -63 104q-25 64 -25 152zM551 424q0 -96 65.5 -161.5t176.5 -65.5q125 0 241.5 86t149.5 200q10 37 10 70q0 90 -72 143q-74 55 -182 56q-129 0 -237.5 -72 t-143.5 -184q-8 -31 -8 -72z" />
<glyph unicode="7" horiz-adv-x="1462" d="M283 0l1060 1180h-874l70 241h1202l-43 -149l-1127 -1272h-288z" />
<glyph unicode="8" horiz-adv-x="1462" d="M252 307q0 51 14 101q31 109 127 211t225 169q-92 76 -92 199q0 45 13 90q47 156 206 258q164 104 392 105q213 0 317.5 -67.5t104.5 -190.5q0 -57 -17 -109q-20 -80 -84 -149q-55 -61 -162 -129q156 -100 156 -263q0 -45 -16 -106q-25 -86 -84.5 -164t-147.5 -143 q-82 -61 -211 -100t-262 -39q-215 0 -348 90q-131 87 -131 237zM528 399q0 -80 74 -133q76 -53 207 -53q139 0 241.5 63.5t131.5 161.5q8 27 8 60q0 45 -21 80q-18 33 -63 63.5t-88 46.5q-53 20 -113 37q-137 -35 -246 -117q-100 -76 -124 -162q-7 -20 -7 -47zM788 1024 q0 -25 16.5 -51.5t37.5 -40.5q31 -20 57 -33l62 -25q8 -4 29.5 -9t33.5 -9q125 61 182.5 102t71.5 89q4 14 4 38q0 61 -59 97q-57 33 -152 32q-100 0 -180 -49q-78 -47 -96 -108q-7 -19 -7 -33z" />
<glyph unicode="9" horiz-adv-x="1462" d="M264 -4l84 229l41 -4q40 -6 105 -6q111 0 223 21q100 18 168 49q70 31 125 77q53 43 88 93q27 37 61 102q-156 -74 -328 -74q-188 0 -301 90q-109 88 -108 240q0 59 18 125q43 145 142 252q106 115 258 182q158 70 323 70q57 0 114.5 -10.5t108.5 -32.5q55 -25 95 -64 q41 -41 65.5 -104.5t24.5 -151.5q0 -104 -41 -252q-45 -156 -115 -288q-74 -141 -151 -222q-94 -96 -181 -155q-102 -70 -204 -105q-104 -35 -220 -55q-96 -16 -229 -16q-68 0 -129 6zM682 901q0 -84 74 -139q76 -57 182 -57q125 0 237.5 71.5t139.5 167.5q8 33 8 53 q0 86 -70 156q-66 66 -178 66q-123 0 -237 -82q-121 -86 -148 -183q-8 -24 -8 -53z" />
<glyph unicode=":" horiz-adv-x="569" d="M127 -41l84 293h293l-84 -293h-293zM352 741l82 293h293l-84 -293h-291z" />
<glyph unicode=";" horiz-adv-x="569" d="M-94 -260l327 471h269l-328 -471h-268zM352 741l82 293h293l-84 -293h-291z" />
<glyph unicode="&#x3c;" horiz-adv-x="1071" d="M205 508l61 217l1090 469l-70 -246l-741 -325l559 -312l-74 -256z" />
<glyph unicode="=" horiz-adv-x="1398" d="M268 309l66 234h1042l-65 -234h-1043zM397 764l68 231h1040l-65 -231h-1043z" />
<glyph unicode="&#x3e;" horiz-adv-x="1071" d="M76 55l71 256l738 312l-553 325l69 246l822 -469l-64 -217z" />
<glyph unicode="?" horiz-adv-x="1044" d="M258 -41l82 283h281l-80 -283h-283zM385 350l12 41q25 90 68 164t90 121q57 57 100 90l34 24.5t39.5 25.5t31.5 22l94 65q41 29 76 74q31 39 47 92q6 25 6 47q0 61 -49 98q-51 39 -178 39q-43 0 -123 -14q-72 -12 -119 -31l-43 -14l-27 195l41 18q168 72 363 72 q188 0 297 -68q104 -66 104 -201q0 -57 -16 -112q-25 -86 -66 -156q-41 -68 -88 -113q-55 -51 -98 -81l-100 -72q-53 -37 -95 -72q-51 -43 -81 -90q-37 -55 -56 -123l-10 -41h-254z" />
<glyph unicode="@" horiz-adv-x="2099" d="M207 94q0 139 49 309q31 108 74 209q49 115 104 205q68 109 141 195q86 98 179 170q111 86 221 137q113 53 266 88q145 33 313 33q664 0 664 -533q0 -162 -61 -377q-47 -168 -117 -290q-72 -129 -142 -201q-72 -76 -147 -119q-80 -45 -139 -61q-55 -14 -113 -15 q-88 0 -143 41q-57 41 -76 115q-137 -61 -268 -61q-174 0 -260 96q-88 98 -88 248q0 86 32 194q31 102 92.5 194.5t141.5 166.5q82 76 188 120q104 45 223 46q106 0 209 -46l33 52h182l-217 -758q-25 -89 -24 -129q0 -61 57 -62q27 0 59 21q39 25 80 65q47 47 95 140 q49 96 86 223q47 160 47 291q0 84 -27 160q-25 70 -82 124q-59 57 -158 84q-94 27 -237 27q-131 0 -227 -25q-113 -29 -193 -71q-82 -45 -160 -109q-74 -61 -129 -129q-47 -55 -98 -143q-45 -74 -74 -146q-31 -76 -47 -135q-37 -129 -37 -231q0 -217 133 -334t334 -117 q152 0 293 64l41 16l45 -190l-41 -19q-215 -96 -426 -96q-55 0 -110 6q-57 6 -121 25q-80 23 -123 43q-53 25 -113 71q-59 45 -96 101q-39 57 -64 139q-24 84 -24 178zM911 354q0 -100 58 -151q59 -53 155 -53q82 0 168 36l168 582q-77 31 -153 31q-131 0 -230 -84 q-101 -86 -147 -240q-19 -66 -19 -121z" />
<glyph unicode="A" horiz-adv-x="1546" d="M129 0l971 1421h276l156 -1421h-260l-51 373h-582l-264 -373h-246zM793 602h405l-51 528z" />
<glyph unicode="B" horiz-adv-x="1587" d="M291 0l405 1421h543q109 0 176 -16q80 -18 123 -45q51 -31 76 -64q31 -43 39 -71q10 -41 10 -76q0 -43 -12 -90q-18 -63 -78 -137q-59 -72 -127 -119q74 -33 119 -103q41 -63 41 -153q0 -51 -15 -101q-6 -23 -26 -67q-12 -29 -47 -80q-31 -46 -74 -86q-45 -41 -107 -80 q-76 -47 -139 -70q-72 -27 -180 -45q-104 -18 -225 -18h-502zM608 231h226q14 0 36.5 1t30.5 1q10 0 80 5q45 2 90 10q33 6 84 22q46 15 80 37q37 25 61 53q27 33 39 74q6 20 6 45q0 82 -96 129q-98 47 -266 47q-9 0 -252 -12zM776 815q227 6 311 21q233 39 277 194 q6 25 6 47q0 131 -248 131h-233z" />
<glyph unicode="C" horiz-adv-x="1613" d="M444 492q0 106 33 217q43 150 137 286q88 127 224 230q123 94 299 151q170 55 358 56q225 0 403 -80l31 -15l-139 -217l-35 15q-172 63 -332 63q-127 0 -241 -39q-113 -39 -205 -108q-90 -70 -154 -156q-65 -89 -92 -184q-18 -68 -18 -127q0 -162 123 -265 q125 -102 348 -102q160 0 344 59l41 13l24 -201l-43 -14q-248 -94 -483 -94q-303 0 -463 141.5t-160 370.5z" />
<glyph unicode="D" horiz-adv-x="1769" d="M299 0l406 1421h503q147 0 260 -24q117 -25 186.5 -66t119.5 -102q47 -59 65 -123q20 -72 21 -141q0 -100 -33 -213q-23 -82 -66 -177q-39 -84 -104 -174q-66 -92 -144 -159q-82 -74 -190 -127q-113 -57 -244 -84q-61 -14 -145 -21q-18 -2 -47 -4t-48.5 -4t-33.5 -2h-139 h-367zM616 231h185q84 0 114 2q53 4 121 15q78 12 133 33q57 20 127 65q63 41 123 107q98 111 144 266q23 84 22 145q0 68 -26 131q-25 59 -68 97q-47 39 -94 59q-52 22 -111 31q-66 8 -135 8h-260z" />
<glyph unicode="E" horiz-adv-x="1445" d="M291 0l405 1421h998l-66 -231h-743l-99 -342h689l-66 -232h-688l-111 -385h744l-68 -231h-995z" />
<glyph unicode="F" horiz-adv-x="1411" d="M291 0l405 1421h987l-65 -231h-733l-99 -342h674l-65 -232h-674l-178 -616h-252z" />
<glyph unicode="G" horiz-adv-x="1753" d="M387 496q0 102 31 213q29 109 94 219q61 104 153.5 196.5t203 160t255.5 108.5q137 39 297 39q283 0 471 -125l31 -21l-162 -199l-30 21q-57 35 -160 63.5t-207 28.5q-141 0 -282.5 -55t-254.5 -168q-111 -111 -153 -258q-20 -63 -21 -135q0 -166 127 -268.5t338 -102.5 q182 0 326 84l78 272h-447l66 222h692l-170 -584q-274 -227 -655 -227q-129 0 -238 28q-106 29 -176 74q-72 47 -119 113q-45 61 -67 141q-21 70 -21 160z" />
<glyph unicode="H" horiz-adv-x="1763" d="M291 0l405 1421h252l-164 -571h760l164 571h254l-408 -1421h-251l176 616h-760l-176 -616h-252z" />
<glyph unicode="I" horiz-adv-x="811" d="M319 0l408 1421h252l-408 -1421h-252z" />
<glyph unicode="J" horiz-adv-x="1116" d="M115 18l106 222l39 -11q55 -14 127 -14q68 0 125 12q55 12 96 31q33 14 72 47q23 18 53 53q23 27 37 58q4 8 10 19t9.5 19.5t5.5 14.5l7 20.5t7 22.5l260 909h252l-260 -909q-16 -59 -33 -100q-20 -49 -49 -103q-35 -61 -68 -100q-43 -49 -92 -88q-63 -49 -121 -74 q-68 -29 -155 -47q-80 -16 -195 -16q-106 0 -198 24z" />
<glyph unicode="K" horiz-adv-x="1579" d="M291 0l405 1421h252l-184 -651l833 651h324l-879 -680l506 -741h-325l-484 688l-196 -688h-252z" />
<glyph unicode="L" horiz-adv-x="1296" d="M291 0l405 1421h252l-340 -1190h719l-65 -231h-971z" />
<glyph unicode="M" horiz-adv-x="2048" d="M291 0l405 1421h308l237 -817l713 817h291l-408 -1421h-252l305 1063l-592 -655h-237l-213 655l-305 -1063h-252z" />
<glyph unicode="N" horiz-adv-x="1822" d="M291 0l405 1421h279l479 -1091l313 1091h252l-405 -1421h-283l-475 1094l-313 -1094h-252z" />
<glyph unicode="O" horiz-adv-x="1849" d="M383 477q0 102 35 230q66 223 207 385q147 170 338 256q195 88 415 88q267 0 424 -129q156 -129 156 -361q0 -100 -35 -221q-61 -217 -205 -385q-147 -172 -342 -262q-201 -92 -422 -92q-121 0 -225 30q-106 31 -180 90q-82 66 -123 156q-43 95 -43 215zM655 563 q0 -162 105 -254q106 -94 274 -94q80 0 183 31q92 28 178 86q92 63 157 153q74 102 109 224q25 86 25 159q0 86 -33 152q-33 68 -88 106q-51 37 -121 60q-57 18 -141 18q-88 0 -185 -28q-90 -27 -178 -84q-90 -59 -156 -150q-70 -98 -102 -215q-27 -92 -27 -164z" />
<glyph unicode="P" horiz-adv-x="1501" d="M291 0l405 1421h510q18 0 47 -1t39 -1q34 0 92 -6q63 -6 97 -14q40 -9 86 -31q49 -23 75 -49q29 -29 47.5 -72t18.5 -98q0 -70 -18 -127q-23 -84 -70 -164q-39 -68 -96 -121q-45 -43 -121 -84q-51 -29 -133 -55q-47 -16 -148 -31q-94 -14 -149 -16q-45 -2 -152 -2 q-14 0 -121 4l-157 -553h-252zM768 784q76 -6 137 -6q63 0 142 4q51 2 127 17q66 12 114 35q41 18 82 63q39 43 53 96q8 25 9 56q0 33 -19 61q-16 25 -49 41q-31 16 -76 25q-29 6 -92 10q-57 4 -106 4h-207z" />
<glyph unicode="Q" horiz-adv-x="1869" d="M383 477q0 104 35 228q96 332 360 532q262 199 600 199q154 0 264 -39q113 -39 181 -111q70 -72 98 -158q33 -94 33 -192q0 -174 -84 -365q-84 -188 -221 -323l135 -172l-191 -150l-147 183q-227 -123 -481 -123q-268 0 -426 129q-156 129 -156 362zM655 561 q0 -168 111 -256q113 -90 287 -90q127 0 250 53l-256 271l221 153l243 -270q94 111 140 264q29 104 28 184q0 74 -24 136q-23 57 -62 96q-37 37 -90 61q-47 23 -102 33q-43 8 -105 8q-92 0 -178 -26q-88 -27 -176 -84q-82 -53 -155.5 -151.5t-106.5 -219.5q-25 -86 -25 -162 z" />
<glyph unicode="R" horiz-adv-x="1599" d="M291 0l405 1421h607q401 0 401 -266q0 -57 -23 -141q-40 -144 -147 -258q-104 -111 -285 -162l260 -594h-327l-242 551h-240l-157 -551h-252zM768 782h231q55 0 134 9q61 6 118 26q61 20 101 64q41 43 59 110q10 35 10 58q0 141 -260 141h-278z" />
<glyph unicode="S" horiz-adv-x="1523" d="M266 92l156 244l35 -17q229 -90 391 -90q152 0 262 47q109 47 131 125q4 14 4 33q0 41 -37 76q-37 34 -98 55q-96 33 -135 45q-90 27 -146 47q-86 33 -135 60q-61 34 -98 86q-39 55 -39 121q0 40 12 86q51 180 265 303q209 121 503 121q195 0 377 -60l37 -10l-147 -234 l-35 13q-168 49 -316 49q-154 0 -266 -47q-119 -49 -139 -123q-4 -16 -4 -29q0 -39 37 -69q39 -33 98 -54q106 -37 133 -45q49 -14 148 -51q61 -23 131 -61q59 -33 98 -90.5t39 -124.5q0 -43 -15 -88q-18 -59 -55 -119q-35 -55 -102 -117q-57 -51 -148 -98q-80 -41 -202 -70 q-115 -27 -254 -26q-129 0 -240 26q-104 25 -213 74z" />
<glyph unicode="T" horiz-adv-x="1372" d="M426 1190l66 231h1284l-66 -231h-516l-340 -1190h-254l342 1190h-516z" />
<glyph unicode="U" horiz-adv-x="1736" d="M395 293q0 12 4 45q0 6 1 15l2 17.5t3.5 16.5t8.5 39q0 4 5 18.5t7 22.5q6 25 6 31l264 923h252l-258 -901q-20 -74 -20 -119q0 -57 32 -100q72 -92 267 -92q104 0 190 29q88 29 131 63q45 35 76 86q33 53 41 76q14 43 16 51v6l258 901h250l-258 -909q-6 -16 -14 -45 t-12 -41q-12 -35 -43 -94q-33 -61 -68 -103q-47 -55 -96 -94q-70 -55 -133 -82q-80 -33 -177 -53q-100 -20 -227 -20q-508 0 -508 313z" />
<glyph unicode="V" horiz-adv-x="1564" d="M547 1421h289l90 -1151l745 1151h275l-959 -1421h-299z" />
<glyph unicode="W" horiz-adv-x="2410" d="M547 1421h266l14 -1091l723 1091h234l24 -1091l713 1091h266l-952 -1421h-242l-28 1087l-715 -1087h-242z" />
<glyph unicode="X" horiz-adv-x="1531" d="M111 0l774 741l-305 680h303l237 -501l512 501h295l-694 -678l342 -743h-320l-256 565l-579 -565h-309z" />
<glyph unicode="Y" horiz-adv-x="1425" d="M508 1421h297l221 -551l547 551h289l-762 -757l-191 -664h-282l188 664z" />
<glyph unicode="Z" horiz-adv-x="1521" d="M156 0l43 156l1194 1034h-867l66 231h1249l-43 -153l-1214 -1037h946l-68 -231h-1306z" />
<glyph unicode="[" horiz-adv-x="786" d="M80 -451l573 2003h541l-66 -231h-294l-443 -1540h295l-65 -232h-541z" />
<glyph unicode="\" horiz-adv-x="724" d="M383 1462h256l66 -1593h-256z" />
<glyph unicode="]" horiz-adv-x="776" d="M-90 -451l65 232h295l443 1540h-295l65 231h541l-573 -2003h-541z" />
<glyph unicode="^" horiz-adv-x="1478" d="M741 1243l445 359l211 -349l-193 -145l-119 195l-233 -193z" />
<glyph unicode="_" horiz-adv-x="1159" d="M96 -41l68 231h942l-68 -231h-942z" />
<glyph unicode="`" horiz-adv-x="1120" d="M633 1448l170 194l473 -352l-156 -178z" />
<glyph unicode="a" horiz-adv-x="1220" d="M188 209q0 33 9 57q25 86 96 150q71 61 178 92q119 33 223 45q102 10 260 14l11 33q10 31 10 62q0 102 -199 102q-113 0 -305 -43l-43 -12l6 196l39 13q197 63 397 63q371 0 371 -227q0 -53 -20 -121l-183 -633h-184l-8 66q-154 -86 -324 -86q-156 0 -246 65 q-88 64 -88 164zM461 274q0 -33 49 -57q53 -27 127 -27q121 0 227 62l37 131h-22q-195 0 -301 -23q-100 -20 -117 -75v-11z" />
<glyph unicode="b" horiz-adv-x="1331" d="M184 0l434 1511h246l-164 -573q145 45 273 45q55 0 117 -10q57 -10 106 -33q57 -27 90 -59q39 -39 60 -93q23 -57 22 -126q0 -78 -27 -170q-68 -240 -254 -375q-190 -137 -438 -137q-147 0 -260 53l-22 -33h-183zM494 219q98 -29 188 -29q45 0 88 7q35 4 96 26 q47 16 92 49q39 27 78 80q37 49 56 115q16 61 16 102q0 49 -16 82q-18 37 -45 58q-33 25 -62 34q-41 14 -72 17q-68 6 -69 6q-94 0 -203 -33z" />
<glyph unicode="c" horiz-adv-x="1146" d="M233 297q0 76 25 164q37 123 90 205q61 92 127 147q72 59 156 98q78 37 172 54q92 16 178 16q166 0 289 -61l28 -17l-118 -192l-33 14q-86 33 -205 33q-356 0 -432 -266q-16 -59 -16 -97q0 -199 311 -198q92 0 186 30l41 13l12 -189l-40 -12q-166 -59 -332 -59 q-68 0 -135 10q-59 8 -119 30q-53 20 -96 59.5t-66 90.5t-23 127z" />
<glyph unicode="d" horiz-adv-x="1337" d="M233 299q0 72 27 168q70 246 258 381q186 135 434 135q111 0 219 -35l160 563h248l-434 -1511h-182l-7 45q-162 -66 -323 -65q-82 0 -150 18q-76 20 -127 53q-57 37 -90 99q-33 63 -33 149zM494 393q0 -58 24 -98q23 -37 66 -59q39 -20 84 -31q39 -8 90 -8q92 0 207 34 l147 512q-98 29 -190 29q-45 0 -88 -6q-41 -6 -95 -25q-51 -18 -94 -49q-45 -33 -80 -82q-37 -51 -55 -121q-16 -59 -16 -96z" />
<glyph unicode="e" horiz-adv-x="1239" d="M231 297q0 72 25 156q35 129 115 237q78 106 174 166q104 66 205 94q106 31 217 31q322 0 321 -260q0 -82 -45 -246l-31 -110h-725q0 -68 82 -121q78 -51 238 -51q106 0 233 34l43 11l-6 -189l-39 -12q-174 -57 -362 -57q-123 0 -213 24q-86 25 -137 72q-53 49 -72 98 q-23 57 -23 123zM549 571h487q6 37 6 56q0 131 -180 131q-111 0 -194 -53q-86 -54 -119 -134z" />
<glyph unicode="f" horiz-adv-x="958" d="M-307 -479l96 194l39 -10q80 -20 137 -20q236 0 279 151l262 916h-160l62 211h159l19 63l16 55q10 33 21 60q16 41 28 59q29 47 37 57q27 35 51 56q41 33 66 47q29 18 82 37q33 12 102 22q66 10 123 11q121 0 248 -41l33 -13l-101 -202l-37 10q-92 27 -137 26 q-236 0 -284 -174l-21 -73h385l-61 -211h-385l-260 -908q-39 -133 -84 -196q-126 -178 -437 -178q-127 0 -245 38z" />
<glyph unicode="g" horiz-adv-x="1325" d="M57 -459l131 195l35 -15q117 -43 242 -43q309 0 414 267l26 80q-135 -45 -262 -45q-82 0 -151 18q-66 16 -130 57q-58 37 -92 105q-35 70 -34 153q0 70 26 166q29 104 94.5 198.5t132.5 145.5q76 57 158 92q92 39 158 54q70 14 143 14q131 0 258 -63l29 43h184l-284 -992 q-22 -74 -56 -141q-35 -72 -90 -137q-59 -72 -133 -121q-78 -51 -186 -82q-111 -31 -244 -31q-187 0 -338 68zM508 401q0 -96 61 -149q65 -55 191 -55q90 0 205 34l143 500q-113 37 -209 37q-133 0 -237.5 -73.5t-141.5 -198.5q-12 -42 -12 -95z" />
<glyph unicode="h" d="M184 0l434 1511h246l-172 -600q203 70 350 70q293 0 293 -238q0 -74 -35 -194l-155 -549h-246l162 559q10 31 10 70q0 125 -170 125q-113 0 -268 -54l-203 -700h-246z" />
<glyph unicode="i" horiz-adv-x="604" d="M180 0l283 987h246l-283 -987h-246zM496 1151l75 270h277l-78 -270h-274z" />
<glyph unicode="j" horiz-adv-x="600" d="M-84 -350l43 18q156 66 199 219l315 1100h246l-311 -1083q-4 -10 -13.5 -41t-13.5 -45q-8 -27 -45 -92q-27 -47 -74 -99q-40 -43 -110 -86q-84 -51 -158 -73l-37 -13zM504 1151l78 270h276l-78 -270h-276z" />
<glyph unicode="k" horiz-adv-x="1224" d="M176 0l432 1511h246l-262 -919l582 416h296l-634 -453l360 -555h-301l-332 492l-141 -492h-246z" />
<glyph unicode="l" horiz-adv-x="645" d="M201 0l432 1511h246l-433 -1511h-245z" />
<glyph unicode="m" horiz-adv-x="1957" d="M176 0l277 963h182l8 -66q199 84 369 84q172 0 235 -98q209 98 418 98q164 0 229 -59q68 -61 68 -170q0 -80 -29 -181l-164 -571h-245l162 563q10 33 10 72q0 115 -160 115q-92 0 -252 -54q-8 -61 -29 -135l-159 -561h-246l162 567q10 33 10 68q0 115 -158 115 q-84 0 -243 -54l-199 -696h-246z" />
<glyph unicode="n" horiz-adv-x="1312" d="M176 0l277 963h172l14 -68q227 88 401 88q285 0 285 -227q0 -68 -33 -187l-162 -569h-245l159 561q14 57 15 78q0 115 -168 115q-109 0 -268 -54l-201 -700h-246z" />
<glyph unicode="o" horiz-adv-x="1357" d="M238 315q0 74 24 156q68 233 256 373q186 137 447 137q200 0 313 -86q115 -86 115 -246q0 -61 -25 -149q-70 -244 -260 -381q-195 -139 -451 -139q-201 0 -309 88q-110 87 -110 247zM500 414q0 -96 63.5 -153.5t179.5 -57.5q125 0 233.5 73.5t141.5 194.5q14 49 15 84 q0 96 -74 152q-72 53 -174 53q-119 0 -227.5 -69.5t-145.5 -194.5q-12 -43 -12 -82z" />
<glyph unicode="p" horiz-adv-x="1325" d="M23 -530l430 1493h182l8 -48q172 66 328 66q68 0 116 -8q47 -8 105 -35q53 -25 88 -59q39 -39 59 -91q23 -57 23 -126q0 -78 -27 -170q-68 -238 -254 -375t-430 -137q-111 0 -215 34l-157 -544h-256zM496 219q102 -29 186 -29q55 0 111 13q47 10 114 41q63 29 109 86 q49 63 69 137q16 61 17 102q0 58 -25 99q-23 37 -63 59q-31 16 -82 29q-35 8 -88 8q-102 0 -203 -33z" />
<glyph unicode="q" horiz-adv-x="1314" d="M233 301q0 82 27 174q37 125 109 223q70 96 163 160q98 66 197 94q104 31 209 31q131 0 266 -63l31 43h174l-428 -1493h-246l160 557q-145 -47 -270 -47q-80 0 -148 18q-78 20 -123 51q-55 37 -88 100.5t-33 151.5zM492 393q0 -57 24 -96q25 -41 64 -61q35 -18 82 -29 q39 -8 90 -8q98 0 202 32l144 500q-115 37 -209 37q-137 0 -242 -74q-100 -72 -139 -205q-16 -59 -16 -96z" />
<glyph unicode="r" horiz-adv-x="931" d="M176 0l277 963h163l15 -54q174 72 346 72q109 0 188 -43l29 -14l-133 -203l-35 12q-70 27 -141 27q-131 0 -258 -45l-205 -715h-246z" />
<glyph unicode="s" horiz-adv-x="1167" d="M147 74l129 194l33 -12q160 -66 295 -66q244 0 273 101v2l2 4q0 25 -41 43q-49 23 -97 33q-57 12 -129 35q-82 27 -127 45q-55 23 -98 69q-39 41 -39 103q0 31 8 57q12 39 37 78q25 40 74 80q51 43 117 71q63 29 168 52q86 18 223 18q70 0 125 -6q45 -4 78 -14 q41 -12 65 -21l37 -12l-125 -201l-35 8q-117 37 -237 37q-76 0 -131 -12q-59 -12 -82 -29q-25 -16 -39 -31q-12 -12 -17 -26v-8q0 -27 56 -48q53 -20 133 -43q102 -29 155 -47q74 -27 134 -77q55 -49 55 -115q0 -27 -8 -51q-14 -47 -35 -82q-18 -31 -72 -80 q-41 -39 -110 -72q-59 -29 -164 -51q-94 -20 -221 -20q-188 0 -357 77z" />
<glyph unicode="t" horiz-adv-x="923" d="M281 170q0 55 24 137l127 445h-147l59 211h150l88 309h245l-88 -309h355l-62 -211h-352l-123 -424q-4 -14 -4 -37q0 -45 33 -72q35 -29 110 -29q25 0 148 19l41 6l-17 -186l-41 -11q-166 -39 -252 -38q-162 0 -229 51q-65 49 -65 139z" />
<glyph unicode="u" d="M256 209q0 70 33 184l164 570h245l-161 -564q-12 -39 -13 -71q0 -119 172 -119q113 0 277 53l201 701h245l-274 -963h-184l-11 68q-227 -88 -403 -88q-291 0 -291 229z" />
<glyph unicode="v" horiz-adv-x="1142" d="M340 963h285l51 -709l454 709h259l-664 -963h-258z" />
<glyph unicode="w" horiz-adv-x="1890" d="M336 963h256l24 -713l506 713h215l23 -715l518 715h262l-743 -963h-217l-29 692l-504 -692h-219z" />
<glyph unicode="x" horiz-adv-x="1204" d="M76 0l524 473l-260 490h291l190 -353l381 353h279l-547 -490l250 -473h-291l-182 332l-361 -332h-274z" />
<glyph unicode="y" horiz-adv-x="1212" d="M117 -530l391 514l-182 979h280l111 -746l502 746h258l-1061 -1493h-299z" />
<glyph unicode="z" horiz-adv-x="1216" d="M145 0l37 127l723 625h-543l60 211h895l-37 -127l-729 -625h573l-59 -211h-920z" />
<glyph unicode="{" horiz-adv-x="827" d="M176 444l60 209l36 4q43 6 80 24.5t66 41.5q31 23 53 55l43 64q18 28 37 67l27 66q4 10 22 59l16 49q45 117 103 197q63 88 119 135q58 49 123 80q63 31 108 43q37 10 84 14l37 2l-12 -206l-45 -7q-49 -6 -101 -34q-49 -28 -86 -68q-45 -49 -78 -117q-37 -76 -59 -145 q-12 -37 -57 -150q-25 -63 -90 -149q-53 -72 -134 -129q70 -80 70 -205q0 -70 -31 -211q-29 -131 -28 -196q0 -43 12 -78q14 -39 47 -66q35 -29 80 -35l43 -6l-109 -209l-32 4q-41 4 -62 11q-31 9 -74 30.5t-73 55.5q-33 37 -54 94q-23 63 -22 137q0 63 12 127q2 12 17 78 q12 53 18 96q6 41 6 78q0 98 -53 145q-35 31 -86 41z" />
<glyph unicode="|" horiz-adv-x="882" d="M219 -348l572 1990h245l-571 -1990h-246z" />
<glyph unicode="}" horiz-adv-x="827" d="M-47 -457l12 209l47 6q49 6 101 35q53 31 86 66q39 41 75 118q39 80 60 144q12 37 57 149q27 70 88 150q55 74 135 129q-68 78 -67 201q0 82 28 213q31 141 31 198q0 47 -12 78q-15 40 -49 68q-35 29 -78 34l-45 7l108 206l33 -2q34 -3 68 -12t74 -31q35 -18 69 -57 q29 -31 51 -94q23 -61 23 -135q0 -70 -14 -140q0 -6 -4.5 -18t-8.5 -33q-8 -39 -12 -63q-8 -31 -10 -60q-4 -49 -4 -63q0 -164 139 -189l33 -4l-60 -209l-37 -4q-53 -10 -90 -28q-51 -25 -75 -54q-25 -27 -56 -65q-16 -20 -43 -78l-33 -76q-20 -51 -28 -76 q-6 -18 -13.5 -37.5t-9.5 -23.5q-45 -113 -102 -192q-59 -82 -120.5 -131.5t-123.5 -77.5q-68 -33 -108 -41q-45 -10 -78 -13z" />
<glyph unicode="~" horiz-adv-x="1398" d="M657 1221l21 43l16 36l21 41q2 6 5 10.5t7 12.5t10 18l25 43q8 14 29 41q12 16 34 39q6 6 19.5 16.5t17.5 14.5q18 16 43 27q14 6 51 14q28 6 56 6q61 -4 92 -20q45 -25 65 -47q33 -37 45 -54l35 -43q16 -18 29 -18q14 0 33 22q16 20 30 47q6 12 31 66l8 16l19 39 l182 -28l-20 -43q0 -2 -7.5 -13.5t-11.5 -21.5l-18 -43q0 -2 -23 -41q-23 -41 -24 -43l-13.5 -19.5l-15.5 -21.5q-12 -16 -35 -39q-6 -6 -19.5 -16.5t-17.5 -14.5q-16 -14 -45 -26q-27 -12 -49 -17q-28 -6 -55 -6q-57 4 -92 23q-49 27 -66 45q-33 37 -45 53q-25 33 -35 45 q-14 16 -28 16q-16 0 -27 -10q-12 -14 -29 -41q-20 -37 -22 -41q-2 -6 -8.5 -18.5t-16.5 -34.5l-18 -41z" />
<glyph unicode="&#xa1;" horiz-adv-x="649" d="M70 -451l389 1354h252l-389 -1354h-252zM494 1079l81 283h281l-80 -283h-282z" />
<glyph unicode="&#xa2;" horiz-adv-x="1019" d="M283 520q0 88 30 193q66 223 209 370q143 145 344 187l80 282h205l-80 -272q94 -8 201 -59l31 -15l-121 -194l-35 12q-92 37 -195 37q-147 0 -247 -82q-98 -80 -142 -231q-23 -80 -22.5 -141.5t21 -102.5t59.5 -64q37 -20 77 -30q35 -8 86 -9q84 0 181 31l43 12l12 -188 l-41 -14q-123 -41 -219 -52l-84 -296h-205l86 301q-131 25 -201 104q-73 82 -73 221z" />
<glyph unicode="&#xa3;" horiz-adv-x="1298" d="M98 -41l64 217h244l126 445h-176l64 217h176l29 100q34 120 92 215q57 94 127 154q59 51 149 96q74 37 156 53.5t156 16.5q119 0 235 -41l39 -13l-135 -196l-33 8q-84 23 -147 22q-78 0 -134 -16q-57 -16 -102 -49q-39 -27 -74 -76q-34 -46 -55 -92q-12 -27 -37 -109 l-20 -73h528l-61 -217h-531l-127 -445h588l-61 -217h-1080z" />
<glyph unicode="&#xa4;" horiz-adv-x="1298" d="M244 401l223 174q-6 31 -6 62q0 139 100 270l-125 174l238 185l125 -176q94 39 174 38q84 0 155 -38l224 174l131 -185l-226 -172q6 -31 7 -61q0 -143 -101 -271l123 -172l-235 -182l-121 172q-94 -39 -178 -39q-92 0 -156 37l-221 -172zM696 694q0 -51 33 -83.5 t86 -32.5q63 0 124.5 49t80.5 114q6 25 6 47q0 53 -31 84q-33 33 -86 33q-61 0 -125 -47q-59 -45 -82 -117q-6 -20 -6 -47z" />
<glyph unicode="&#xa5;" horiz-adv-x="1298" d="M307 209l60 207h274l35 116h-277l60 207h237l-204 723h280l137 -559l467 559h273l-635 -723h252l-60 -207h-288l-35 -116h288l-59 -207h-289l-71 -250h-242l72 250h-275z" />
<glyph unicode="&#xa6;" horiz-adv-x="882" d="M219 -348l244 850h246l-244 -850h-246zM547 797l244 845h245l-243 -845h-246z" />
<glyph unicode="&#xa7;" horiz-adv-x="1134" d="M115 23l131 198l35 -12q150 -59 272 -59q233 0 274 137q2 4 2 16q0 29 -34 53q-31 23 -88 39q-8 2 -113 39q-53 18 -115 51q-55 29 -86 74q-35 51 -35 113q0 40 13 80q31 106 125 190q-29 47 -29 107q0 51 22 112q20 57 72 115q55 61 119 100q74 45 172 72t221 27 q45 0 66 -2q8 0 26.5 -1.5t24.5 -3.5q41 -6 47 -8q16 -4 27 -7l10 -3q2 0 14 -3t23 -7q31 -10 32 -10l39 -11l-133 -211l-35 13q-108 37 -227 36q-94 0 -161.5 -30.5t-82.5 -77.5q-2 -4 -2 -16q0 -31 37 -56q39 -25 88 -43q18 -6 115 -45q66 -27 117 -53q49 -27 88 -78 q37 -49 37 -106q0 -29 -11 -70q-33 -115 -127 -205q29 -47 29 -100q0 -39 -10 -72q-12 -43 -41 -94q-27 -49 -76 -98q-55 -55 -113 -88q-65 -37 -159 -62q-96 -25 -207 -24h-14q-193 0 -347 67zM635 756q0 -20 14 -37q14 -18 45 -33q4 -2 60 -27q4 -2 75 -28l74 -29 q18 20 33 60q2 6 2 18q0 20 -14 37q-12 14 -45 30.5t-58 24.5l-76 25q-63 20 -75 26q-27 -23 -33 -53q-2 -4 -2 -14z" />
<glyph unicode="&#xa8;" horiz-adv-x="1198" d="M584 1194l78 268h266l-76 -268h-268zM1032 1194l78 268h266l-76 -268h-268z" />
<glyph unicode="&#xa9;" horiz-adv-x="1759" d="M297 485q0 94 29 197q45 150 137 281q94 135 223 235q125 98 287 162q157 61 313 61q258 0 413.5 -153.5t155.5 -386.5q0 -90 -28 -199q-45 -152 -139 -283q-98 -137 -226 -235q-129 -100 -286 -160q-160 -59 -312 -59q-258 0 -413 153q-154 151 -154 387zM520 543 q0 -166 111 -275q113 -109 295 -108q143 0 291 71q143 70 249 193q106 121 146 258q20 63 20 141q0 168 -110 275q-113 109 -295 108q-145 0 -293 -71q-143 -70 -250 -193q-102 -117 -143 -260q-21 -63 -21 -139zM688 528q0 53 25 146q35 117 90 198.5t131 131t141 69.5 q74 23 146 23q111 0 204 -47l29 -15l-102 -162l-35 15q-65 25 -135 24q-203 0 -267 -217q-16 -59 -16 -100q0 -137 164 -137q59 0 131 22l41 13l12 -158l-41 -15q-115 -41 -231 -40q-53 0 -103 12q-47 12 -92 41q-43 27 -67 78q-25 48 -25 118z" />
<glyph unicode="&#xaa;" horiz-adv-x="759" d="M399 854q0 25 11 61q18 61 51 105q35 45 86 65.5t115 30.5q68 10 149 10q8 37 8 41q0 68 -92 68q-72 0 -168 -27l-27 -8l5 119l22 6q121 39 217 39q201 0 201 -141q0 -41 -14 -93l-115 -395h-113l-4 35q-78 -53 -153 -53q-80 0 -129.5 37t-49.5 100zM555 903 q0 -20 18 -39q16 -16 58 -16q59 0 119 61l24 84h-4q-104 0 -152 -16q-51 -18 -63 -59v-15z" />
<glyph unicode="&#xab;" horiz-adv-x="1077" d="M205 623l399 405h289l-422 -405l188 -406h-288zM676 623l399 405h289l-422 -405l188 -406h-288z" />
<glyph unicode="&#xac;" horiz-adv-x="1398" d="M240 543l65 229h1233l-154 -530h-229l86 301h-1001z" />
<glyph unicode="&#xad;" horiz-adv-x="1073" d="M336 549l63 219h717l-63 -219h-717z" />
<glyph unicode="&#xae;" horiz-adv-x="1230" d="M342 897q0 66 23 145q45 152 151 275q106 121 258 196q143 72 297 72q184 0 301 -110.5t117 -284.5q0 -70 -23 -148q-43 -145 -153 -272q-106 -121 -258 -197q-147 -74 -295 -73q-186 0 -303 112q-115 111 -115 285zM510 940q0 -119 82 -201q78 -78 215 -77q141 0 274 90 h-149l-41 206h-72l-59 -206h-144l172 594h246q160 0 160 -121q0 -35 -10 -68q-16 -53 -51 -98q-39 -47 -97 -74l51 -229q115 82 173 182q59 106 59 205q0 119 -78 200.5t-217 81.5q-162 0 -307.5 -112.5t-192.5 -270.5q-14 -49 -14 -102zM856 1085h41h25q57 0 84 15 q29 16 36 47q4 16 5 24q0 27 -21 35q-18 8 -61 8h-72z" />
<glyph unicode="&#xaf;" horiz-adv-x="1398" d="M659 1450l66 231h913l-65 -231h-914z" />
<glyph unicode="&#xb0;" horiz-adv-x="587" d="M377 1161q0 41 10 74q31 109 131 186.5t207 77.5q84 0 141 -53q53 -51 54 -137q0 -41 -11 -74q-31 -111 -131 -188.5t-205 -77.5q-86 0 -141 55t-55 137zM557 1204q0 -25 16 -45q14 -16 49 -16t68 26.5t45 65.5q4 16 4 27q0 31 -16 47q-18 18 -47 18q-51 0 -84 -39 q-35 -41 -35 -84z" />
<glyph unicode="&#xb1;" horiz-adv-x="1398" d="M211 109l61 219h1043l-64 -219h-1040zM418 831l61 220h408l119 411h227l-119 -411h408l-64 -220h-405l-119 -411h-227l116 411h-405z" />
<glyph unicode="&#xb2;" horiz-adv-x="798" d="M332 733l26 94q47 80 119 158q76 82 127 121q100 76 113 84q59 41 90 67q37 31 43 54q2 6 2 14q0 27 -26.5 49.5t-71.5 22.5q-57 0 -193 -49l-24 -11l-17 136l25 10q154 66 268 65q100 0 157.5 -45t57.5 -121q0 -39 -6 -57q-14 -51 -53 -98q-43 -53 -84 -84l-101 -74 q-41 -29 -106 -84q-63 -53 -98 -96h329l-45 -156h-532z" />
<glyph unicode="&#xb3;" horiz-adv-x="798" d="M317 780l89 140l20 -7q94 -29 157.5 -28.5t112.5 28.5q55 33 66 74q4 16 4 27q0 76 -176 76h-27l45 151h25q170 0 194 82q2 6 2 12q0 25 -20.5 39.5t-63.5 14.5q-65 0 -172 -43l-24 -13l-19 142l25 10q145 61 248 61q98 0 149.5 -45t51.5 -115q0 -55 -29 -106t-86 -96 q53 -41 53 -115q0 -57 -29 -115q-31 -61 -82 -112t-128.5 -84t-167.5 -33q-98 0 -197 45z" />
<glyph unicode="&#xb4;" horiz-adv-x="1120" d="M590 1288l674 354l55 -194l-680 -338z" />
<glyph unicode="&#xb5;" horiz-adv-x="1175" d="M16 -451l424 1479h246l-172 -598q-23 -84 -22 -137q0 -139 141 -139q72 0 217 61l233 813h246l-307 -1069h-182l-9 49q-154 -76 -288 -76q-90 0 -158 43l-123 -426h-246z" />
<glyph unicode="&#xb6;" horiz-adv-x="1325" d="M387 961q0 84 27 172q25 82 65 151q39 66 84 111q49 49 101 75q53 29 104 46q45 14 106 24q66 10 93 10q10 0 36.5 1t43.5 1h575l-457 -1593h-245l391 1362h-160l-389 -1362h-248l197 686q-59 2 -115 23q-51 18 -102 53q-49 35 -78 96q-29 64 -29 144z" />
<glyph unicode="&#xb7;" horiz-adv-x="589" d="M317 588l84 291h291l-84 -291h-291z" />
<glyph unicode="&#xb8;" horiz-adv-x="1099" d="M199 -473l98 170l37 -12q133 -45 180 -45q35 0 49 10q18 12 21 26l1 3q1 3 1 6q0 6 -2 8l-9 8q-2 0 -5 4t-5 4l-5 3q-5 3 -9 5q-2 0 -10.5 4.5t-10.5 4.5q-12 4 -22 8q-8 2 -16.5 5t-12.5 5q-12 4 -33 10q-10 2 -19 6t-17 7l-35 10l160 286h210l-92 -169 q125 -45 125 -150q0 -20 -10 -57q-25 -88 -111 -156q-88 -70 -196 -70q-10 0 -39 4q-6 0 -17.5 1.5t-17.5 3.5t-19.5 5t-19.5 5q-16 4 -35 10q-4 2 -14 4t-27 8l-36 13z" />
<glyph unicode="&#xb9;" horiz-adv-x="542" d="M416 735l182 635l-149 -39l6 146l233 59h121l-229 -801h-164z" />
<glyph unicode="&#xba;" horiz-adv-x="751" d="M342 965q0 74 29 182q55 190 182 293q129 104 266 104q39 0 84 -10q35 -8 78 -35q40 -25 61 -74q23 -51 23 -116q0 -63 -27 -164q-57 -195 -182 -305q-127 -113 -272 -113q-106 0 -176 57q-66 54 -66 181zM512 1012q0 -74 33 -104.5t84 -30.5q23 0 45 6q31 8 51 22 q33 23 53 45q29 31 51 78q29 57 45 115q20 68 21 121q0 127 -123 127q-33 0 -57 -9q-29 -10 -64 -34q-39 -29 -65 -74q-29 -49 -51 -125q-23 -86 -23 -137z" />
<glyph unicode="&#xbb;" horiz-adv-x="1077" d="M72 217l422 406l-189 405h289l168 -405l-402 -406h-288zM543 217l422 406l-189 405h289l168 -405l-402 -406h-288z" />
<glyph unicode="&#xbc;" horiz-adv-x="1798" d="M309 -25l1272 1471h231l-1269 -1471h-234zM465 594l190 663l-143 -36l6 165l236 60h139l-246 -852h-182zM1049 170l34 123l541 567h197l-154 -530h109l-47 -160h-107l-55 -195h-185l58 195h-391zM1315 330h170l78 270z" />
<glyph unicode="&#xbd;" horiz-adv-x="1896" d="M309 -25l1272 1471h231l-1269 -1471h-234zM463 584l192 673l-143 -36l6 165l236 60h139l-248 -862h-182zM1174 -25l28 101q49 80 107 147q61 71 116 117l111 90q63 49 98 72q29 18 72 57q31 28 37 49q2 4 2 17q0 31 -29 55q-25 23 -80 22q-61 0 -211 -53l-24 -8l-21 143 l25 13q166 70 297 69q104 0 170 -49q63 -49 63 -131q0 -31 -8 -61q-20 -61 -57 -109q-41 -51 -94 -92l-111 -82q-45 -33 -119 -92q-55 -45 -108 -109h364l-47 -166h-581z" />
<glyph unicode="&#xbe;" horiz-adv-x="1949" d="M344 637l96 149l23 -6q117 -35 172 -35q68 0 125 33t71 84q6 18 7 31q0 84 -197 84h-25l48 164h24q82 0 141.5 20.5t75.5 71.5q2 6 2 14q0 25 -22 43q-18 16 -70 17q-71 0 -190 -50l-27 -10l-20 150l22 10q158 68 274 68q109 0 164.5 -49.5t55.5 -125.5q0 -59 -33 -116 q-35 -61 -96 -107q61 -45 61 -125q0 -39 -10 -69q-41 -135 -162 -221q-123 -86 -272 -87q-106 0 -217 52zM469 -25l1272 1471h231l-1270 -1471h-233zM1198 170l37 123l541 567h194l-151 -530h106l-47 -160h-106l-56 -195h-182l55 195h-391zM1464 330h170l78 270z" />
<glyph unicode="&#xbf;" horiz-adv-x="1046" d="M53 -74l140 197l32 -17q147 -66 252 -65q113 0 189 55q77 55 98 129q6 18 6 49q0 39 -22 74q-23 33 -54 66q-43 43 -63 69q-37 49 -56 103q-20 61 -20 143q0 117 41 258l12 41h252l-12 -41q-29 -102 -29 -172q0 -61 23 -117q23 -53 53 -88q14 -16 22.5 -24t18.5 -19.5 t22 -23.5q33 -37 53.5 -80t20.5 -103q0 -51 -18 -118q-25 -90 -92 -170q-70 -82 -150 -135q-86 -57 -170 -87q-94 -33 -164 -32q-102 0 -186 22q-76 20 -168 70zM637 1180l80 282h282l-81 -282h-281z" />
<glyph unicode="&#xc0;" horiz-adv-x="1546" d="M129 0l971 1421h276l156 -1421h-260l-51 373h-582l-264 -373h-246zM793 602h405l-51 528zM969 1749l178 197l530 -355l-164 -178z" />
<glyph unicode="&#xc1;" horiz-adv-x="1546" d="M129 0l971 1421h276l156 -1421h-260l-51 373h-582l-264 -373h-246zM793 602h405l-51 528zM895 1591l733 355l68 -197l-740 -336z" />
<glyph unicode="&#xc2;" horiz-adv-x="1546" d="M129 0l971 1421h276l156 -1421h-260l-51 373h-582l-264 -373h-246zM793 602h405l-51 528zM932 1585l479 359l244 -349l-209 -145l-137 195l-250 -193z" />
<glyph unicode="&#xc3;" horiz-adv-x="1546" d="M129 0l971 1421h276l156 -1421h-260l-51 373h-582l-264 -373h-246zM793 602h405l-51 528zM834 1513l20 43l18 35q6 10 14 27l7 16q2 4 22 41q18 33 27 43q10 14 31 39q18 25 37 39l41 31q25 18 47 26q33 12 53 17q31 6 63 6q59 -4 103 -21q45 -18 74 -47q35 -35 49 -51 q4 -4 17 -20.5t22 -24.5q16 -16 32 -16q10 0 17 2q4 2 16 14q10 10 15 17q2 4 7 12t7 12l14 27q2 2 7 13t10 19l16 33l20 39l197 -31l-20 -41l-13 -24l-26 -55q-9 -18 -31 -56q-27 -45 -37 -57q-12 -14 -47 -49q-23 -23 -55 -41q-27 -14 -66 -27q-33 -10 -82 -10 q-57 4 -100 20q-51 20 -76 46q-20 20 -49 53q-4 4 -17.5 21.5t-21.5 23.5q-16 16 -32.5 16t-26.5 -8q-6 -6 -27 -33q-2 -4 -23 -37q-2 -4 -10 -21.5t-14 -29.5q-2 -4 -6 -10t-4 -8l-19 -39z" />
<glyph unicode="&#xc4;" horiz-adv-x="1546" d="M129 0l971 1421h276l156 -1421h-260l-51 373h-582l-264 -373h-246zM793 602h405l-51 528zM905 1630l78 266h295l-78 -266h-295zM1399 1630l78 266h292l-75 -266h-295z" />
<glyph unicode="&#xc5;" horiz-adv-x="1546" d="M129 0l909 1337q-98 61 -98 170q0 61 35 127q35 68 92 119q59 53 137 86q82 35 166 35q123 0 193 -66q68 -63 67 -161q0 -88 -61 -174q-59 -84 -178 -138l141 -1335h-260l-51 373h-582l-264 -373h-246zM793 602h405l-51 528zM1157 1544q0 -37 25 -57q27 -23 73 -23 q51 0 97 35q47 37 57 78q4 16 4 27q0 35 -24.5 59.5t-69.5 24.5q-72 0 -117 -45.5t-45 -98.5z" />
<glyph unicode="&#xc6;" horiz-adv-x="2078" d="M129 0l1018 1421h1198l-66 -231h-643l-98 -342h588l-66 -232h-587l-111 -385h643l-68 -231h-911l109 373h-478l-276 -373h-252zM819 602h381l168 588h-123z" />
<glyph unicode="&#xc7;" horiz-adv-x="1613" d="M446 494q0 102 33 217q43 154 137 284q96 135 226 230q131 96 299 151q169 55 356 56q223 0 401 -80l31 -15l-139 -217l-35 15q-172 63 -330 63q-123 0 -237 -39q-113 -39 -205 -108q-90 -70 -154 -156q-61 -84 -90 -184q-18 -68 -18 -127q0 -164 121 -265 q125 -102 344 -102q158 0 342 59l41 13l24 -201l-43 -14q-233 -90 -477 -94l-24 -46q137 -45 137 -159q0 -102 -107 -191q-109 -90 -248 -90q-47 0 -86 8q-23 4 -174 47l-39 11l111 184l39 -12q160 -49 211 -49q57 0 65 30l1 2l2 4q0 20 -74 45q-18 6 -129 37l-41 11 l117 196q-190 49 -289 178.5t-99 307.5z" />
<glyph unicode="&#xc8;" horiz-adv-x="1445" d="M291 0l405 1421h998l-66 -231h-743l-99 -342h689l-66 -232h-688l-111 -385h744l-68 -231h-995zM901 1769l168 195l555 -352l-156 -178z" />
<glyph unicode="&#xc9;" horiz-adv-x="1445" d="M291 0l405 1421h998l-66 -231h-743l-99 -342h689l-66 -232h-688l-111 -385h744l-68 -231h-995zM897 1612l756 352l55 -195l-762 -335z" />
<glyph unicode="&#xca;" horiz-adv-x="1445" d="M291 0l405 1421h998l-66 -231h-743l-99 -342h689l-66 -232h-688l-111 -385h744l-68 -231h-995zM877 1593l489 359l250 -350l-203 -144l-151 195l-267 -193z" />
<glyph unicode="&#xcb;" horiz-adv-x="1445" d="M291 0l405 1421h998l-66 -231h-743l-99 -342h689l-66 -232h-688l-111 -385h744l-68 -231h-995zM858 1630l76 268h291l-76 -268h-291zM1366 1630l76 268h289l-76 -268h-289z" />
<glyph unicode="&#xcc;" horiz-adv-x="811" d="M336 0l405 1421h252l-405 -1421h-252zM637 1749l170 195l473 -355l-156 -176z" />
<glyph unicode="&#xcd;" horiz-adv-x="892" d="M416 0l407 1421h252l-407 -1421h-252zM584 1593l757 353l56 -195l-762 -338z" />
<glyph unicode="&#xce;" horiz-adv-x="811" d="M338 0l407 1421h252l-407 -1421h-252zM596 1585l442 359l213 -351l-194 -143l-119 195l-231 -193z" />
<glyph unicode="&#xcf;" horiz-adv-x="751" d="M291 0l405 1421h252l-405 -1421h-252zM535 1556l75 269h269l-78 -269h-266zM924 1556l75 269h269l-78 -269h-266z" />
<glyph unicode="&#xd0;" horiz-adv-x="1767" d="M295 616l65 234h218l163 571h478q14 0 37.5 -1t35.5 -1q39 0 90 -6q66 -8 99 -14q55 -10 102 -27q61 -20 98 -39q41 -20 88 -57q37 -29 70 -80q29 -45 47 -102q18 -58 19 -129q0 -102 -33 -213q-215 -752 -1124 -752h-412l176 616h-217zM653 231h166q49 0 119 5 q59 4 125 14q90 14 133 29q47 14 125 57q59 33 119 88q49 45 96 125q43 72 72 170q20 70 20 141q0 66 -22 123q-20 51 -72 102q-47 49 -143 76q-98 29 -226 29h-237l-99 -340h263l-68 -234h-260z" />
<glyph unicode="&#xd1;" horiz-adv-x="1822" d="M291 0l405 1421h279l479 -1091l313 1091h252l-405 -1421h-283l-475 1094l-313 -1094h-252zM965 1513l20 43q8 16 19 35q6 10 13 27l7 16q2 4 23 41q18 33 26 43q10 14 31 39q20 29 35 39l41 31q23 16 49 26q33 12 53 17q31 6 61 6q59 -4 103 -21q45 -18 74 -47 q35 -35 49 -51q29 -33 41 -45q16 -16 32 -16q10 0 17 2l14 14q10 10 15 17q2 2 5 6t6 9t5 9l14 27q2 2 7.5 13l9.5 19.5t8 19.5t6 13l20 39l197 -31l-20 -41l-13 -24l-26 -55q-23 -43 -29 -56q-23 -37 -39 -57q-25 -29 -45 -49q-23 -23 -55 -41q-23 -12 -68 -27 q-33 -10 -80 -10q-59 4 -102 20q-47 18 -74 46q-20 20 -49 53t-41 45q-16 16 -33 16q-14 0 -24 -8q-6 -6 -27 -33q-2 -4 -22 -37l-10.5 -21.5l-14.5 -29.5q-2 -4 -6 -10t-4 -8l-21 -39z" />
<glyph unicode="&#xd2;" horiz-adv-x="1849" d="M383 477q0 102 35 230q66 223 207 385q147 170 338 256q195 88 415 88q267 0 424 -129q156 -129 156 -361q0 -100 -35 -221q-61 -217 -205 -385q-147 -172 -342 -262q-201 -92 -422 -92q-121 0 -225 30q-106 31 -180 90q-82 66 -123 156q-43 95 -43 215zM655 563 q0 -162 105 -254q106 -94 274 -94q80 0 183 31q92 28 178 86q92 63 157 153q74 102 109 224q25 86 25 159q0 80 -33 152q-29 63 -88 106q-51 37 -123 60q-57 18 -144 18q-82 0 -178 -28q-90 -27 -178 -84q-90 -57 -158 -150q-68 -90 -102 -215q-27 -92 -27 -164zM1171 1753 l179 195l522 -353l-164 -178z" />
<glyph unicode="&#xd3;" horiz-adv-x="1849" d="M383 477q0 102 35 230q66 223 207 385q147 170 338 256q195 88 415 88q267 0 424 -129q156 -129 156 -361q0 -100 -35 -221q-61 -217 -205 -385q-147 -172 -342 -262q-201 -92 -422 -92q-121 0 -225 30q-106 31 -180 90q-82 66 -123 156q-43 95 -43 215zM655 563 q0 -162 105 -254q106 -94 274 -94q80 0 183 31q92 28 178 86q92 63 157 153q74 102 109 224q25 86 25 159q0 80 -33 152q-29 63 -88 106q-51 37 -123 60q-57 18 -144 18q-82 0 -178 -28q-90 -27 -178 -84q-90 -57 -158 -150q-68 -90 -102 -215q-27 -92 -27 -164zM1057 1593 l727 353l63 -195l-731 -338z" />
<glyph unicode="&#xd4;" horiz-adv-x="1849" d="M383 477q0 102 35 230q66 223 207 385q147 170 338 256q195 88 415 88q267 0 424 -129q156 -129 156 -361q0 -100 -35 -221q-61 -217 -205 -385q-147 -172 -342 -262q-201 -92 -422 -92q-121 0 -225 30q-106 31 -180 90q-82 66 -123 156q-43 95 -43 215zM655 563 q0 -162 105 -254q106 -94 274 -94q80 0 183 31q92 28 178 86q92 63 157 153q74 102 109 224q25 86 25 159q0 80 -33 152q-29 63 -88 106q-51 37 -123 60q-57 18 -144 18q-82 0 -178 -28q-90 -27 -178 -84q-90 -57 -158 -150q-68 -90 -102 -215q-27 -92 -27 -164zM1079 1585 l475 359l240 -349l-207 -145l-135 195l-248 -193z" />
<glyph unicode="&#xd5;" horiz-adv-x="1849" d="M383 477q0 102 35 230q66 223 207 385q147 170 338 256q195 88 415 88q267 0 424 -129q156 -129 156 -361q0 -100 -35 -221q-61 -217 -205 -385q-147 -172 -342 -262q-201 -92 -422 -92q-121 0 -225 30q-106 31 -180 90q-82 66 -123 156q-43 95 -43 215zM655 563 q0 -162 105 -254q106 -94 274 -94q80 0 183 31q92 28 178 86q92 63 157 153q74 102 109 224q25 86 25 159q0 82 -33 152q-33 68 -86 106q-51 37 -123 60q-57 18 -146 18q-82 0 -178 -28q-90 -27 -178 -84q-90 -57 -158 -150q-68 -90 -102 -215q-27 -92 -27 -164zM977 1513 l20 43q8 16 19 35q6 10 13 27l7 16q2 4 23 41q18 33 26 43q10 14 31 39q20 29 35 39l41 31q25 18 47 26q31 12 55 17q31 6 62 6q59 -4 102 -21q45 -18 74 -47q35 -35 49 -51q29 -33 41 -45q16 -16 33 -16q8 0 14 2q2 2 17 14q10 10 14 17q2 4 7 12t7 12q8 16 15 27q2 2 5 7 t6 12t7 13q4 8 8 19.5t6 13.5l21 39l196 -31l-20 -41l-12 -24l-27 -55q-23 -43 -29 -56q-23 -37 -39 -57q-25 -29 -45 -49.5t-57 -40.5q-27 -14 -66 -27q-33 -10 -79 -10q-59 4 -103 20q-47 18 -74 46q-20 20 -48.5 53t-41.5 45q-16 16 -32 16q-14 0 -25 -8q-6 -6 -27 -33 q-2 -4 -22 -37q-2 -6 -11.5 -22.5t-15.5 -28.5q-2 -4 -6 -10t-4 -8l-18 -39z" />
<glyph unicode="&#xd6;" horiz-adv-x="1849" d="M383 477q0 102 35 230q66 223 207 385q147 170 338 256q195 88 415 88q267 0 424 -129q156 -129 156 -361q0 -100 -35 -221q-61 -217 -205 -385q-147 -172 -342 -262q-201 -92 -422 -92q-121 0 -225 30q-106 31 -180 90q-82 66 -123 156q-43 95 -43 215zM655 563 q0 -162 105 -254q106 -94 274 -94q80 0 183 31q92 28 178 86q92 63 157 153q74 102 109 224q25 86 25 159q0 80 -33 152q-29 63 -88 106q-51 37 -123 60q-57 18 -144 18q-82 0 -178 -28q-90 -27 -178 -84q-90 -57 -158 -150q-68 -90 -102 -215q-27 -92 -27 -164zM1055 1630 l75 268h291l-75 -268h-291zM1542 1630l78 268h291l-76 -268h-293z" />
<glyph unicode="&#xd7;" horiz-adv-x="1462" d="M276 328l465 325l-272 318l209 164l307 -332l488 325l116 -163l-463 -326l273 -317l-211 -164l-307 331l-488 -323z" />
<glyph unicode="&#xd8;" horiz-adv-x="1918" d="M197 127l237 162q-31 84 -31 186q0 104 35 232q66 223 207 385q147 170 338 256q195 88 416 88q319 0 471 -176l231 157l74 -129l-231 -153q33 -86 32 -189q0 -109 -32 -221q-59 -213 -207 -385t-342 -262q-199 -92 -420 -92q-152 0 -268 45q-123 47 -197 133l-244 -164z M676 563q0 -53 12 -102l934 633q-106 111 -299 110q-88 0 -184 -28q-90 -27 -178 -84q-90 -59 -156 -150q-72 -102 -105 -215q-24 -86 -24 -164zM758 332q106 -117 297 -117q80 0 182 31q92 28 178 86q92 63 158 153q70 96 106 224q27 94 27 159q0 53 -12 97z" />
<glyph unicode="&#xd9;" horiz-adv-x="1742" d="M399 305q0 84 33 191l264 925h252l-258 -901q-18 -68 -18 -119q0 -193 301 -192q102 0 188 22q74 18 133 68q51 41 84 98q33 55 54 123l258 901h252l-267 -925l-16 -58q-4 -16 -27 -67q-18 -45 -39 -76q-27 -43 -53 -76q-34 -43 -74 -74q-35 -27 -98 -63 q-59 -35 -125 -55q-63 -20 -156 -33q-104 -14 -190 -14q-498 -1 -498 325zM1049 1778l182 194l541 -352l-164 -176z" />
<glyph unicode="&#xda;" horiz-adv-x="1742" d="M399 305q0 84 33 191l264 925h252l-258 -901q-18 -68 -18 -119q0 -193 301 -192q102 0 188 22q74 18 133 68q51 41 84 98q33 55 54 123l258 901h252l-267 -925l-16 -58q-4 -16 -27 -67q-18 -45 -39 -76q-27 -43 -53 -76q-34 -43 -74 -74q-35 -27 -98 -63 q-59 -35 -125 -55q-63 -20 -156 -33q-104 -14 -190 -14q-498 -1 -498 325zM1012 1622l747 354l66 -194l-750 -338z" />
<glyph unicode="&#xdb;" horiz-adv-x="1742" d="M399 305q0 84 33 191l264 925h252l-258 -901q-18 -68 -18 -119q0 -193 301 -192q102 0 188 22q74 18 133 68q51 41 84 98q33 55 54 123l258 901h252l-267 -925l-16 -58q-4 -16 -27 -67q-18 -45 -39 -76q-27 -43 -53 -76q-34 -43 -74 -74q-35 -27 -98 -63 q-59 -35 -125 -55q-63 -20 -156 -33q-104 -14 -190 -14q-498 -1 -498 325zM999 1585l488 359l250 -351l-213 -143l-142 195l-252 -193z" />
<glyph unicode="&#xdc;" horiz-adv-x="1742" d="M399 305q0 84 33 191l264 925h252l-258 -901q-18 -68 -18 -119q0 -193 301 -192q102 0 188 22q74 18 133 68q51 41 84 98q33 55 54 123l258 901h252l-267 -925l-16 -58q-4 -16 -27 -67q-18 -45 -39 -76q-27 -43 -53 -76q-34 -43 -74 -74q-35 -27 -98 -63 q-59 -35 -125 -55q-63 -20 -156 -33q-104 -14 -190 -14q-498 -1 -498 325zM981 1630l76 268h297l-76 -268h-297zM1483 1630l76 268h296l-75 -268h-297z" />
<glyph unicode="&#xdd;" horiz-adv-x="1425" d="M508 1421h297l221 -551l547 551h289l-762 -757l-191 -664h-282l188 664zM852 1622l741 354l70 -194l-750 -338z" />
<glyph unicode="&#xde;" horiz-adv-x="1488" d="M291 0l405 1421h252l-74 -262q147 10 267 10q115 0 200 -12q84 -12 156 -43q74 -33 109 -84q37 -55 36 -133q0 -57 -20 -125q-12 -41 -39 -102q-25 -55 -61 -107q-49 -68 -86 -102q-45 -43 -119 -84q-66 -37 -150 -60q-152 -33 -401 -32q-51 0 -141 4l-82 -289h-252z M690 520q104 -6 178 -6h31q41 0 98 4q61 4 95 10q45 8 88 25q35 12 75 41q33 23 64 65q25 35 41 93q10 37 10 61q0 51 -27 80q-29 33 -77 47q-47 14 -107 21q-55 6 -131 6q-113 0 -211 -6z" />
<glyph unicode="&#xdf;" horiz-adv-x="1411" d="M195 0l282 981q29 94 74 170q41 68 106 127q57 51 127 86q74 37 139.5 51.5t141.5 14.5q92 0 154 -23q68 -25 108.5 -66t59 -90t18.5 -104q0 -43 -12 -86q-14 -53 -52 -103q-33 -45 -75 -77q-35 -27 -86 -58q-31 -18 -84 -45q-37 -18 -66 -41q-27 -20 -33 -39 q-2 -6 -2 -12q0 -23 29 -41q27 -18 72 -31q49 -14 92 -32q57 -25 92 -45q45 -25 72 -68q29 -45 28 -102q0 -43 -14 -88q-16 -55 -47 -99q-39 -55 -86 -98q-51 -47 -143 -78q-89 -31 -197 -31q-170 0 -348 50l-41 12l112 190l41 -8q152 -29 256 -29q94 0 142 25q43 23 59 76 q4 20 4 24q0 27 -22 49q-16 16 -60 35q-33 14 -78 27q-49 14 -88 31q-55 25 -77 37q-37 20 -60 57q-23 35 -22 82q0 27 10 67q18 57 61 109q41 47 97 80q35 20 104 55q51 25 88 51q37 25 47 58q4 14 4 32q0 51 -43 84q-41 33 -100 33q-20 0 -31 -2q-2 0 -10 -2t-15.5 -3 t-15.5 -3q-20 -4 -51 -25q-33 -20 -51 -37q-23 -20 -47 -61q-16 -29 -35 -86l-283 -981h-245z" />
<glyph unicode="&#xe0;" horiz-adv-x="1220" d="M188 209q0 33 9 57q23 76 71 127q47 51 119 86q59 29 164 53q63 14 190 27q106 10 213 10l11 33q10 37 10 60q0 49 -45 75.5t-162 26.5q-121 0 -297 -41l-41 -10l4 192l39 13q182 63 389 63q377 0 377 -229q0 -55 -20 -123l-181 -629h-184l-8 66q-158 -86 -334 -86 q-150 0 -238 65q-86 66 -86 164zM446 274q0 -33 52 -57q53 -27 131 -27q125 0 235 62l37 133h-22q-186 0 -310 -25q-104 -20 -120 -75l-2 -4q-1 -5 -1 -7zM727 1376l221 180l359 -395l-179 -170z" />
<glyph unicode="&#xe1;" horiz-adv-x="1220" d="M188 209q0 33 9 57q23 76 71 127q47 51 119 86q59 29 164 53q63 14 190 27q106 10 213 10l11 33q10 37 10 60q0 49 -45 75.5t-162 26.5q-121 0 -297 -41l-41 -10l4 192l39 13q182 63 389 63q377 0 377 -229q0 -55 -20 -123l-181 -629h-184l-8 66q-158 -86 -334 -86 q-150 0 -238 65q-86 66 -86 164zM446 274q0 -33 52 -57q53 -27 131 -27q125 0 235 62l37 133h-22q-186 0 -310 -25q-104 -20 -120 -75l-2 -4q-1 -5 -1 -7zM631 1171l606 396l96 -181l-610 -385z" />
<glyph unicode="&#xe2;" horiz-adv-x="1220" d="M188 209q0 33 9 57q23 76 71 127q47 51 119 86q59 29 164 53q63 14 190 27q106 10 213 10l11 33q10 37 10 60q0 49 -45 75.5t-162 26.5q-121 0 -297 -41l-41 -10l4 192l39 13q182 63 389 63q377 0 377 -229q0 -55 -20 -123l-181 -629h-184l-8 66q-158 -86 -334 -86 q-150 0 -238 65q-86 66 -86 164zM446 274q0 -33 52 -57q53 -27 131 -27q125 0 235 62l37 133h-22q-186 0 -310 -25q-104 -20 -120 -75l-2 -4q-1 -5 -1 -7zM565 1135l494 374l235 -364l-196 -154l-146 203l-272 -199z" />
<glyph unicode="&#xe3;" horiz-adv-x="1220" d="M188 209q0 33 9 57q23 76 71 127q47 51 119 86q61 31 162 53q61 14 188 27q102 10 211 10l10 33q12 37 13 62q0 47 -45 73.5t-160 26.5q-119 0 -295 -41l-41 -10l4 192l39 13q182 63 385 63q381 0 381 -229q0 -55 -20 -123l-181 -629h-184l-8 66q-166 -86 -334 -86 q-150 0 -238 65q-86 66 -86 164zM446 274q0 -33 50 -57q53 -27 129 -27q123 0 233 62l39 133h-25q-186 0 -305 -25q-102 -20 -118 -75l-2 -4q-1 -5 -1 -7zM479 1075l64 129q41 82 82 129q94 106 221 107q57 -2 108 -23q51 -18 80 -45l56 -53l45 -43q18 -18 34 -19q12 0 23 9 q16 12 22 22q12 20 17 29l12 24l8 17l43 92l181 -33l-64 -127q-53 -109 -108 -160q-82 -76 -185 -75q-55 2 -108 22q-55 20 -82 45q-20 18 -54 52l-43 45q-18 18 -36 18q-39 0 -86 -94q-2 -4 -2 -6l-45 -88z" />
<glyph unicode="&#xe4;" horiz-adv-x="1226" d="M188 209q0 33 9 57q16 57 45 96q31 41 71 72q43 31 99 55q37 16 114 37q57 14 133 25q74 8 146 12q141 6 153 6l11 33q12 37 12 60q0 47 -47 75q-45 27 -164 27q-117 0 -297 -41l-43 -10l4 192l39 13q184 63 391 63q115 0 183 -16q76 -18 118 -50q39 -29 60 -71 q18 -40 18 -92q0 -61 -18 -123l-181 -629h-184l-8 66q-160 -86 -338 -86q-150 0 -238 65.5t-88 163.5zM446 274q0 -33 52 -57q57 -27 133 -27q123 0 237 62l37 133h-22q-190 0 -314 -25q-104 -20 -120 -75l-2 -4q-1 -5 -1 -7zM588 1153l76 268h303l-76 -268h-303zM1108 1153 l76 268h272l-78 -268h-270z" />
<glyph unicode="&#xe5;" horiz-adv-x="1226" d="M188 209q0 33 9 57q23 76 71 127q45 49 121 86q59 29 164 53q61 14 192 27q106 10 216 10l10 33q10 37 10 60q0 47 -47 75q-45 27 -164 27q-117 0 -297 -41l-43 -10l4 192l39 13q184 63 391 63q381 0 381 -229q0 -55 -20 -123l-181 -629h-184l-8 66q-156 -86 -336 -86 q-152 0 -240 65.5t-88 163.5zM446 274q0 -33 52 -57q57 -27 133 -27q126 0 239 62l37 133h-24q-190 0 -314 -25q-104 -20 -120 -75l-2 -4q-1 -5 -1 -7zM690 1229q0 33 10 69q31 117 144 195q115 80 243 80q104 0 164 -55.5t60 -141.5q0 -37 -13 -78q-35 -117 -137 -196 q-104 -80 -231 -80q-111 0 -174 57q-66 60 -66 150zM899 1266q0 -31 20.5 -51.5t61.5 -20.5q43 0 82 31q35 27 49 73q4 16 4 27q0 33 -20 53q-23 23 -58 23q-58 0 -98 -43q-41 -45 -41 -92z" />
<glyph unicode="&#xe6;" horiz-adv-x="1802" d="M188 213q0 23 11 63q33 117 161 199q126 80 326 98q59 4 221 9q12 41 13 73q0 123 -172 123q-98 0 -261 -39l-38 -10l-17 178l41 15q180 59 377 59q231 0 299 -145q90 66 199 106q104 39 208 39q283 0 283 -276q0 -119 -47 -281l-12 -41h-668v-12q0 -78 78 -127 q76 -49 207 -49q88 0 205 32l45 13l-11 -189l-37 -12q-174 -59 -329 -59q-113 0 -203 32q-92 34 -147 99q-170 -131 -410 -131q-135 0 -229 65q-93 66 -93 168zM451 291q0 -43 45 -70q47 -29 112 -28q102 0 207 69l47 162q-125 -4 -207 -12q-80 -8 -123 -29q-45 -20 -57 -33 q-16 -16 -22 -41q-2 -6 -2 -18zM1180 588h426q4 29 4 45q0 125 -148 125q-98 0 -173.5 -49t-108.5 -121z" />
<glyph unicode="&#xe7;" horiz-adv-x="1150" d="M217 -434l109 170l41 -12q156 -45 208 -46h3q27 0 55 13q22 9 24 24l2 6q0 18 -32 31q-12 6 -117 35l-25.5 7t-18.5 5t-15 4l-39 13l100 168q-283 55 -283 303q0 68 27 164q33 113 92 204q55 86 131 150q68 55 160 98q86 40 172 55q92 16 174 17q160 0 287 -64l31 -14 l-119 -195l-35 15q-94 35 -203 35q-350 0 -426 -273q-16 -59 -16 -100q0 -201 301 -201q94 0 186 31l41 12l15 -182l-41 -14q-131 -45 -254 -56l-27 -41q135 -43 135 -145q0 -33 -8 -59q-23 -84 -115 -154q-90 -68 -211 -68q-29 0 -45 2q-6 0 -20.5 1t-20.5 3q-4 0 -18 4.5 t-27 6.5l-41 10q-2 0 -18.5 5l-30.5 9q-33 8 -45 13z" />
<glyph unicode="&#xe8;" horiz-adv-x="1239" d="M231 297q0 72 25 156q35 127 113 237q74 102 170 166q100 66 202 94q106 31 220 31q328 0 327 -262q0 -80 -45 -244l-31 -110h-737q2 -70 84 -121t244 -51q111 0 237 34l43 11l-6 -189l-39 -12q-174 -57 -366 -57q-123 0 -211 24q-86 25 -137 72q-49 47 -70 98 q-23 57 -23 123zM537 571h499q6 31 6 56q0 70 -47 100q-45 31 -139 31q-111 0 -199 -53q-85 -54 -120 -134zM739 1386l217 181l359 -396l-178 -170z" />
<glyph unicode="&#xe9;" horiz-adv-x="1239" d="M231 297q0 72 25 156q35 127 113 237q74 102 170 166q100 66 202 94q106 31 220 31q328 0 327 -262q0 -80 -45 -244l-31 -110h-737q2 -70 84 -121t244 -51q111 0 237 34l43 11l-6 -189l-39 -12q-174 -57 -366 -57q-123 0 -211 24q-86 25 -137 72q-49 47 -70 98 q-23 57 -23 123zM537 571h499q6 31 6 56q0 70 -47 100q-45 31 -139 31q-111 0 -199 -53q-85 -54 -120 -134zM727 1171l602 396l90 -181l-590 -385z" />
<glyph unicode="&#xea;" horiz-adv-x="1239" d="M231 297q0 72 25 156q35 127 113 237q74 102 170 166q100 66 202 94q106 31 220 31q328 0 327 -262q0 -80 -45 -244l-31 -110h-737q2 -70 84 -121t244 -51q111 0 237 34l43 11l-6 -189l-39 -12q-174 -57 -366 -57q-123 0 -211 24q-86 25 -137 72q-49 47 -70 98 q-23 57 -23 123zM537 571h499q6 31 6 56q0 70 -47 100q-45 31 -139 31q-111 0 -199 -53q-85 -54 -120 -134zM647 1135l496 374l225 -364l-190 -154l-142 203l-262 -199z" />
<glyph unicode="&#xeb;" horiz-adv-x="1253" d="M231 297q0 72 25 156q37 133 113 237q78 106 174 166q104 66 205 94q108 31 221 31q334 0 334 -262q0 -82 -46 -244l-30 -110h-748q0 -70 86 -121q84 -51 246 -51q113 0 242 34l43 11l-4 -189l-39 -12q-178 -57 -373 -57q-126 0 -215 24q-88 25 -139 72q-51 49 -72 100 q-23 58 -23 121zM537 571h507q6 31 7 56q0 131 -189 131q-123 0 -205 -53q-87 -58 -120 -134zM618 1153l76 268h303l-77 -268h-302zM1133 1153l75 268h281l-78 -268h-278z" />
<glyph unicode="&#xec;" horiz-adv-x="595" d="M193 0l282 987h246l-283 -987h-245zM399 1395l193 172l311 -377l-174 -164z" />
<glyph unicode="&#xed;" horiz-adv-x="595" d="M190 0l283 987h246l-283 -987h-246zM451 1190l528 377l92 -172l-541 -369z" />
<glyph unicode="&#xee;" horiz-adv-x="602" d="M190 0l283 987h248l-285 -987h-246zM346 1151l410 362l174 -354l-191 -145l-90 180l-196 -176z" />
<glyph unicode="&#xef;" horiz-adv-x="604" d="M180 0l283 987h246l-283 -987h-246zM315 1153l76 268h268l-75 -268h-269zM684 1153l78 268h266l-76 -268h-268z" />
<glyph unicode="&#xf0;" horiz-adv-x="1398" d="M229 299q0 57 23 135q61 217 241.5 366.5t411.5 149.5q147 0 297 -67q-6 102 -69 178l-240 -109l-59 166l151 70q-63 37 -137 61l-45 17l166 200l35 -10q163 -43 282 -135l234 113l49 -166l-168 -84q57 -96 57 -228q0 -111 -47 -276q-18 -70 -47 -150q-23 -59 -64 -143 q-39 -80 -77 -131q-45 -61 -101 -111q-66 -57 -125 -88q-74 -37 -155.5 -57t-188.5 -20q-199 0 -311.5 83.5t-112.5 235.5zM502 424q0 -104 65 -166q65 -61 166 -61q49 0 84 10q41 12 96 41q53 29 105 88q51 61 88 145q33 82 63 189l11 39q-154 98 -289 98q-127 0 -232 -80 q-106 -82 -143 -205q-14 -49 -14 -98z" />
<glyph unicode="&#xf1;" d="M176 0l277 963h182l8 -68q225 88 408 88q289 0 288 -227q0 -68 -32 -187l-162 -569h-248l162 561q12 49 12 78q0 115 -172 115q-113 0 -276 -54l-201 -700h-246zM565 1081l62 127q47 100 110 158q84 76 197 76q63 -4 108 -21q47 -18 80 -47l54 -51l43 -43q18 -18 34 -18 q12 0 23 8q12 10 20 22q2 4 8.5 12.5t8.5 12.5q8 16 12 26q2 4 4 8.5t3 7.5l1 3l45 92l181 -33l-64 -127q-111 -236 -293 -235q-61 4 -108 20q-43 16 -78 47q-41 37 -55 52l-43 43q-18 18 -35 18q-37 0 -86 -98l-47 -88z" />
<glyph unicode="&#xf2;" horiz-adv-x="1357" d="M238 315q0 74 24 156q68 233 256 373q186 137 447 137q200 0 313 -86q115 -86 115 -246q0 -61 -25 -149q-70 -244 -260 -381q-195 -139 -451 -139q-201 0 -309 88q-110 87 -110 247zM500 414q0 -96 63.5 -153.5t179.5 -57.5q125 0 233.5 73.5t141.5 194.5q14 49 15 84 q0 96 -74 152q-72 53 -174 53q-119 0 -227.5 -69.5t-145.5 -194.5q-12 -43 -12 -82zM819 1386l217 181l353 -396l-187 -170z" />
<glyph unicode="&#xf3;" horiz-adv-x="1357" d="M238 315q0 74 24 156q68 233 256 373q186 137 447 137q200 0 313 -86q115 -86 115 -246q0 -61 -25 -149q-70 -244 -260 -381q-195 -139 -451 -139q-201 0 -309 88q-110 87 -110 247zM500 414q0 -96 63.5 -153.5t179.5 -57.5q125 0 233.5 73.5t141.5 194.5q14 49 15 84 q0 96 -74 152q-72 53 -174 53q-119 0 -227.5 -69.5t-145.5 -194.5q-12 -43 -12 -82zM659 1171l584 396l113 -181l-604 -385z" />
<glyph unicode="&#xf4;" horiz-adv-x="1357" d="M238 315q0 74 24 156q68 233 256 373q186 137 447 137q200 0 313 -86q115 -86 115 -246q0 -61 -25 -149q-70 -244 -260 -381q-195 -139 -451 -139q-201 0 -309 88q-110 87 -110 247zM500 414q0 -96 63.5 -153.5t179.5 -57.5q125 0 233.5 73.5t141.5 194.5q14 49 15 84 q0 96 -74 152q-72 53 -174 53q-119 0 -227.5 -69.5t-145.5 -194.5q-12 -43 -12 -82zM645 1135l485 374l238 -364l-205 -154l-139 203l-256 -199z" />
<glyph unicode="&#xf5;" horiz-adv-x="1357" d="M238 315q0 74 24 156q68 233 256 373q186 137 447 137q200 0 313 -86q115 -86 115 -246q0 -61 -25 -149q-70 -244 -260 -381q-195 -139 -451 -139q-201 0 -309 88q-110 87 -110 247zM500 414q0 -96 63.5 -153.5t179.5 -57.5q125 0 233.5 73.5t141.5 194.5q14 49 15 84 q0 96 -74 152q-72 53 -174 53q-119 0 -227.5 -69.5t-145.5 -194.5q-12 -43 -12 -82zM545 1079l63 129q37 74 76 123q96 113 225 113q57 -2 109 -23q51 -18 80 -45q20 -18 55 -53l45 -43q18 -18 35 -18q12 0 22 8q12 10 21 22q12 20 16 29q2 6 6.5 11t8.5 14l6 16l43 92 l180 -33l-63 -127q-53 -109 -107 -157q-82 -78 -184 -78q-55 2 -109 22q-51 18 -80 45q-41 37 -55 52l-43 45q-16 16 -37 16q-39 0 -84 -92q0 -2 -2 -3t-2 -3l-45 -88z" />
<glyph unicode="&#xf6;" horiz-adv-x="1368" d="M238 317q0 71 24 154q68 236 258 373q188 137 451 137q201 0 317 -86q115 -84 115 -248q0 -61 -23 -147q-68 -242 -264 -381q-195 -139 -452 -139q-205 0 -314 88q-112 89 -112 249zM500 414q0 -94 65 -154q63 -57 183 -57q133 0 239 73q111 76 143 195q12 43 13 82 q0 96 -74 151.5t-178 55.5q-125 0 -233.5 -69.5t-145.5 -194.5q-12 -43 -12 -82zM645 1153l78 268h299l-78 -268h-299zM1149 1153l78 268h289l-76 -268h-291z" />
<glyph unicode="&#xf7;" horiz-adv-x="1562" d="M283 547l61 221h1315l-64 -221h-1312zM651 84l80 276h307l-80 -276h-307zM901 956l80 277h307l-80 -277h-307z" />
<glyph unicode="&#xf8;" horiz-adv-x="1355" d="M137 63l139 99q-37 68 -36 157q0 78 22 154q68 233 256 373q182 135 445 135q219 0 327 -100l166 139l66 -143l-154 -111q23 -61 23 -127q0 -63 -23 -143q-68 -240 -260 -379q-188 -137 -449 -137q-182 0 -290 77l-158 -112zM498 412q0 -43 16 -82l541 381 q-63 49 -170 49q-74 0 -150 -29q-70 -27 -137 -90q-61 -57 -86 -145q-14 -49 -14 -84zM606 229q61 -29 135 -28q82 0 160 32q70 29 123 82q49 49 77.5 113t28.5 123q0 18 -4 47z" />
<glyph unicode="&#xf9;" d="M258 211q0 82 33 192l168 584h246l-166 -581q-14 -53 -15 -76q0 -121 172 -121q119 0 279 55l207 723h245l-282 -987h-184l-11 68q-227 -88 -403 -88q-289 0 -289 231zM764 1395l211 172l368 -377l-180 -164z" />
<glyph unicode="&#xfa;" d="M258 211q0 82 33 192l168 584h246l-166 -581q-14 -53 -15 -76q0 -121 172 -121q119 0 279 55l207 723h245l-282 -987h-184l-11 68q-227 -88 -403 -88q-289 0 -289 231zM723 1190l600 377l98 -172l-598 -369z" />
<glyph unicode="&#xfb;" d="M258 211q0 82 33 192l168 584h246l-166 -581q-14 -53 -15 -76q0 -121 172 -121q119 0 279 55l207 723h245l-282 -987h-184l-11 68q-227 -88 -403 -88q-289 0 -289 231zM637 1151l483 358l244 -348l-199 -145l-147 194l-262 -190z" />
<glyph unicode="&#xfc;" horiz-adv-x="1333" d="M258 213q0 84 33 190l168 584h246l-166 -581q-14 -53 -15 -76q0 -121 176 -121q119 0 281 55l207 723h246l-283 -987h-182l-11 68q-229 -88 -409 -88q-291 0 -291 233zM602 1153l78 268h291l-78 -268h-291zM1106 1153l76 268h288l-75 -268h-289z" />
<glyph unicode="&#xfd;" horiz-adv-x="1202" d="M100 -530l400 532l-168 985h260l108 -758l514 758h261l-1080 -1517h-295zM762 1190l586 377l100 -172l-586 -369z" />
<glyph unicode="&#xfe;" horiz-adv-x="1368" d="M33 -530l561 1951h258l-147 -514q139 72 292 72q188 0 295 -88q109 -90 109 -246q0 -63 -23 -149q-63 -223 -254 -373q-184 -145 -424 -146q-137 0 -243 66l-166 -573h-258zM547 352q0 -154 198 -153q41 0 80 8q53 12 90 29q61 29 89 49q43 33 73 77q33 47 51 107 q12 43 13 82q0 100 -70 151q-72 53 -172 54q-119 0 -205 -70t-131 -227q-16 -52 -16 -107z" />
<glyph unicode="&#xff;" horiz-adv-x="1206" d="M100 -530l400 532l-168 985h260l108 -758l521 758h258l-1084 -1517h-295zM569 1153l76 268h297l-76 -268h-297zM1069 1153l78 268h293l-78 -268h-293z" />
<glyph unicode="&#x100;" horiz-adv-x="1546" d="M129 0l971 1421h276l156 -1421h-260l-51 373h-582l-264 -373h-246zM793 602h405l-51 528zM809 1487l59 211h904l-62 -211h-901z" />
<glyph unicode="&#x101;" horiz-adv-x="1220" d="M188 209q0 33 9 57q23 76 71 127q47 51 119 86q59 29 164 53q80 18 190 29q84 8 213 8l11 33q10 37 10 60q0 49 -45 75.5t-162 26.5q-121 0 -297 -41l-41 -10l4 192l39 13q184 63 389 63q199 0 289 -59q88 -57 88 -168q0 -61 -20 -125l-181 -629h-184l-8 66 q-158 -86 -334 -86q-150 0 -238 65q-86 66 -86 164zM446 276q0 -31 50 -59q47 -27 133 -27q125 0 235 62l37 133h-22q-186 0 -310 -25q-106 -20 -123 -75v-9zM584 1122l59 211h686l-59 -211h-686z" />
<glyph unicode="&#x102;" horiz-adv-x="1546" d="M129 0l971 1421h276l156 -1421h-260l-51 373h-582l-264 -373h-246zM793 602h405l-51 528zM879 1794l241 102l10 -36q8 -29 15 -43q12 -27 29 -52q23 -33 59.5 -51t87.5 -18q78 0 168 51q98 55 170 119l35 30l155 -122l-34 -35q-115 -106 -279 -189q-152 -76 -297 -75 q-82 0 -149 24q-63 23 -108.5 68t-68.5 90q-25 49 -30 104z" />
<glyph unicode="&#x103;" horiz-adv-x="1218" d="M188 209q0 33 9 57q18 63 53 109q37 49 92 80q72 39 119 55q70 23 145 35q80 12 160 18t172 6l10 33q12 37 13 62q0 46 -43 73q-41 27 -156 27t-291 -41l-41 -10l4 192l39 13q182 63 381 63q117 0 184 -16q76 -18 119 -50q45 -33 64 -71q18 -40 18 -92q0 -55 -20 -123 l-181 -629h-184l-12 66q-166 -86 -334 -86q-145 0 -234 65q-86 66 -86 164zM446 274q0 -33 50 -57q53 -27 127 -27q119 0 229 62l39 133h-25q-182 0 -301 -25q-100 -20 -116 -75l-2 -4q-1 -5 -1 -7zM547 1350l223 112l8 -41q10 -37 15 -47q8 -23 30 -57t62 -55 q41 -23 92 -23q80 0 180 59q96 57 170 132l35 32l139 -135l-37 -39q-121 -117 -268 -192q-150 -76 -301 -76q-88 0 -156 24q-63 23 -106 70q-35 37 -60 94q-20 49 -24 107z" />
<glyph unicode="&#x104;" horiz-adv-x="1628" d="M129 0l1024 1421h252l209 -1421h-60q-74 -3 -141 -18q-74 -16 -113 -35q-45 -20 -83 -51q-51 -39 -64 -54q-29 -33 -41 -51l-25 -37q-4 -10 -8 -18q-2 -6 -2 -19q0 -45 62 -45q80 0 182 52l43 22l39 -160l-35 -20q-76 -45 -160 -76q-94 -35 -186 -35q-102 0 -170 51 q-63 49 -64 132q0 27 11 63q35 121 192 242q160 123 334 176l-39 254h-633l-278 -373h-246zM815 602h440l-67 528z" />
<glyph unicode="&#x105;" horiz-adv-x="1226" d="M188 209q0 106 103 203q101 95 289 129q137 23 381 26l6 23q10 31 10 59q0 49 -45 76t-164 27t-299 -41l-43 -11l4 195l39 10q184 63 393 64q381 0 381 -230q0 -55 -20 -123l-185 -645l-24 -12q-12 -6 -31.5 -13t-44.5 -17.5t-44.5 -19.5t-31.5 -15q-29 -12 -67 -31 q-43 -20 -64 -33q-33 -20 -49 -33q-23 -16 -39 -37q-14 -16 -20 -39q-2 -6 -2 -16q0 -23 16 -33q18 -12 47 -12q57 0 162 51l41 19l45 -152l-39 -20q-180 -100 -328 -101q-111 0 -174 49q-66 49 -65 127q0 92 98 194.5t299 188.5q-113 -33 -221 -32q-150 0 -232 63.5 t-82 161.5zM451 289q0 -37 45 -64q47 -27 125 -26q119 0 249 59l48 166h-33h-45q-352 0 -387 -121q-2 -4 -2 -14z" />
<glyph unicode="&#x106;" horiz-adv-x="1613" d="M444 492q0 106 33 217q43 150 137 286q88 127 224 230q123 94 299 151q170 55 358 56q225 0 403 -80l31 -15l-139 -217l-35 15q-172 63 -332 63q-127 0 -241 -39q-113 -39 -205 -108q-90 -70 -154 -156q-65 -89 -92 -184q-18 -68 -18 -127q0 -162 123 -265 q125 -102 348 -102q160 0 344 59l41 13l24 -201l-43 -14q-248 -94 -483 -94q-303 0 -463 141.5t-160 370.5zM1028 1638l741 355l68 -197l-745 -336z" />
<glyph unicode="&#x107;" horiz-adv-x="1146" d="M233 297q0 76 25 164q37 123 90 205q61 92 127 147q72 59 156 98q78 37 172 54q92 16 178 16q166 0 289 -61l28 -17l-118 -192l-33 14q-86 33 -205 33q-356 0 -432 -266q-16 -59 -16 -97q0 -199 311 -198q92 0 186 30l41 13l12 -189l-40 -12q-166 -59 -332 -59 q-68 0 -135 10q-59 8 -119 30q-53 20 -96 59.5t-66 90.5t-23 127zM639 1171l608 396l92 -181l-606 -385z" />
<glyph unicode="&#x108;" horiz-adv-x="1613" d="M444 492q0 106 33 217q43 150 137 286q88 127 224 230q123 94 299 151q170 55 358 56q225 0 403 -80l31 -15l-139 -217l-35 15q-172 63 -332 63q-127 0 -241 -39q-113 -39 -205 -108q-90 -70 -154 -156q-65 -89 -92 -184q-18 -68 -18 -127q0 -162 123 -265 q125 -102 348 -102q160 0 344 59l41 13l24 -201l-43 -14q-248 -94 -483 -94q-303 0 -463 141.5t-160 370.5zM1057 1593l481 359l250 -348l-211 -146l-139 195l-252 -193z" />
<glyph unicode="&#x109;" horiz-adv-x="1146" d="M233 297q0 76 25 164q37 123 90 205q61 92 127 147q72 59 156 98q78 37 172 54q92 16 178 16q166 0 289 -61l28 -17l-118 -192l-33 14q-86 33 -205 33q-356 0 -432 -266q-16 -59 -16 -97q0 -199 311 -198q92 0 186 30l41 13l12 -189l-40 -12q-166 -59 -332 -59 q-68 0 -135 10q-59 8 -119 30q-53 20 -96 59.5t-66 90.5t-23 127zM592 1143l495 375l228 -367l-193 -152l-141 205l-272 -200z" />
<glyph unicode="&#x10a;" horiz-adv-x="1613" d="M444 492q0 106 33 217q43 150 137 286q88 127 224 230q123 94 299 151q170 55 358 56q225 0 403 -80l31 -15l-139 -217l-35 15q-172 63 -332 63q-127 0 -241 -39q-113 -39 -205 -108q-90 -70 -154 -156q-65 -89 -92 -184q-18 -68 -18 -127q0 -162 123 -265 q125 -102 348 -102q160 0 344 59l41 13l24 -201l-43 -14q-248 -94 -483 -94q-303 0 -463 141.5t-160 370.5zM1223 1536l82 293h325l-84 -293h-323z" />
<glyph unicode="&#x10b;" horiz-adv-x="1155" d="M233 299q0 74 25 162q35 117 92 205q61 92 127 147q70 57 158 98q78 37 172 54q92 16 178 16q170 0 293 -61l29 -17l-117 -192l-37 14q-90 33 -205 33q-362 0 -438 -266q-16 -55 -16 -97q0 -199 315 -198q95 0 190 30l43 13l11 -189l-39 -12q-168 -59 -338 -59 q-68 0 -135 10q-53 8 -121 33q-59 23 -98 57q-41 39 -66 92q-23 51 -23 127zM821 1130l84 291h344l-84 -291h-344z" />
<glyph unicode="&#x10c;" horiz-adv-x="1613" d="M444 492q0 106 33 217q43 150 137 286q88 127 224 230q123 94 299 151q170 55 358 56q225 0 403 -80l31 -15l-139 -217l-35 15q-172 63 -332 63q-127 0 -241 -39q-113 -39 -205 -108q-90 -70 -154 -156q-65 -89 -92 -184q-18 -68 -18 -127q0 -162 123 -265 q125 -102 348 -102q160 0 344 59l41 13l24 -201l-43 -14q-248 -94 -483 -94q-303 0 -463 141.5t-160 370.5zM1147 1804l211 146l139 -195l252 193l125 -133l-479 -359z" />
<glyph unicode="&#x10d;" horiz-adv-x="1146" d="M233 297q0 76 25 164q37 123 90 205q61 92 127 147q72 59 156 98q78 37 172 54q92 16 178 16q166 0 289 -61l28 -17l-118 -192l-33 14q-86 33 -205 33q-356 0 -432 -266q-16 -59 -16 -97q0 -199 311 -198q92 0 186 30l41 13l12 -189l-40 -12q-166 -59 -332 -59 q-68 0 -135 10q-59 8 -119 30q-53 20 -96 59.5t-66 90.5t-23 127zM657 1364l205 152l150 -203l262 200l106 -137l-475 -377z" />
<glyph unicode="&#x10e;" horiz-adv-x="1761" d="M291 0l405 1421h504q147 0 260 -24q117 -25 186.5 -66t118.5 -102q51 -63 68 -123q18 -65 18 -141q0 -100 -32 -213q-23 -82 -66 -177q-39 -84 -104 -174q-70 -96 -142 -159q-80 -70 -192.5 -127.5t-243.5 -83.5q-150 -31 -414 -31h-366zM608 231h185q84 0 114 2 q53 4 121 15q78 12 133 33q57 20 127 65q63 41 123 107q98 111 143 266q23 84 23 145q0 74 -24.5 131.5t-69.5 96.5q-47 39 -94 59q-52 22 -111 31q-66 8 -135 8h-260zM1098 1806l192 146l119 -195l233 191l111 -129l-444 -361z" />
<glyph unicode="&#x10f;" horiz-adv-x="1708" d="M233 299q0 72 27 168q70 246 258 381q186 135 434 135q111 0 219 -35l160 563h248l-434 -1511h-182l-7 45q-162 -66 -323 -65q-82 0 -150 18q-76 20 -127 53q-57 37 -90 99q-33 63 -33 149zM494 393q0 -58 24 -98q23 -37 66 -59q39 -20 84 -31q39 -8 90 -8q92 0 207 34 l147 512q-98 29 -190 29q-45 0 -88 -6q-41 -6 -95 -25q-51 -18 -94 -49q-45 -33 -80 -82q-37 -51 -55 -121q-16 -59 -16 -96zM1450 1016l354 495h301l-356 -495h-299z" />
<glyph unicode="&#x110;" horiz-adv-x="1767" d="M295 616l65 234h218l163 571h478q14 0 37.5 -1t35.5 -1q39 0 90 -6q66 -8 99 -14q55 -10 102 -27q61 -20 98 -39q41 -20 88 -57q37 -29 70 -80q29 -45 47 -102q18 -58 19 -129q0 -102 -33 -213q-215 -752 -1124 -752h-412l176 616h-217zM653 231h166q49 0 119 5 q59 4 125 14q90 14 133 29q47 14 125 57q59 33 119 88q49 45 96 125q43 72 72 170q20 70 20 141q0 66 -22 123q-20 51 -72 102q-47 49 -143 76q-98 29 -226 29h-237l-99 -340h263l-68 -234h-260z" />
<glyph unicode="&#x111;" horiz-adv-x="1384" d="M236 305q0 72 24 162q72 246 260 381q190 135 436 135q111 0 215 -35l37 129h-301l62 211h301l63 223h246l-63 -223h131l-62 -211h-131l-309 -1077h-182l-7 45q-162 -66 -317 -65q-57 0 -119 10q-57 10 -110.5 34.5t-90.5 61.5q-41 41 -61 94q-22 57 -22 125zM506 391 q0 -41 16 -80q12 -31 43 -57q29 -25 60 -35q25 -8 69 -16q35 -6 70 -6q92 0 203 34l145 512q-98 29 -186 29q-41 0 -84 -6q-47 -6 -94 -25q-49 -18 -93 -49q-41 -29 -77 -82q-39 -55 -58 -121q-14 -51 -14 -98z" />
<glyph unicode="&#x112;" horiz-adv-x="1445" d="M291 0l405 1421h998l-66 -231h-743l-99 -342h689l-66 -232h-688l-111 -385h744l-68 -231h-995zM786 1487l62 211h897l-62 -211h-897z" />
<glyph unicode="&#x113;" horiz-adv-x="1239" d="M231 297q0 72 25 156q35 127 113 237q74 102 170 166q100 66 202 94q106 31 220 31q328 0 327 -262q0 -80 -45 -244l-31 -110h-737q2 -70 84 -121t244 -51q111 0 237 34l43 11l-6 -189l-39 -12q-174 -57 -366 -57q-123 0 -211 24q-86 25 -137 72q-49 47 -70 98 q-23 57 -23 123zM537 571h499q6 31 6 56q0 70 -47 100q-45 31 -139 31q-111 0 -199 -53q-85 -54 -120 -134zM575 1102l66 231h737l-65 -231h-738z" />
<glyph unicode="&#x114;" horiz-adv-x="1445" d="M291 0l405 1421h998l-66 -231h-743l-99 -342h689l-66 -232h-688l-111 -385h744l-68 -231h-995zM836 1794l225 102l6 -36q23 -80 76 -121q55 -43 133 -43q164 0 352 170l33 30l145 -122l-34 -35q-139 -133 -287 -197q-154 -66 -293 -65q-160 0 -250 75.5t-102 208.5z" />
<glyph unicode="&#x115;" horiz-adv-x="1236" d="M231 295q0 74 25 158q35 127 113 237q74 102 170 166q100 66 200 94q104 31 215 31q334 0 334 -264q0 -80 -45 -242l-31 -110h-737q0 -70 82 -121t240 -51q117 0 243 34l43 11l-6 -189l-39 -12q-174 -57 -374 -57q-121 0 -207 24q-88 25 -135 72q-46 46 -68 98 q-23 55 -23 121zM537 571h489q6 31 6 56q0 131 -180 131q-113 0 -197 -53q-85 -54 -118 -134zM602 1350l227 112l9 -41q2 -8 10 -35q6 -20 20 -45q20 -37 33 -49q22 -22 55 -37q37 -16 74 -16q82 0 178 59q94 57 168 132l33 32l139 -135l-37 -39q-113 -113 -266 -192 q-145 -76 -295 -76q-84 0 -151 24q-63 23 -107 70q-39 41 -61 94q-25 53 -27 107z" />
<glyph unicode="&#x116;" horiz-adv-x="1445" d="M291 0l405 1421h998l-66 -231h-743l-99 -342h689l-66 -232h-688l-111 -385h744l-68 -231h-995zM1044 1536l82 293h349l-82 -293h-349z" />
<glyph unicode="&#x117;" horiz-adv-x="1247" d="M231 297q0 72 25 156q37 133 113 237q77 104 172 166q98 63 204 94q108 31 222 31q330 0 329 -262q0 -82 -45 -244l-30 -110h-746q2 -70 86 -121t248 -51q111 0 240 34l43 11l-7 -189l-38 -12q-178 -57 -371 -57q-123 0 -213 24q-86 25 -137 72q-51 49 -72 100 q-23 58 -23 121zM537 571h507q6 31 7 56q0 131 -189 131q-117 0 -205 -53q-85 -54 -120 -134zM831 1130l84 291h349l-84 -291h-349z" />
<glyph unicode="&#x118;" horiz-adv-x="1445" d="M291 0l405 1421h998l-66 -231h-743l-99 -342h689l-66 -232h-688l-111 -385h744l-54 -184l-20 -10l-98 -57l-95 -54q-2 -2 -73 -47q-51 -33 -68 -47l-43 -45q-20 -23 -26 -49q-4 -16 -5 -21q0 -45 64 -45q59 0 160 54l43 22l41 -160l-35 -20q-182 -111 -330 -111 q-106 0 -167.5 49.5t-61.5 131.5q0 86 69 180q72 96 209 182h-573z" />
<glyph unicode="&#x119;" horiz-adv-x="1245" d="M225 279q0 68 25 153q37 129 92 211q63 94 131 154q68 57 158 100q82 39 168 57q82 18 164 19q98 0 161 -21q66 -20 101 -59q37 -39 51 -82q14 -41 14 -102q0 -94 -45 -248l-31 -113h-745q0 -72 92 -123q90 -49 244 -49q117 0 237 35l43 12l-6 -190l-39 -13 q-145 -43 -262 -135q-119 -94 -137 -159q-2 -8 -2 -23q0 -45 59.5 -45t167.5 49l39 21l43 -150l-37 -20q-180 -102 -331 -103q-102 0 -166 47q-59 45 -59.5 125t59.5 166q63 90 180 178q-369 35 -369 308zM530 555h506q8 41 8 57q0 135 -186 136q-119 0 -205 -55.5 t-123 -137.5z" />
<glyph unicode="&#x11a;" horiz-adv-x="1445" d="M291 0l405 1421h998l-66 -231h-743l-99 -342h689l-66 -232h-688l-111 -385h744l-68 -231h-995zM940 1804l199 146l153 -195l269 193l116 -133l-487 -359z" />
<glyph unicode="&#x11b;" horiz-adv-x="1239" d="M231 297q0 72 25 156q35 127 113 237q74 102 170 166q100 66 202 94q106 31 220 31q328 0 327 -262q0 -80 -45 -244l-31 -110h-737q2 -70 84 -121t244 -51q111 0 237 34l43 11l-6 -189l-39 -12q-174 -57 -366 -57q-123 0 -211 24q-86 25 -137 72q-49 47 -70 98 q-23 57 -23 123zM537 571h499q6 31 6 56q0 70 -47 100q-45 31 -139 31q-111 0 -199 -53q-85 -54 -120 -134zM715 1364l211 152l143 -203l258 200l109 -137l-473 -377z" />
<glyph unicode="&#x11c;" horiz-adv-x="1753" d="M387 496q0 102 31 213q37 133 129 270q86 129 211 229q127 102 299 164q166 59 364 60q283 0 471 -125l31 -21l-162 -199l-30 21q-57 35 -160 63.5t-207 28.5q-141 0 -282.5 -55t-254.5 -168q-111 -111 -153 -258q-20 -63 -21 -135q0 -166 127 -268.5t338 -102.5 q182 0 326 84l78 272h-447l66 222h692l-170 -584q-274 -227 -655 -227q-129 0 -238 28q-106 29 -176 74q-72 47 -119 113q-45 61 -67 141q-21 70 -21 160zM1042 1593l480 359l243 -348l-211 -146l-133 195l-252 -193z" />
<glyph unicode="&#x11d;" horiz-adv-x="1325" d="M57 -459l131 195l33 -15q106 -43 232 -43q74 0 131 15q59 14 100 37q43 23 78 55q37 34 55.5 61.5t36.5 67.5q23 47 25 55l14 45q2 4 2 11q-135 -45 -262 -45q-80 0 -152 18q-63 16 -124.5 57t-90.5 103q-31 63 -30 149q0 80 26 172q31 109 92 199q63 92 131 145 q71 55 154 92q88 39 156 54q70 14 143 14q131 0 266 -63l31 43h184l-284 -992q-22 -74 -56 -141q-33 -66 -92 -137q-59 -74 -135 -121q-84 -53 -188 -82q-115 -31 -248 -31q-190 0 -328 68zM496 401q0 -94 63.5 -149t188.5 -55q92 0 206 34l144 500q-115 37 -209 37 q-135 0 -240 -74q-102 -72 -139 -198q-14 -50 -14 -95zM635 1143l485 375l240 -367l-209 -152l-137 203l-258 -198z" />
<glyph unicode="&#x11e;" horiz-adv-x="1753" d="M385 487q0 98 31 209q33 119 92 219q59 102 154 199q92 95 202 166q111 70 256 111q147 41 301 41q283 0 471 -125l31 -21l-162 -199l-30 21q-57 35 -160 63.5t-207 28.5q-141 0 -282.5 -55t-254.5 -168q-111 -111 -153 -258q-20 -63 -21 -135q0 -166 127 -268.5 t338 -102.5q182 0 326 84l78 272h-447l66 222h692l-170 -584q-274 -227 -655 -227q-156 0 -283 40q-123 41 -195 109q-70 66 -108 162q-37 88 -37 196zM1016 1794l239 102l11 -36q2 -14 10 -33q8 -23 20 -41q20 -33 33 -45q16 -16 53 -33q27 -12 74 -12q80 0 170 51 q92 53 168 119l35 30l151 -122l-34 -35q-115 -109 -270.5 -186.5t-299.5 -77.5q-82 0 -149.5 24.5t-110.5 67.5q-45 45 -67 90q-23 43 -29 104z" />
<glyph unicode="&#x11f;" horiz-adv-x="1323" d="M57 -459l131 195l33 -15q106 -43 232 -43q74 0 131 15q59 14 100 37q43 23 78 55q37 34 55.5 61.5t36.5 67.5q23 47 25 55l14 45q2 4 2 11q-135 -45 -262 -45q-80 0 -152 18q-63 16 -124.5 57t-90.5 103q-31 63 -30 149q0 80 26 172q31 109 92 199q63 92 131 145 q71 55 154 92q88 39 156 54q70 14 143 14q131 0 266 -63l31 43h184l-280 -979q-31 -113 -95 -211q-59 -94 -129 -152q-72 -59 -157 -96q-82 -35 -170 -51q-78 -14 -172 -15q-190 0 -328 68zM496 401q0 -94 63.5 -149t188.5 -55q92 0 206 34l144 500q-115 37 -209 37 q-135 0 -240 -74q-102 -72 -139 -198q-14 -50 -14 -95zM616 1350l234 112l6 -41q10 -37 14 -47q8 -23 31 -57.5t60 -54.5q41 -23 88 -23q82 0 176 57q92 57 172 134l35 32l139 -135l-37 -39q-121 -117 -268 -192q-150 -76 -297 -76q-86 0 -154 24q-66 25 -108 70 q-41 43 -62 94q-25 57 -27 107z" />
<glyph unicode="&#x120;" horiz-adv-x="1753" d="M387 496q0 102 31 213q37 133 129 270q86 129 211 229q127 102 299 164q166 59 364 60q283 0 471 -125l31 -21l-162 -199l-30 21q-57 35 -160 63.5t-207 28.5q-141 0 -282.5 -55t-254.5 -168q-111 -111 -153 -258q-20 -63 -21 -135q0 -166 127 -268.5t338 -102.5 q182 0 326 84l78 272h-447l66 222h692l-170 -584q-274 -227 -655 -227q-129 0 -238 28q-106 29 -176 74q-72 47 -119 113q-45 61 -67 141q-21 70 -21 160zM1272 1536l84 293h319l-82 -293h-321z" />
<glyph unicode="&#x121;" horiz-adv-x="1333" d="M57 -459l131 195l33 -15q102 -43 236 -43q76 0 133 14.5t102 37.5q35 16 76 55q43 39 57 61q23 33 37 66q20 43 25 57q2 6 5 20.5t7 24.5q4 8 4 11q-137 -45 -264 -45q-83 0 -154 18q-61 16 -127 57q-55 35 -90 103q-33 63 -32 151q0 70 26 170q31 109 92 199 q63 92 131 145.5t156 91.5q86 39 158 54q70 14 145 14q129 0 268 -63l31 43h184l-284 -992q-22 -74 -56 -141q-33 -66 -92 -137q-59 -74 -135 -121q-82 -53 -190 -82q-113 -31 -250 -31q-190 0 -330 68zM496 401q0 -94 63.5 -149t194.5 -55q92 0 209 34l143 500 q-117 37 -211 37q-141 0 -246 -74q-102 -72 -139 -198q-14 -50 -14 -95zM817 1130l82 291h338l-82 -291h-338z" />
<glyph unicode="&#x122;" horiz-adv-x="1753" d="M387 496q0 102 31 213q29 109 94 219q61 104 153.5 196.5t203 160t255.5 108.5q137 39 297 39q283 0 471 -125l31 -21l-162 -199l-30 21q-57 35 -160 63.5t-207 28.5q-141 0 -282.5 -55t-254.5 -168q-111 -111 -153 -258q-20 -63 -21 -135q0 -166 127 -268.5t338 -102.5 q182 0 326 84l78 272h-447l66 222h692l-170 -584q-274 -227 -655 -227q-129 0 -238 28q-106 29 -176 74q-72 47 -119 113q-45 61 -67 141q-21 70 -21 160zM582 -530l344 471h297l-346 -471h-295z" />
<glyph unicode="&#x123;" horiz-adv-x="1337" d="M57 -461l131 195l33 -15q102 -43 238 -43q74 0 131 14.5t102 37.5q39 18 78 55q31 29 55 59q20 27 39 66q20 43 25 57q6 18 14 47q2 4 2 11q-139 -43 -266 -43q-82 0 -152 18q-68 18 -127 55q-57 37 -92 103q-33 63 -32 151q0 70 26 170q31 109 92 199q63 92 131 145 t156 92t158 54q72 14 145 14q131 0 270 -63l31 45h187l-285 -994q-22 -74 -55 -141q-35 -68 -95 -137q-68 -78 -135 -121q-80 -51 -192.5 -82t-249.5 -31q-195 0 -332 68zM494 401q0 -94 65 -149q68 -57 197 -57q92 0 209 34l143 500q-117 37 -211 37q-139 0 -248 -74 q-104 -72 -141 -198q-14 -46 -14 -93zM733 1053l363 493h311l-365 -493h-309z" />
<glyph unicode="&#x124;" horiz-adv-x="1763" d="M291 0l405 1421h252l-164 -571h760l164 571h254l-408 -1421h-251l176 616h-760l-176 -616h-252zM1022 1599l483 357l250 -348l-211 -146l-139 195l-254 -191z" />
<glyph unicode="&#x125;" horiz-adv-x="1341" d="M184 0l430 1499h246l-168 -588q205 70 361 70q297 0 297 -240q0 -76 -35 -192l-158 -549h-250l160 559q14 51 14 74q0 121 -172 121q-117 0 -276 -54l-203 -700h-246zM811 1640l479 365l246 -356l-203 -148l-145 199l-266 -197z" />
<glyph unicode="&#x126;" horiz-adv-x="1763" d="M291 0l307 1071h-152l62 209h149l39 141h252l-43 -149h760l43 149h254l-41 -141h150l-60 -209h-149l-308 -1071h-251l176 616h-760l-176 -616h-252zM784 850h760l72 242h-762z" />
<glyph unicode="&#x127;" horiz-adv-x="1337" d="M184 0l310 1077h-132l62 211h131l63 223h246l-63 -223h370l-61 -211h-371l-47 -166q203 70 352 70q305 0 306 -238q0 -78 -27 -172l-166 -571h-260l164 563q12 43 12 74q0 117 -170 117q-115 0 -270 -54l-203 -700h-246z" />
<glyph unicode="&#x128;" horiz-adv-x="811" d="M330 0l405 1421h252l-405 -1421h-252zM526 1542q8 16 27 49l29 51l9 17.5l17 32.5q16 29 33 47q31 37 35 41q27 27 41 35l19.5 13t23.5 13q25 12 53 19q27 6 61 6q39 0 66 -12.5t43 -34.5q20 -29 29 -45q12 -27 18 -45q8 -25 14 -35q9 -12 19 -13q6 0 16 13q4 6 43 75 l60 105l168 -51q-6 -9 -31 -56l-14.5 -25t-8.5 -16.5t-4 -9.5t-6 -10l-35 -57q-18 -31 -43 -60q-10 -12 -42.5 -45t-53.5 -43q-31 -14 -57 -22q-37 -10 -66 -11q-45 0 -74 21q-31 23 -45 47q-10 18 -26 55l-11.5 27.5t-9.5 21.5q-8 20 -22 21q-8 0 -20.5 -18.5t-57.5 -102.5 q-8 -16 -16.5 -28.5l-12.5 -18.5z" />
<glyph unicode="&#x129;" horiz-adv-x="600" d="M178 0l285 987h246l-283 -987h-248zM285 1194q2 6 10 20.5l20 36.5q29 53 31 58q4 8 33 53q18 29 37 51l41 41q23 23 51 37q25 12 55.5 20.5t67.5 8.5q41 0 76 -21q33 -20 47 -45q20 -37 26 -55q8 -25 18.5 -45.5t20.5 -20.5q6 0 17 15q2 4 51 90l51 90l166 -51 q-8 -14 -27 -50q-8 -18 -16 -32.5t-12 -22.5q-6 -14 -31 -51q-31 -49 -35 -53q-6 -8 -16.5 -19.5t-20.5 -25.5q-22 -28 -43 -43l-45 -29q-27 -16 -53 -23q-37 -8 -60 -8q-52 0 -86 31q-37 33 -47 66q-4 14 -15 38.5t-11 26.5q-12 31 -27 31q-10 0 -18 -15l-49 -86l-37 -65z " />
<glyph unicode="&#x12a;" horiz-adv-x="811" d="M319 0l408 1421h252l-408 -1421h-252zM627 1487l59 211h494l-62 -211h-491z" />
<glyph unicode="&#x12b;" horiz-adv-x="598" d="M176 0l283 987h246l-283 -987h-246zM399 1122l62 211h440l-59 -211h-443z" />
<glyph unicode="&#x12c;" horiz-adv-x="892" d="M328 0l407 1421h252l-407 -1421h-252zM600 1792l221 102l8 -39l1 -9q1 -9 1 -19q0 -20 5 -45q0 -4 16 -41q10 -23 35 -35q29 -14 59 -14q10 0 35 4q8 2 35 10q8 4 16 7t15 5q14 8 30 21l31 20l12 11.5t17 15.5q20 18 26 24q2 2 9.5 8.5t19.5 18.5l12 12t9.5 10.5t5.5 4.5 l32 30l146 -122l-35 -35q-133 -127 -248 -195q-119 -70 -246 -69q-66 0 -106 16q-55 23 -76 43q-27 27 -45 67q-16 37 -27 76q-10 37 -12 82z" />
<glyph unicode="&#x12d;" horiz-adv-x="673" d="M182 0l285 987h246l-285 -987h-246zM367 1432l217 102l8 -39l1 -9q1 -9 1 -20q0 -20 4 -45q0 -4 16 -41q10 -27 33 -37q25 -12 62 -12q10 0 30.5 4t28.5 6t29 15l28 14q4 2 29 19q16 14 25 20q6 4 26 25l25 22l24 25q10 10 18 16l7 6l33 31l139 -123l-37 -35 q-131 -127 -242 -194q-115 -70 -241 -70q-63 0 -105 16q-47 18 -73.5 45t-44.5 66q-23 47 -27 76q-8 47 -10 84z" />
<glyph unicode="&#x12e;" horiz-adv-x="811" d="M-66 -377q0 119 106.5 250t307.5 223l379 1325h252l-393 -1376l-25 -10q-108 -49 -184 -98q-74 -47 -115 -89q-39 -39 -57 -63q-14 -20 -23 -47q-4 -20 -4 -25q0 -43 51.5 -43t155.5 54l43 22l41 -160l-35 -20q-180 -111 -315 -111q-86 0 -137 47q-48 45 -48 121z" />
<glyph unicode="&#x12f;" horiz-adv-x="602" d="M-221 -385q0 45 10 82q33 115 156 235q119 117 268 187l250 868h246l-275 -952l-31 -10q-139 -45 -247 -136q-108 -89 -129 -159q0 -4 -1 -10.5t-2 -9.5t-1 -5q0 -45 49 -45q51 0 157 53l41 21l39 -156l-33 -20q-184 -113 -317 -113q-82 0 -133 47q-47 45 -47 123z M494 1151l77 270h277l-80 -270h-274z" />
<glyph unicode="&#x130;" horiz-adv-x="811" d="M319 0l408 1421h252l-408 -1421h-252zM739 1536l82 293h293l-84 -293h-291z" />
<glyph unicode="&#x131;" horiz-adv-x="604" d="M180 0l277 963h245l-276 -963h-246z" />
<glyph unicode="&#x132;" horiz-adv-x="1927" d="M319 0l408 1421h252l-408 -1421h-252zM928 18l104 222l39 -11q55 -14 129 -14q65 0 123 12q55 12 96 31q37 16 74 47q23 18 53 53q23 27 37 58q20 43 23 53q2 6 8 20.5t8 22.5l258 909h254l-260 -909q-12 -43 -35 -100q-25 -63 -47 -103q-35 -61 -68 -100 q-43 -49 -92 -88q-63 -49 -121 -74q-68 -29 -155 -47q-80 -16 -195 -16q-106 0 -198 24z" />
<glyph unicode="&#x133;" horiz-adv-x="1202" d="M176 0l283 987h246l-283 -987h-246zM449 -350l53 18q109 37 164 92q49 49 71 123l316 1104h245l-311 -1083q-4 -12 -9 -31.5t-7 -24.5q-6 -22 -25 -61q-20 -47 -37 -70q-29 -43 -51 -69q-27 -31 -74 -68q-37 -27 -96 -59q-61 -33 -127 -53l-45 -13zM492 1151l75 270h281 l-78 -270h-278zM1085 1151l78 270h279l-76 -270h-281z" />
<glyph unicode="&#x134;" horiz-adv-x="1116" d="M115 18l106 222l39 -11q55 -14 127 -14q68 0 125 12q55 12 96 31q33 14 72 47q23 18 53 53q23 27 37 58q4 8 10 19t9.5 19.5t5.5 14.5l7 20.5t7 22.5l260 909h252l-260 -909q-16 -59 -33 -100q-20 -49 -49 -103q-35 -61 -68 -100q-43 -49 -92 -88q-63 -49 -121 -74 q-68 -29 -155 -47q-80 -16 -195 -16q-106 0 -198 24zM907 1593l445 359l213 -348l-195 -146l-119 195l-231 -193z" />
<glyph unicode="&#x135;" horiz-adv-x="595" d="M-82 -350l43 18q156 66 199 219l313 1100h248l-311 -1083q-10 -37 -19 -60q-20 -55 -24 -63q-23 -49 -37 -70q-29 -41 -54 -67q-37 -41 -69 -68q-31 -27 -94 -57q-74 -37 -117 -51l-39 -13zM346 1151l410 362l174 -354l-191 -145l-90 180l-196 -176z" />
<glyph unicode="&#x136;" horiz-adv-x="1579" d="M291 0l405 1421h252l-184 -651l833 651h324l-879 -680l506 -741h-325l-484 688l-196 -688h-252zM324 -512l344 471h305l-355 -471h-294z" />
<glyph unicode="&#x137;" horiz-adv-x="1234" d="M160 -512l342 471h305l-352 -471h-295zM176 0l432 1511h246l-262 -919l592 416h297l-639 -453l364 -555h-303l-340 492l-141 -492h-246z" />
<glyph unicode="&#x138;" horiz-adv-x="1222" d="M176 0l277 963h245l-120 -420l565 420h278l-598 -451l375 -512h-309l-340 444l-127 -444h-246z" />
<glyph unicode="&#x139;" horiz-adv-x="1296" d="M303 0l408 1421h252l-334 -1190h712l-65 -231h-973zM754 1638l737 355l74 -197l-760 -336z" />
<glyph unicode="&#x13a;" horiz-adv-x="714" d="M209 0l432 1511h270l-456 -1511h-246zM647 1714l748 352l53 -194l-752 -336z" />
<glyph unicode="&#x13b;" horiz-adv-x="1296" d="M141 -512l328 471h309l-364 -471h-273zM309 0l408 1421h252l-336 -1190h715l-66 -231h-973z" />
<glyph unicode="&#x13c;" horiz-adv-x="645" d="M-78 -512l328 471h268l-328 -471h-268zM219 0l434 1511h246l-432 -1511h-248z" />
<glyph unicode="&#x13d;" horiz-adv-x="1296" d="M291 0l405 1421h252l-340 -1190h719l-65 -231h-971zM1010 948l325 473h271l-328 -473h-268z" />
<glyph unicode="&#x13e;" horiz-adv-x="884" d="M195 0l434 1511h245l-434 -1511h-245zM752 1038l276 473h252l-279 -473h-249z" />
<glyph unicode="&#x13f;" horiz-adv-x="1296" d="M291 0l405 1421h252l-340 -1190h719l-65 -231h-971zM872 571l84 293h344l-83 -293h-345z" />
<glyph unicode="&#x140;" horiz-adv-x="901" d="M195 0l434 1511h245l-434 -1511h-245zM694 588l84 291h293l-84 -291h-293z" />
<glyph unicode="&#x141;" horiz-adv-x="1296" d="M266 418l72 252l166 78l192 673h252l-149 -524l356 150l-76 -267l-329 -139l-119 -410h696l-65 -231h-971l141 496z" />
<glyph unicode="&#x142;" horiz-adv-x="759" d="M217 453l70 243l159 76l211 739h246l-180 -632l242 122l-70 -245l-240 -111l-186 -645h-246l154 532z" />
<glyph unicode="&#x143;" horiz-adv-x="1822" d="M291 0l405 1421h279l479 -1091l313 1091h252l-405 -1421h-283l-475 1094l-313 -1094h-252zM1044 1638l742 355l67 -197l-745 -336z" />
<glyph unicode="&#x144;" d="M176 0l277 963h182l8 -68q225 88 408 88q289 0 288 -227q0 -68 -32 -187l-162 -569h-248l162 561q12 49 12 78q0 115 -172 115q-113 0 -276 -54l-201 -700h-246zM674 1194l747 369l54 -207l-752 -348z" />
<glyph unicode="&#x145;" horiz-adv-x="1822" d="M291 0l405 1421h279l479 -1091l313 1091h252l-405 -1421h-283l-475 1094l-313 -1094h-252zM438 -512l348 471h301l-350 -471h-299z" />
<glyph unicode="&#x146;" horiz-adv-x="1337" d="M170 -512l342 463h324l-363 -463h-303zM172 -10l281 973h182l8 -68q227 88 414 88q293 0 293 -231q0 -68 -33 -187l-166 -575h-246l162 569q14 57 14 78q0 117 -176 117q-123 0 -282 -56l-203 -708h-248z" />
<glyph unicode="&#x147;" horiz-adv-x="1822" d="M291 0l405 1421h279l479 -1091l313 1091h252l-405 -1421h-283l-475 1094l-313 -1094h-252zM1159 1806l213 144l137 -195l252 193l129 -133l-481 -359z" />
<glyph unicode="&#x148;" d="M176 0l277 963h182l8 -68q225 88 408 88q289 0 288 -227q0 -68 -32 -187l-162 -569h-248l162 561q12 49 12 78q0 115 -172 115q-113 0 -276 -54l-201 -700h-246zM715 1368l205 152l145 -201l264 199l111 -144l-482 -370z" />
<glyph unicode="&#x149;" horiz-adv-x="1495" d="M319 881l156 540h232l-154 -540h-234zM346 0l277 963h182l10 -68q225 88 406 88q289 0 288 -227q0 -76 -30 -187l-164 -569h-248l162 561q12 45 12 76q0 117 -172 117q-113 0 -276 -54l-201 -700h-246z" />
<glyph unicode="&#x14a;" horiz-adv-x="1810" d="M291 0l405 1421h178l23 -80q397 141 610 142q197 0 299.5 -90t102.5 -242q0 -41 -6 -80q-8 -59 -37 -156l-262 -909q-25 -86 -64 -147q-35 -57 -88 -107q-43 -39 -102 -69q-43 -20 -113 -37q-45 -10 -113 -11q-119 0 -250 35l-38 11l102 200l41 -8q98 -18 158 -18 q47 0 86 12q37 12 59 31q18 14 39 47q14 20 22 43l15 41l233 817q31 114 31 178q0 209 -262 209q-168 0 -490 -115l-319 -1118h-260z" />
<glyph unicode="&#x14b;" d="M174 -2l279 965h182l14 -66q219 84 400 84q94 0 143 -18q61 -23 90 -58q33 -39 43 -74q12 -40 12 -86q0 -72 -26 -165l-162 -562q-14 -49 -41 -112q-20 -49 -57 -98.5t-82 -81.5q-43 -31 -109 -54q-55 -18 -139 -18q-106 0 -262 37l-41 10l104 199l41 -9q125 -18 162 -18 q76 0 119 39q37 35 59 108l156 541q12 49 12 78q0 115 -168 115q-115 0 -270 -54l-201 -702h-258z" />
<glyph unicode="&#x14c;" horiz-adv-x="1849" d="M383 477q0 102 35 230q66 223 207 385q147 170 338 256q195 88 415 88q267 0 424 -129q156 -129 156 -361q0 -100 -35 -221q-61 -217 -205 -385q-147 -172 -342 -262q-201 -92 -422 -92q-121 0 -225 30q-106 31 -180 90q-82 66 -123 156q-43 95 -43 215zM655 563 q0 -162 105 -254q106 -94 274 -94q80 0 183 31q92 28 178 86q92 63 157 153q74 102 109 224q25 86 25 159q0 82 -33 152q-33 68 -86 106q-51 37 -123 60q-57 18 -146 18q-82 0 -178 -28q-90 -27 -178 -84q-90 -57 -158 -150q-68 -90 -102 -215q-27 -92 -27 -164zM965 1487 l59 211h897l-61 -211h-895z" />
<glyph unicode="&#x14d;" horiz-adv-x="1357" d="M238 315q0 74 24 156q68 233 256 373q186 137 447 137q200 0 313 -86q115 -86 115 -246q0 -61 -25 -149q-70 -244 -260 -381q-195 -139 -451 -139q-201 0 -309 88q-110 87 -110 247zM500 414q0 -96 63.5 -153.5t179.5 -57.5q125 0 233.5 73.5t141.5 194.5q14 49 15 84 q0 96 -74 152q-72 53 -174 53q-119 0 -227.5 -69.5t-145.5 -194.5q-12 -43 -12 -82zM553 1063l59 211h889l-61 -211h-887z" />
<glyph unicode="&#x14e;" horiz-adv-x="1849" d="M383 477q0 102 35 230q66 223 207 385q147 170 338 256q195 88 415 88q267 0 424 -129q156 -129 156 -361q0 -100 -35 -221q-61 -217 -205 -385q-147 -172 -342 -262q-201 -92 -422 -92q-121 0 -225 30q-106 31 -180 90q-82 66 -123 156q-43 95 -43 215zM655 563 q0 -162 105 -254q106 -94 274 -94q80 0 183 31q92 28 178 86q92 63 157 153q74 102 109 224q25 86 25 159q0 82 -33 152q-33 68 -86 106q-51 37 -123 60q-57 18 -146 18q-82 0 -178 -28q-90 -27 -178 -84q-90 -57 -158 -150q-68 -90 -102 -215q-27 -92 -27 -164zM1032 1794 l240 102l8 -36q2 -14 10 -33q12 -33 19 -41q16 -27 34 -45q16 -16 52 -33q27 -12 71 -12q82 0 170 51q92 53 166 119l33 30l162 -122l-37 -35q-129 -117 -279 -189q-158 -76 -295 -75q-80 0 -147 24q-70 25 -109 68q-41 43 -63 90q-25 49 -31 104z" />
<glyph unicode="&#x14f;" horiz-adv-x="1357" d="M238 315q0 74 24 156q68 233 256 373q186 137 447 137q200 0 313 -86q115 -86 115 -246q0 -61 -25 -149q-70 -244 -260 -381q-195 -139 -451 -139q-201 0 -309 88q-110 87 -110 247zM500 414q0 -96 63.5 -153.5t179.5 -57.5q125 0 233.5 73.5t141.5 194.5q14 49 15 84 q0 96 -74 152q-72 53 -174 53q-119 0 -227.5 -69.5t-145.5 -194.5q-12 -43 -12 -82zM641 1350l233 112l9 -41q10 -37 14 -47q10 -31 29 -57q23 -35 59 -55q41 -23 88 -23q82 0 176 57q94 59 170 134l33 32l141 -135l-37 -39q-121 -117 -268 -192q-150 -76 -295 -76 q-86 0 -153 24q-66 25 -109 70q-39 41 -61 94q-25 53 -27 107z" />
<glyph unicode="&#x150;" horiz-adv-x="1849" d="M383 477q0 102 35 230q66 223 207 385q147 170 338 256q195 88 415 88q267 0 424 -129q156 -129 156 -361q0 -100 -35 -221q-61 -217 -205 -385q-147 -172 -342 -262q-201 -92 -422 -92q-121 0 -225 30q-106 31 -180 90q-82 66 -123 156q-43 95 -43 215zM655 563 q0 -162 105 -254q106 -94 274 -94q80 0 183 31q92 28 178 86q92 63 157 153q74 102 109 224q25 86 25 159q0 82 -33 152q-33 68 -86 106q-51 37 -123 60q-57 18 -146 18q-82 0 -178 -28q-90 -27 -178 -84q-90 -57 -158 -150q-68 -90 -102 -215q-27 -92 -27 -164zM895 1610 l702 401l86 -184l-710 -385zM1458 1610l694 401l76 -184l-690 -385z" />
<glyph unicode="&#x151;" horiz-adv-x="1355" d="M238 315q0 74 24 156q68 236 254 373t442 137q203 0 316 -86q117 -88 117 -250q0 -66 -23 -145q-68 -238 -264.5 -379t-450.5 -141q-197 0 -305 88q-110 87 -110 247zM498 412q0 -94 63.5 -151.5t175.5 -57.5q125 0 230 73q109 78 141 195q12 43 12 84q0 98 -71.5 151.5 t-169.5 53.5q-117 0 -223.5 -69.5t-143.5 -194.5q-14 -53 -14 -84zM584 1171l567 396l109 -181l-594 -385zM1055 1171l571 396l92 -181l-569 -385z" />
<glyph unicode="&#x152;" horiz-adv-x="2160" d="M379 459q0 104 39 243q96 336 336 521q94 70 194 110q104 43 217 62q121 20 193 22q102 4 194 4h856l-65 -231h-643l-98 -342h587l-65 -232h-588l-111 -385h643l-65 -231h-952q-150 0 -234 10q-106 12 -186 47q-123 53 -187 154q-65 103 -65 248zM645 555q0 -113 51 -178 q57 -74 123 -105q61 -27 111 -32q74 -8 137 -9h90l275 959h-19q-119 0 -196 -10q-207 -29 -348.5 -152t-200.5 -326q-23 -84 -23 -147z" />
<glyph unicode="&#x153;" horiz-adv-x="1951" d="M238 309q0 76 24 164q66 231 246 369q178 135 416 135q252 0 340 -166q53 45 127 84q70 37 125 51q51 14 100 21q43 6 80 6q303 0 303 -258q0 -102 -45 -252l-33 -109h-676v-4q0 -72 72 -125t213 -53q74 0 211 31l45 10l-2 -168l-37 -10q-172 -57 -342 -58 q-268 0 -363 156q-186 -154 -426 -153q-178 0 -278 87.5t-100 241.5zM496 397q0 -88 51 -141q52 -55 153 -55q106 0 196.5 67.5t127.5 196.5q14 55 14 104q0 94 -57 140q-59 47 -137 47q-74 0 -143.5 -35t-110.5 -84q-47 -57 -70 -117q-24 -66 -24 -123zM1307 561h434 q12 53 12 94q0 133 -145 133q-100 0 -183 -65q-77 -62 -118 -162z" />
<glyph unicode="&#x154;" horiz-adv-x="1601" d="M291 0l405 1421h607q45 0 98 -4q43 -4 94 -12q49 -8 94 -35q43 -25 70 -59q45 -63 45 -160q0 -70 -21 -137q-39 -141 -149 -258q-106 -113 -283 -162l258 -594h-327l-240 553q-2 0 -10 -1t-14 -1h-25h-193l-157 -551h-252zM768 782h231q129 0 220 23q88 23 145 92 q57 66 57 145q0 49 -35 88q-37 39 -106 52q-39 8 -147 8h-248zM887 1638l735 355l70 -197l-754 -336z" />
<glyph unicode="&#x155;" horiz-adv-x="950" d="M176 0l277 963h182l14 -54q174 72 346 72q109 0 189 -43l28 -16l-135 -201l-33 12q-66 27 -139 27h-2q-131 0 -258 -45l-205 -715h-264zM559 1171l612 396l91 -181l-623 -385z" />
<glyph unicode="&#x156;" horiz-adv-x="1601" d="M143 -512l326 471h299l-354 -471h-271zM295 0l405 1421h607q45 0 98 -4q40 -3 92 -12q51 -8 96 -35q43 -25 70 -59q45 -63 45 -160q0 -70 -20 -137q-39 -141 -150 -258q-106 -113 -283 -162l258 -594h-327l-240 553q-2 0 -10 -1t-14 -1h-25h-192l-158 -551h-252zM772 782 h232q129 0 219 23q84 20 143 92t59 145q0 49 -34.5 88t-108.5 52q-39 8 -145 8h-248z" />
<glyph unicode="&#x157;" horiz-adv-x="946" d="M-121 -512l320 463h297l-355 -463h-262zM193 -10l278 973h182l15 -54q174 72 346 72q109 0 188 -43l31 -16l-135 -203l-33 14q-63 27 -139 27h-2q-129 0 -258 -45l-209 -725h-264z" />
<glyph unicode="&#x158;" horiz-adv-x="1601" d="M291 0l405 1421h607q45 0 98 -4q43 -4 94 -12q49 -8 94 -35q43 -25 70 -59q45 -63 45 -160q0 -70 -21 -137q-39 -141 -149 -258q-106 -113 -283 -162l258 -594h-327l-240 553q-2 0 -10 -1t-14 -1h-25h-193l-157 -551h-252zM768 782h231q129 0 220 23q88 23 145 92 q57 66 57 145q0 49 -35 88q-37 39 -106 52q-39 8 -147 8h-248zM944 1804l199 146l143 -195l256 193l133 -133l-491 -359z" />
<glyph unicode="&#x159;" horiz-adv-x="950" d="M176 0l277 963h182l14 -54q174 72 346 72q109 0 189 -43l28 -16l-135 -201l-33 12q-66 27 -139 27h-2q-131 0 -258 -45l-205 -715h-264zM606 1366l201 150l162 -203l258 200l106 -137l-473 -377z" />
<glyph unicode="&#x15a;" horiz-adv-x="1523" d="M266 92l156 244l35 -17q229 -90 391 -90q152 0 262 47q109 47 131 125q4 14 4 33q0 41 -37 76q-37 34 -98 55q-96 33 -135 45q-90 27 -146 47q-86 33 -135 60q-61 34 -98 86q-39 55 -39 121q0 40 12 86q51 180 265 303q209 121 503 121q195 0 377 -60l37 -10l-147 -234 l-35 13q-168 49 -316 49q-154 0 -266 -47q-119 -49 -139 -123q-4 -16 -4 -29q0 -39 37 -69q39 -33 98 -54q106 -37 133 -45q49 -14 148 -51q61 -23 131 -61q59 -33 98 -90.5t39 -124.5q0 -43 -15 -88q-18 -59 -55 -119q-35 -55 -102 -117q-57 -51 -148 -98q-80 -41 -202 -70 q-115 -27 -254 -26q-129 0 -240 26q-104 25 -213 74zM897 1638l748 355l63 -197l-754 -336z" />
<glyph unicode="&#x15b;" horiz-adv-x="1167" d="M147 74l129 194l33 -12q160 -66 295 -66q244 0 273 101v2l2 4q0 25 -41 43q-49 23 -97 33q-57 12 -129 35q-82 27 -127 45q-55 23 -98 69q-39 41 -39 103q0 31 8 57q12 39 37 78q25 40 74 80q51 43 117 71q63 29 168 52q86 18 223 18q70 0 125 -6q45 -4 78 -14 q41 -12 65 -21l37 -12l-125 -201l-35 8q-117 37 -237 37q-76 0 -131 -12q-59 -12 -82 -29q-25 -16 -39 -31q-12 -12 -17 -26v-8q0 -27 56 -48q53 -20 133 -43q102 -29 155 -47q74 -27 134 -77q55 -49 55 -115q0 -27 -8 -51q-14 -47 -35 -82q-18 -31 -72 -80 q-41 -39 -110 -72q-59 -29 -164 -51q-94 -20 -221 -20q-188 0 -357 77zM639 1171l608 396l96 -181l-608 -385z" />
<glyph unicode="&#x15c;" horiz-adv-x="1523" d="M266 92l156 244l35 -17q229 -90 391 -90q152 0 262 47q109 47 131 125q4 14 4 33q0 41 -37 76q-37 34 -98 55q-96 33 -135 45q-90 27 -146 47q-86 33 -135 60q-61 34 -98 86q-39 55 -39 121q0 40 12 86q51 180 265 303q209 121 503 121q195 0 377 -60l37 -10l-147 -234 l-35 13q-168 49 -316 49q-154 0 -266 -47q-119 -49 -139 -123q-4 -16 -4 -29q0 -39 37 -69q39 -33 98 -54q106 -37 133 -45q49 -14 148 -51q61 -23 131 -61q59 -33 98 -90.5t39 -124.5q0 -43 -15 -88q-18 -59 -55 -119q-35 -55 -102 -117q-57 -51 -148 -98q-80 -41 -202 -70 q-115 -27 -254 -26q-129 0 -240 26q-104 25 -213 74zM883 1593l483 359l256 -348l-213 -146l-143 195l-258 -193z" />
<glyph unicode="&#x15d;" horiz-adv-x="1167" d="M147 74l129 194l33 -12q160 -66 295 -66q244 0 273 101v2l2 4q0 25 -41 43q-49 23 -97 33q-57 12 -129 35q-82 27 -127 45q-55 23 -98 69q-39 41 -39 103q0 31 8 57q12 39 37 78q25 40 74 80q51 43 117 71q63 29 168 52q86 18 223 18q70 0 125 -6q45 -4 78 -14 q41 -12 65 -21l37 -12l-125 -201l-35 8q-117 37 -237 37q-76 0 -131 -12q-59 -12 -82 -29q-25 -16 -39 -31q-12 -12 -17 -26v-8q0 -27 56 -48q53 -20 133 -43q102 -29 155 -47q74 -27 134 -77q55 -49 55 -115q0 -27 -8 -51q-14 -47 -35 -82q-18 -31 -72 -80 q-41 -39 -110 -72q-59 -29 -164 -51q-94 -20 -221 -20q-188 0 -357 77zM592 1143l493 375l236 -367l-197 -152l-143 205l-270 -200z" />
<glyph unicode="&#x15e;" horiz-adv-x="1523" d="M266 92l156 244l35 -17q233 -90 393 -90q152 0 262 47q109 47 131 125q6 20 6 33q0 41 -39 76q-37 34 -98 55q-96 33 -135 45q-98 29 -148 47q-86 33 -135 60q-61 34 -98 86q-39 55 -39 121q0 40 12 86q51 180 265 303q209 121 505 121q193 0 375 -60l37 -10l-149 -234 l-33 13q-166 49 -314 49q-152 0 -264 -47q-119 -49 -139 -123q-4 -16 -4 -29q0 -39 37 -69q39 -33 98 -54q106 -37 133 -45q31 -8 144 -51q68 -25 133 -61q59 -33 98 -90q37 -55 37 -123q0 -45 -15 -90q-18 -61 -61 -127q-43 -65 -111 -123q-72 -63 -174 -105 q-104 -43 -227 -61l-35 -60q145 -49 146 -161q0 -100 -109 -191q-106 -88 -256 -88q-47 0 -86 8q-10 2 -182 47l-43 11l112 184l43 -12q166 -49 218 -49q59 0 69 30v4v2q0 14 -37 31q-25 10 -129 39q-16 4 -26.5 7t-18.5 5l-41 11l103 170q-104 6 -189 30q-80 25 -180 68z " />
<glyph unicode="&#x15f;" horiz-adv-x="1167" d="M145 63l129 195l33 -12q164 -68 295 -68q244 0 275 103q0 2 1 4t1 4q0 20 -41 43q-37 20 -99 33q-51 10 -127 34q-61 20 -127 47q-59 25 -98 70q-41 47 -41 102q0 27 10 62q12 39 35 76q18 29 76 80q49 43 117 73q63 29 168 52q96 20 225 20q70 0 125 -6q41 -4 76 -14 q41 -12 65 -21l37 -12l-125 -201l-35 8q-117 37 -235 37q-113 0 -180.5 -30.5t-79.5 -65.5l-1 -3q-1 -3 -1 -5q0 -29 55 -50q63 -25 129 -43q51 -14 154 -51q78 -29 131 -75q55 -49 55 -117q0 -27 -8 -53q-10 -39 -41 -86q-29 -45 -76 -87q-51 -45 -129 -77 q-63 -27 -182 -45l-35 -58q141 -40 141 -147q0 -29 -8 -55q-25 -88 -117 -156q-90 -66 -223 -66h-27q-6 0 -14 1t-12 1q-8 0 -28.5 4.5t-25.5 4.5q-10 0 -28.5 6t-24.5 6t-28 6l-11.5 4t-7.5 3t-3 1h-3l-2 1q-2 1 -5 2t-8 2t-12 3q-10 2 -21 7l-5 2l-35 10l96 170l37 -12 q184 -45 223 -46q37 0 59.5 12.5t24.5 24.5l2 6q0 6 -2 9l-2 2l-8 8t-6 4t-6 4q-4 2 -21 6q-4 0 -11 4t-11 4q-12 4 -31 9q-10 2 -18.5 5t-16.5 5l-41 10q-16 4 -45 12l-43 11l103 163q-141 12 -273 72z" />
<glyph unicode="&#x160;" horiz-adv-x="1523" d="M266 92l156 244l35 -17q229 -90 391 -90q152 0 262 47q109 47 131 125q4 14 4 33q0 41 -37 76q-37 34 -98 55q-96 33 -135 45q-90 27 -146 47q-86 33 -135 60q-61 34 -98 86q-39 55 -39 121q0 40 12 86q51 180 265 303q209 121 503 121q195 0 377 -60l37 -10l-147 -234 l-35 13q-168 49 -316 49q-154 0 -266 -47q-119 -49 -139 -123q-4 -16 -4 -29q0 -39 37 -69q39 -33 98 -54q106 -37 133 -45q49 -14 148 -51q61 -23 131 -61q59 -33 98 -90.5t39 -124.5q0 -43 -15 -88q-18 -59 -55 -119q-35 -55 -102 -117q-57 -51 -148 -98q-80 -41 -202 -70 q-115 -27 -254 -26q-129 0 -240 26q-104 25 -213 74zM995 1804l215 146l144 -195l256 193l125 -133l-484 -359z" />
<glyph unicode="&#x161;" horiz-adv-x="1167" d="M147 74l129 194l33 -12q160 -66 295 -66q244 0 273 101v2l2 4q0 25 -41 43q-49 23 -97 33q-57 12 -129 35q-82 27 -127 45q-55 23 -98 69q-39 41 -39 103q0 31 8 57q12 39 37 78q25 40 74 80q51 43 117 71q63 29 168 52q86 18 223 18q70 0 125 -6q45 -4 78 -14 q41 -12 65 -21l37 -12l-125 -201l-35 8q-117 37 -237 37q-76 0 -131 -12q-59 -12 -82 -29q-25 -16 -39 -31q-12 -12 -17 -26v-8q0 -27 56 -48q53 -20 133 -43q102 -29 155 -47q74 -27 134 -77q55 -49 55 -115q0 -27 -8 -51q-14 -47 -35 -82q-18 -31 -72 -80 q-41 -39 -110 -72q-59 -29 -164 -51q-94 -20 -221 -20q-188 0 -357 77zM655 1364l207 152l150 -203l264 200l110 -137l-483 -377z" />
<glyph unicode="&#x162;" horiz-adv-x="1454" d="M246 -440l125 184l51 -12l63 -17q25 -6 54 -14q2 0 15 -3t21 -5q29 -8 37 -8h27q53 4 59 26l2 2v2q0 8 -6 15q-8 8 -16 12l-11.5 6l-11.5 6q-14 6 -32 13q-4 2 -16.5 5t-18.5 5q-18 4 -41 12q-14 4 -22.5 7t-16.5 5l-49 13l24 36l43 64q14 23 23.5 33t11.5 14 q2 2 9.5 15.5t13.5 21.5q14 23 18 35q2 4 5 11l9 22l17 47l16 57l293 1020h-516l66 231h1284l-66 -231h-516l-289 -1006q-23 -82 -47 -139q-22 -52 -61 -117q158 -55 157 -157q0 -25 -6 -45q-25 -88 -133 -160t-242 -72q-18 0 -55 4t-51 8l-76 19l-94 24z" />
<glyph unicode="&#x163;" horiz-adv-x="909" d="M106 -434l99 170l39 -12l2 -2q2 -1 6 -2t9 -2t12.5 -3l15.5 -4q12 -2 36.5 -7t32.5 -7q27 -6 64 -12q41 -6 65 -7q70 0 80 35q2 6 2 11q0 20 -28 28q-61 18 -127 33q-27 6 -45.5 11t-30.5 7l-49 11l119 182q-145 47 -146 186q0 47 19 109l133 461h-129l59 211h129l88 309 h279l-88 -309h348l-62 -211h-348l-127 -445q-8 -33 -8 -47q0 -96 137 -96q45 0 150 16l39 6l-9 -166l-41 -10q-78 -18 -167 -33l-27 -51l20.5 -7t20.5 -9q18 -10 38.5 -26.5t33.5 -43.5q12 -25 12 -57q0 -23 -10 -59q-23 -84 -113 -154q-86 -68 -205 -68q-74 0 -162 19 q-94 18 -131 33z" />
<glyph unicode="&#x164;" horiz-adv-x="1372" d="M426 1190l66 231h1284l-66 -231h-516l-340 -1190h-254l342 1190h-516zM909 1804l211 146l142 -195l251 193l129 -133l-485 -359z" />
<glyph unicode="&#x165;" horiz-adv-x="913" d="M264 182q0 53 23 125l127 445h-129l59 211h129l86 297h277l-84 -297h350l-62 -211h-350l-121 -424q-10 -41 -10 -60q0 -78 119 -78q33 0 174 19l41 6l-14 -186l-41 -11q-174 -39 -283 -38q-291 -1 -291 202zM817 1032l350 496h306l-359 -496h-297z" />
<glyph unicode="&#x166;" horiz-adv-x="1372" d="M389 561l68 234h372l113 395h-516l66 231h1284l-66 -231h-516l-113 -395h373l-68 -234h-372l-160 -561h-254l162 561h-373z" />
<glyph unicode="&#x167;" horiz-adv-x="903" d="M188 424l56 190h131l39 138h-129l59 211h129l88 309h279l-88 -309h342l-60 -211h-344l-39 -138h342l-55 -190h-342l-29 -102q-8 -29 -8 -41q0 -90 137 -91q27 0 150 19l39 6l-17 -186l-39 -11q-166 -39 -254 -38q-156 0 -233 47q-76 45 -76 153q0 59 21 129l32 115h-131z " />
<glyph unicode="&#x168;" horiz-adv-x="1742" d="M397 305q0 80 33 193l9 27.5l12 37.5q12 43 18 62l227 796h252l-258 -901q-20 -70 -20 -119q0 -61 32 -100q74 -92 271 -92q84 0 147 14q57 12 113 39q35 16 82 55q35 29 55 60q12 18 33 59q18 35 20 49q2 6 4.5 14.5t2.5 14.5l2 6l258 901h252l-230 -796q-4 -25 -14 -58 q-10 -43 -19 -73q-12 -45 -26 -80q-16 -45 -41 -86q-22 -37 -56 -86q-33 -47 -73 -82q-45 -37 -98.5 -72t-127.5 -57q-66 -20 -157 -37q-84 -14 -195 -14q-508 -1 -508 325zM825 1544l29 37q2 2 3 4t7 10.5t15 18.5q12 14 17 23.5t9 13.5q6 8 29 35q29 33 35 38l35 35 q27 23 40 33q8 6 19.5 12t23.5 15q18 10 50 24q4 2 51 12q28 6 55 7q55 -2 105 -23q41 -16 73 -45q20 -16 49 -51l41 -43q20 -18 39 -19q14 0 29 9q20 12 35 26l33 33l39 47q16 20 27 31.5t11 13.5l29 35l164 -80l-29 -39q-10 -10 -24 -31l-16.5 -20t-8.5 -11t-4 -5t-5 -6.5 t-10.5 -12.5t-13.5 -16l-34 -39l-35 -35q-23 -23 -43 -35l-43 -26q-31 -18 -49 -23q-14 -4 -52 -12q-27 -6 -57 -6q-55 2 -104 22q-41 16 -74 45q-20 18 -49 51l-41 43q-20 18 -39 19q-8 0 -21 -4q-6 -2 -22.5 -14.5t-22.5 -18.5q-2 -2 -7 -6t-10 -9t-9 -12l-27 -30 q-10 -14 -26.5 -33t-26.5 -33l-31 -35z" />
<glyph unicode="&#x169;" horiz-adv-x="1329" d="M272 211q0 82 33 192l166 584h248l-166 -581q-14 -53 -14 -76q0 -121 174 -121q115 0 274 55l207 723h248l-285 -987h-182l-8 68q-229 -88 -408 -88q-287 0 -287 231zM492 1110l28 39q12 12 31 37q31 41 37 47l37 45q31 35 47 47q8 6 19 16.5t28 22.5q31 25 57 35 q47 18 58 20q31 8 67 8q57 -2 111 -22q47 -18 78 -45q29 -25 51 -51q22 -25 43 -43q20 -18 41 -19q6 0 18 4q10 4 23 13q16 12 20 16l6 6t9.5 8t9.5 11q10 12 22 28l29 37q18 25 29 37l26 37l156 -82l-31 -39q0 -2 -4 -6t-10 -12.5l-12 -16.5l-31 -41l-11.5 -12t-21.5 -27 q-37 -41 -39 -43l-41 -37q-27 -23 -47 -34q-29 -16 -47 -25q-35 -16 -57 -20q-18 -4 -58 -5q-55 2 -108 23q-47 18 -78 45q-29 27 -51 51q-22 25 -43 43q-23 18 -41 19q-10 0 -17 -2q-14 -4 -16 -6q-12 -8 -16 -13q-2 -2 -7.5 -6t-9.5 -8q-10 -10 -16 -19q-12 -12 -21 -22 l-18 -25q0 -2 -7 -9t-16 -19l-22 -31l-27 -35z" />
<glyph unicode="&#x16a;" horiz-adv-x="1742" d="M397 305q0 80 33 193l9 27.5l12 37.5q12 43 18 62l227 796h252l-258 -901q-20 -70 -20 -119q0 -61 32 -100q74 -92 271 -92q84 0 147 14q57 12 113 39q35 16 82 55q35 29 55 60q12 18 33 59q18 35 20 49q2 6 4.5 14.5t2.5 14.5l2 6l258 901h252l-230 -796q-4 -25 -14 -58 q-10 -43 -19 -73q-12 -45 -26 -80q-16 -45 -41 -86q-22 -37 -56 -86q-33 -47 -73 -82q-45 -37 -98.5 -72t-127.5 -57q-66 -20 -157 -37q-84 -14 -195 -14q-508 -1 -508 325zM821 1487l62 211h993l-61 -211h-994z" />
<glyph unicode="&#x16b;" d="M258 211q0 82 33 192l168 584h246l-166 -581q-14 -53 -15 -76q0 -121 172 -121q119 0 279 55l207 723h245l-282 -987h-184l-11 68q-227 -88 -403 -88q-289 0 -289 231zM610 1122l62 211h749l-61 -211h-750z" />
<glyph unicode="&#x16c;" horiz-adv-x="1742" d="M397 305q0 82 33 193l266 923h252l-258 -901q-20 -70 -20 -119q0 -61 32 -100q74 -92 271 -92q84 0 147 14q57 12 113 39q35 16 82 55q35 29 55 60q12 18 33 59q18 35 20 49q2 6 4.5 14.5t2.5 14.5l2 6l258 901h252l-230 -796q-4 -25 -14 -58q-10 -43 -19 -73 q-12 -45 -26 -80q-16 -45 -41 -86q-22 -37 -56 -86q-33 -47 -73 -82q-45 -37 -98.5 -72t-127.5 -57q-66 -20 -157 -37q-84 -14 -195 -14q-508 -1 -508 325zM881 1794l223 102l10 -36q2 -4 5 -15.5t5 -17.5q6 -14 21 -41q12 -23 35 -45q14 -14 55 -33q27 -12 74 -12 q84 0 174 51q98 55 170 119l37 30l159 -122l-34 -35q-119 -106 -285 -189q-154 -76 -301 -75q-84 0 -152 24q-66 25 -106 68t-62 92q-25 55 -26 102z" />
<glyph unicode="&#x16d;" d="M258 211q0 82 33 192l168 584h246l-166 -581q-14 -53 -15 -76q0 -121 172 -121q119 0 279 55l207 723h245l-282 -987h-184l-11 68q-227 -88 -403 -88q-289 0 -289 231zM584 1360l223 102l6 -37l10 -30q4 -14 23 -43q15 -25 37 -43q23 -18 55 -33q35 -14 80 -14 q86 0 180 51q104 57 166 119l33 30l143 -123l-35 -34q-125 -119 -268 -189q-156 -76 -303 -76q-86 0 -154 25q-70 25 -108 68q-41 45 -62 90q-22 49 -24 104z" />
<glyph unicode="&#x16e;" horiz-adv-x="1742" d="M397 305q0 82 33 193l266 923h252l-258 -901q-20 -70 -20 -119q0 -61 32 -100q74 -92 271 -92q84 0 147 14q57 12 113 39q35 16 82 55q35 29 55 60q12 18 33 59q18 35 20 49q2 6 4.5 14.5t2.5 14.5l2 6l258 901h252l-230 -796q-4 -25 -14 -58q-10 -43 -19 -73 q-12 -45 -26 -80q-16 -45 -41 -86q-22 -37 -56 -86q-33 -47 -73 -82q-45 -37 -98.5 -72t-127.5 -57q-66 -20 -157 -37q-84 -14 -195 -14q-508 -1 -508 325zM1085 1675q0 31 11 68q31 109 139 186.5t229 77.5q101 0 166 -55q63 -55 64 -144q0 -29 -11 -65q-31 -109 -141 -189 q-109 -78 -229 -77q-100 0 -164 55t-64 143zM1286 1714q0 -29 18.5 -47t59.5 -18q45 0 78 30q37 33 45 64q4 16 4 22q0 29 -20.5 49.5t-55.5 20.5q-53 0 -92 -39q-37 -37 -37 -82z" />
<glyph unicode="&#x16f;" horiz-adv-x="1333" d="M258 213q0 84 33 190l168 584h246l-166 -581q-14 -53 -15 -76q0 -121 176 -121q119 0 281 55l209 723h246l-285 -987h-182l-11 68q-229 -88 -409 -88q-291 0 -291 233zM733 1239q0 33 10 70q29 106 142 186q109 78 233 78q106 0 170 -55.5t64 -141.5q0 -31 -11 -67 q-31 -111 -139 -189t-233 -78q-104 0 -170 55.5t-66 141.5zM938 1280q0 -31 18 -47q22 -18 62 -19q39 0 78 29q37 27 49 66q2 8 2 22q0 31 -21 49q-25 20 -57 21q-55 0 -94 -39q-37 -37 -37 -82z" />
<glyph unicode="&#x170;" horiz-adv-x="1742" d="M397 305q0 82 33 193l266 923h252l-258 -901q-20 -70 -20 -119q0 -61 32 -100q74 -92 271 -92q84 0 147 14q57 12 113 39q35 16 82 55q35 29 55 60q12 18 33 59q18 35 20 49q2 6 4.5 14.5t2.5 14.5l2 6l258 901h252l-230 -796q-4 -25 -14 -58q-10 -43 -19 -73 q-12 -45 -26 -80q-16 -45 -41 -86q-22 -37 -56 -86q-33 -47 -73 -82q-45 -37 -98.5 -72t-127.5 -57q-66 -20 -157 -37q-84 -14 -195 -14q-508 -1 -508 325zM897 1634l662 387l67 -168l-655 -403zM1421 1620l658 401l73 -184l-661 -387z" />
<glyph unicode="&#x171;" horiz-adv-x="1325" d="M258 211q0 82 33 192l168 584h246l-166 -581q-14 -53 -15 -76q0 -121 172 -121q119 0 279 55l207 723h245l-282 -987h-184l-11 68q-227 -88 -403 -88q-289 0 -289 231zM551 1190l553 377l92 -172l-534 -369zM1083 1190l553 377l95 -172l-541 -369z" />
<glyph unicode="&#x172;" horiz-adv-x="1742" d="M399 307q0 82 31 191l266 923h252l-258 -901q-20 -70 -20 -119q0 -61 32 -100q74 -92 271 -92q84 0 147 14q57 12 113 39q35 16 82 55q35 29 55 60q12 18 33 59q18 35 20 49q2 6 4.5 14.5t2.5 14.5l2 6l258 901h252l-263 -915q-34 -117 -73 -197q-37 -72 -101 -133 q-55 -51 -121 -88q-45 -25 -163 -72q-98 -37 -172 -79q-70 -41 -113 -84q-47 -47 -59 -66q-20 -29 -25 -47q-2 -8 -2 -23q0 -47 57 -47q70 0 170 54l51 24l50 -162l-37 -20q-195 -111 -355 -111q-102 0 -155 47t-53 127t55 176q57 98 158 179q-392 30 -392 323z" />
<glyph unicode="&#x173;" horiz-adv-x="1337" d="M256 213q0 71 37 197l8 24q2 6 6 12l2 5l148 512h245l-161 -564q-12 -39 -13 -69q0 -121 177 -121q115 0 278 53l203 701h246l-285 -992l-25 -12l-96 -41l-104 -47q-34 -15 -80 -43q-47 -29 -72 -53q-20 -20 -31 -51q-4 -16 -4 -23q0 -39 61.5 -39t161.5 47l39 21 l45 -152l-36 -20q-180 -100 -324 -101q-111 0 -172 49.5t-61 122.5q0 23 10 58q59 201 438 354q-188 -61 -336 -61q-98 0 -162 24q-143 55 -143 209z" />
<glyph unicode="&#x174;" horiz-adv-x="2400" d="M547 1421h268l14 -1091l723 1091h234l24 -1091l713 1091h254l-940 -1421h-242l-28 1087l-715 -1087h-242zM1358 1597l473 359l235 -348l-211 -146l-124 195l-242 -193z" />
<glyph unicode="&#x175;" horiz-adv-x="1890" d="M342 987h256l20 -731l510 731h215l19 -733l522 733h264l-751 -987h-217l-25 711l-508 -711h-219zM922 1165l475 357l237 -348l-213 -146l-125 195l-241 -191z" />
<glyph unicode="&#x176;" horiz-adv-x="1425" d="M508 1421h297l221 -551l547 551h289l-762 -757l-191 -664h-282l188 664zM870 1593l486 359l250 -348l-213 -146l-140 195l-254 -193z" />
<glyph unicode="&#x177;" horiz-adv-x="1202" d="M100 -530l400 532l-168 985h260l108 -758l514 758h261l-1080 -1517h-295zM592 1159l485 359l246 -349l-209 -145l-137 195l-258 -193z" />
<glyph unicode="&#x178;" horiz-adv-x="1425" d="M508 1421h297l221 -551l547 551h289l-762 -757l-191 -664h-282l188 664zM844 1630l76 268h297l-76 -268h-297zM1346 1630l75 268h297l-76 -268h-296z" />
<glyph unicode="&#x179;" horiz-adv-x="1521" d="M156 0l43 156l1194 1034h-867l66 231h1249l-43 -153l-1214 -1037h946l-68 -231h-1306zM918 1638l739 355l67 -197l-743 -336z" />
<glyph unicode="&#x17a;" horiz-adv-x="1216" d="M145 0l37 127l723 625h-543l60 211h895l-37 -127l-729 -625h573l-59 -211h-920zM637 1174l598 393l98 -181l-610 -382z" />
<glyph unicode="&#x17b;" horiz-adv-x="1521" d="M156 0l43 156l1194 1034h-867l66 231h1249l-43 -153l-1214 -1037h946l-68 -231h-1306zM1069 1536l84 293h326l-84 -293h-326z" />
<glyph unicode="&#x17c;" horiz-adv-x="1224" d="M145 0l37 127l729 625h-549l60 211h903l-37 -127l-737 -625h584l-62 -211h-928zM760 1151l78 270h338l-78 -270h-338z" />
<glyph unicode="&#x17d;" horiz-adv-x="1521" d="M156 0l43 156l1194 1034h-867l66 231h1249l-43 -153l-1214 -1037h946l-68 -231h-1306zM969 1804l209 146l139 -195l252 193l129 -133l-484 -359z" />
<glyph unicode="&#x17e;" horiz-adv-x="1216" d="M145 0l37 127l723 625h-543l60 211h895l-37 -127l-729 -625h573l-59 -211h-920zM633 1364l192 152l150 -203l268 200l111 -137l-488 -377z" />
<glyph unicode="&#x191;" horiz-adv-x="1411" d="M-248 -489l98 200l39 -10q88 -25 142 -25q188 0 237 170l453 1575h971l-68 -231h-692l-98 -342h632l-65 -232h-633l-223 -776q-37 -129 -119 -217q-78 -84 -182 -125q-98 -39 -224 -39q-119 0 -235 39z" />
<glyph unicode="&#x192;" horiz-adv-x="962" d="M-256 -489l96 198l39 -8q86 -23 137 -23q61 0 95 11q41 12 63.5 26.5t40.5 38.5q20 27 25 41q2 4 5 12.5t5 15.5t4 15l260 914h-186l59 211h188l21 69q39 137 115 223q78 88 184 129q117 45 233 46q115 0 238 -41l33 -13l-99 -202l-36 10q-86 27 -138 26q-55 0 -96 -14 q-45 -16 -67 -33q-27 -20 -45 -47q-23 -33 -27 -49q-8 -29 -14 -45l-17 -59h346l-61 -211h-346l-269 -934q-104 -358 -516 -359q-111 0 -237 41z" />
<glyph unicode="&#x22c;" horiz-adv-x="1849" d="M383 477q0 102 35 230q66 223 207 385q147 170 338 256q195 88 415 88q267 0 424 -129q156 -129 156 -361q0 -100 -35 -221q-61 -217 -205 -385q-147 -172 -342 -262q-201 -92 -422 -92q-121 0 -225 30q-106 31 -180 90q-82 66 -123 156q-43 95 -43 215zM655 563 q0 -162 105 -254q106 -94 274 -94q80 0 183 31q92 28 178 86q92 63 157 153q74 102 109 224q25 86 25 159q0 86 -33 152q-33 68 -88 106q-51 37 -121 60q-57 18 -141 18h-5q-82 0 -178 -28q-90 -27 -178 -84q-90 -57 -158 -150q-68 -90 -102 -215q-27 -92 -27 -164z M983 1513l21 43l3 7q3 6 8 14t9 18q10 23 23 47q2 4 9 15.5t17 30.5q27 43 31 49l37 43q18 23 43 39q8 6 49 28q31 16 59 23q31 6 68 6q57 -4 100 -21q41 -16 72 -47q35 -35 49 -51q29 -33 41 -45q16 -16 33 -16q2 0 14 4q6 2 19 14q6 6 14 19q12 18 16 26l15 27q2 2 6 10 l10 21q4 6 6 12t4 10t2 6l21 39l196 -31l-20 -41q0 -2 -4 -11t-12 -25l-21 -41q-2 -4 -10 -17.5t-15 -23.5q-18 -33 -26 -43l-31 -41q-12 -16 -35 -39l-41 -31q-25 -18 -47 -27q-20 -8 -53 -14q-31 -6 -61 -6q-57 4 -101 20q-45 18 -71 46q-20 20 -50 53q-14 16 -41 43 q-18 18 -32 18q-8 0 -13 -2q-8 -4 -12 -8l-12 -12q-4 -4 -13 -17q-4 -6 -10 -18l-5 -7q-5 -7 -7 -14q-6 -14 -10 -22l-5 -10.5t-8 -16.5q-4 -6 -8 -14l-4 -8l-18 -39zM1096 1946l61 211h895l-61 -211h-895z" />
<glyph unicode="&#x22d;" horiz-adv-x="1361" d="M238 317q0 71 24 154q68 238 256 373q188 137 449 137q200 0 313 -86q115 -86 115 -246q0 -70 -23 -149q-68 -242 -262.5 -381t-450.5 -139q-197 0 -309 89.5t-112 247.5zM500 414q0 -96 63.5 -153.5t179.5 -57.5q129 0 238 73.5t141 194.5q12 43 13 84q0 98 -72 151.5 t-176 53.5q-74 0 -150 -29q-78 -29 -139 -88q-59 -57 -86 -147q-12 -43 -12 -82zM543 1069l20 43q0 2 2 5t7.5 12.5t11.5 23.5q10 23 22 47q6 12 25 45q18 34 31 49q27 31 34 41q25 27 43 41q8 6 49 29q31 16 58 22q31 6 67 7q53 -2 103 -23q51 -20 76 -45l17 -17.5 t20.5 -19.5t15.5 -16q14 -16 41 -43q18 -18 33 -19q12 0 18 4l16 17q8 8 17 20q4 6 16 27q6 10 14 27l17 30l12 27l21 41l186 -33l-20 -43q-8 -16 -19 -35q-8 -16 -12 -26.5t-6 -14.5t-23 -41l-26 -45q-2 -4 -29 -39q-20 -29 -35 -39l-41 -30q-23 -16 -45 -27 q-25 -10 -53 -16q-31 -6 -62 -6q-53 2 -102 22q-51 20 -76 45q-37 37 -51 53.5t-41 42.5q-18 18 -33 19q-8 0 -12 -2q-12 -6 -14 -8l-13 -13q-4 -4 -12 -16q-6 -10 -10 -18q-8 -12 -13 -23q-4 -8 -7 -13t-5 -8l-12 -24l-12 -25l-19 -39zM680 1507l61 211h891l-59 -211h-893z " />
<glyph unicode="&#x237;" horiz-adv-x="600" d="M-84 -352l41 16q156 66 199 215l309 1084h246l-305 -1065q-8 -27 -23 -70q-9 -28 -31 -74q-23 -47 -51 -82q-35 -41 -72 -75q-41 -37 -102 -72q-59 -33 -133 -57l-37 -13z" />
<glyph unicode="&#x2c6;" horiz-adv-x="1478" d="M741 1243l445 359l211 -349l-193 -145l-121 195l-229 -193z" />
<glyph unicode="&#x2c7;" horiz-adv-x="1077" d="M610 1411l195 145l119 -192l231 190l113 -131l-445 -358z" />
<glyph unicode="&#x2d8;" horiz-adv-x="1077" d="M498 1401l221 102l8 -37q3 -22 12 -43q14 -35 25 -51q20 -35 51 -51q34 -18 80 -18q72 0 156 51q86 53 155 119l33 30l145 -123l-34 -34q-121 -115 -263 -189q-145 -76 -272 -76q-70 0 -135 27q-61 25 -96 66q-41 47 -60 90q-22 49 -24 104z" />
<glyph unicode="&#x2d9;" horiz-adv-x="1198" d="M786 1192l82 291h293l-84 -291h-291z" />
<glyph unicode="&#x2da;" horiz-adv-x="1083" d="M696 1276q0 41 11 74q31 109 131 186.5t204 77.5q84 0 142 -53q55 -53 55 -138q0 -41 -10 -73q-31 -111 -131.5 -189t-204.5 -78q-90 0 -143.5 53.5t-53.5 139.5zM877 1319q0 -25 16 -45q16 -18 47 -19q35 0 70 29q33 27 45 66q4 16 4 26q0 29 -18.5 47.5t-47.5 18.5 q-51 0 -83.5 -39t-32.5 -84z" />
<glyph unicode="&#x2db;" horiz-adv-x="1083" d="M311 -414q0 35 13 78q47 162 223 313q174 152 393 207l43 11l-4 -189l-41 -12q-143 -47 -254 -139q-104 -88 -127 -156q-2 -8 -2 -25q0 -45 49 -45q53 0 158 54l43 22l41 -160l-35 -20q-184 -111 -317 -111q-82 0 -134 47q-49 47 -49 125z" />
<glyph unicode="&#x2dc;" horiz-adv-x="1398" d="M612 1264l29 39q6 6 31 38l37 48q27 35 36 45q8 12 46 47q16 14 47 39q25 18 55 34q16 8 57 21q27 8 64 8q49 -2 92 -22q35 -16 63 -45q18 -18 43 -52q31 -41 35 -45q16 -16 35 -16q12 0 25 6q8 4 30 27q6 6 15.5 17t13.5 15q10 10 37 48q23 31 37 45l28 34l156 -79 l-29 -37l-30 -41q-16 -20 -24.5 -32.5t-10.5 -14.5t-7 -8.5t-14.5 -16.5l-17.5 -18q-37 -41 -45 -48q-16 -14 -47 -38q-33 -27 -56 -35q-51 -18 -55 -21q-27 -8 -63 -8q-49 2 -92 23q-39 18 -66 45q-4 4 -41 53q-18 25 -36.5 43t-33.5 18q-8 0 -24 -8q-12 -6 -31 -24 q-12 -12 -29 -33q-29 -37 -36 -47l-37 -49l-29 -35z" />
<glyph unicode="&#x2dd;" horiz-adv-x="1650" d="M584 1276l661 385l70 -168l-658 -401zM1110 1260l655 401l74 -184l-661 -385z" />
<glyph unicode="&#x2ee;" horiz-adv-x="833" d="M369 1042l145 510h266l-145 -510h-266zM758 1042l145 510h268l-147 -510h-266z" />
<glyph unicode="&#x302;" horiz-adv-x="1478" d="M741 1243l445 359l211 -349l-193 -145l-121 195l-229 -193z" />
<glyph unicode="&#x1e02;" horiz-adv-x="1587" d="M291 0l405 1421h543q109 0 176 -16q80 -18 123 -45q51 -31 76 -64q31 -43 39 -71q10 -41 10 -76q0 -43 -12 -90q-18 -63 -78 -137q-59 -72 -127 -119q74 -33 119 -103q41 -63 41 -153q0 -51 -15 -101q-6 -23 -26 -67q-12 -29 -47 -80q-31 -46 -74 -86q-45 -41 -107 -80 q-76 -47 -139 -70q-72 -27 -180 -45q-104 -18 -225 -18h-502zM608 231h226q14 0 36.5 1t30.5 1q10 0 80 5q45 2 90 10q33 6 84 22q46 15 80 37q37 25 61 53q27 33 39 74q6 20 6 45q0 82 -96 129q-98 47 -266 47q-9 0 -252 -12zM776 815q227 6 311 21q233 39 277 194 q6 25 6 47q0 131 -248 131h-233zM1141 1606l84 292h329l-84 -292h-329z" />
<glyph unicode="&#x1e03;" horiz-adv-x="1341" d="M184 0l432 1507h246l-162 -569q147 45 275 45q57 0 119 -10q59 -10 108 -33q57 -27 90 -59q41 -41 62 -93q23 -57 22 -126q0 -78 -26 -170q-68 -240 -256 -375q-190 -137 -441 -137q-147 0 -264 53l-22 -33h-183zM494 219q98 -29 190 -29q47 0 90 7q35 4 96 26 q51 18 94.5 49t80 80t55.5 115q16 59 16 100q0 47 -18 84q-20 39 -43 58q-31 25 -64 34q-41 14 -73 17q-68 6 -72 6q-96 0 -205 -33zM995 1606l84 292h346l-84 -292h-346z" />
<glyph unicode="&#x1e0a;" horiz-adv-x="1769" d="M291 0l405 1421h482q154 0 272 -24q117 -25 195 -68q80 -45 124 -100q43 -53 68 -127q20 -61 21 -141q0 -98 -31 -209q-27 -86 -68 -177q-43 -90 -102 -174q-59 -82 -148 -159q-82 -74 -196 -127q-123 -57 -250 -84q-150 -31 -416 -31h-356zM608 231h166q86 0 117 2 q55 4 125 15q82 12 139 33q55 18 131 65q61 37 127 107q109 117 150 266q20 68 20 139q0 61 -18.5 110.5t-49 86.5t-71.5 63q-39 25 -86 41q-51 16 -94 23q-66 8 -146 8h-235zM1202 1606l84 292h334l-84 -292h-334z" />
<glyph unicode="&#x1e0b;" horiz-adv-x="1345" d="M233 301q0 70 27 166q70 244 260 381q188 135 438 135q111 0 222 -35l159 559h246l-432 -1507h-180l-8 45q-166 -66 -326 -65q-82 0 -152 18q-72 18 -127 53q-59 37 -92 101q-35 65 -35 149zM494 393q0 -57 24 -96q25 -40 68 -61q37 -18 86 -29q47 -10 92 -10 q96 0 211 34l145 512q-98 29 -194 29q-45 0 -88 -6q-41 -6 -94.5 -24.5t-96.5 -49.5q-49 -35 -82 -82q-37 -51 -55 -121q-16 -59 -16 -96zM940 1606l84 292h344l-84 -292h-344z" />
<glyph unicode="&#x1e1e;" horiz-adv-x="1411" d="M291 0l405 1421h987l-65 -231h-733l-99 -342h674l-65 -232h-674l-178 -616h-252zM1057 1606l84 292h350l-84 -292h-350z" />
<glyph unicode="&#x1e1f;" horiz-adv-x="972" d="M291 0l215 752h-160l62 211h159l17 61l16 55q8 27 21 58q16 41 28 59q16 27 39 57q25 35 49 54q29 23 66 45q39 25 84 37q49 14 102 22q66 10 125 10q123 0 250 -41l33 -12l-99 -203l-38 13q-84 25 -140 24q-119 0 -192.5 -45t-93.5 -123l-21 -71h391l-59 -211h-393 l-215 -752h-246zM866 1536l84 293h363l-84 -293h-363z" />
<glyph unicode="&#x1e40;" horiz-adv-x="2048" d="M291 0l405 1421h308l237 -817l713 817h291l-408 -1421h-252l305 1063l-592 -655h-237l-213 655l-305 -1063h-252zM1354 1606l84 292h317l-82 -292h-319z" />
<glyph unicode="&#x1e41;" horiz-adv-x="1953" d="M176 0l277 963h182l8 -66q199 84 369 84q172 0 235 -98q211 98 420 98q297 0 297 -231q0 -80 -29 -179l-163 -571h-248l162 565q12 41 12 70q0 115 -162 115q-90 0 -250 -54q-6 -51 -33 -147l-157 -549h-246l162 567q12 39 12 68q0 115 -160 115q-84 0 -243 -54 l-199 -696h-246zM1159 1130l82 291h303l-82 -291h-303z" />
<glyph unicode="&#x1e56;" horiz-adv-x="1501" d="M291 0l405 1421h510q18 0 47 -1t39 -1q34 0 92 -6q63 -6 97 -14q40 -9 86 -31q49 -23 75 -49q29 -29 47.5 -72t18.5 -98q0 -70 -18 -127q-23 -84 -70 -164q-39 -68 -96 -121q-45 -43 -121 -84q-51 -29 -133 -55q-47 -16 -148 -31q-94 -14 -149 -16q-45 -2 -152 -2 q-14 0 -121 4l-157 -553h-252zM768 784q76 -6 137 -6q63 0 142 4q51 2 127 17q66 12 114 35q41 18 82 63q39 43 53 96q8 25 9 56q0 33 -19 61q-16 25 -49 41q-31 16 -76 25q-29 6 -92 10q-57 4 -106 4h-207zM1067 1606l84 292h322l-82 -292h-324z" />
<glyph unicode="&#x1e57;" horiz-adv-x="1335" d="M23 -530l430 1493h182l8 -48q174 66 332 66q68 0 117 -8q51 -8 106 -35q57 -27 90 -59q39 -39 60 -91q23 -57 22 -126q0 -78 -27 -170q-68 -240 -253 -375q-190 -137 -437 -137q-109 0 -217 34l-157 -544h-256zM496 219q102 -29 188 -29q59 0 115 13q51 12 116 41 q57 27 109 86q51 61 72 137q14 55 14 102q0 61 -22.5 98.5t-67.5 59.5q-39 18 -82 29q-39 8 -90 8q-102 0 -207 -33zM881 1130l84 291h338l-84 -291h-338z" />
<glyph unicode="&#x1e60;" horiz-adv-x="1523" d="M266 92l156 244l35 -17q229 -90 391 -90q152 0 262 47q109 47 131 125q4 14 4 33q0 41 -37 76q-37 34 -98 55q-96 33 -135 45q-90 27 -146 47q-86 33 -135 60q-61 34 -98 86q-39 55 -39 121q0 40 12 86q51 180 265 303q209 121 503 121q195 0 377 -60l37 -10l-147 -234 l-35 13q-168 49 -316 49q-154 0 -266 -47q-119 -49 -139 -123q-4 -16 -4 -29q0 -39 37 -69q39 -33 98 -54q106 -37 133 -45q49 -14 148 -51q61 -23 131 -61q59 -33 98 -90.5t39 -124.5q0 -43 -15 -88q-18 -59 -55 -119q-35 -55 -102 -117q-57 -51 -148 -98q-80 -41 -202 -70 q-115 -27 -254 -26q-129 0 -240 26q-104 25 -213 74zM1143 1606l84 292h332l-82 -292h-334z" />
<glyph unicode="&#x1e61;" horiz-adv-x="1177" d="M147 74l129 194l35 -12q162 -66 297 -66q248 0 277 101v2l2 4q0 28 -56 49q-61 25 -135 41q-45 10 -157 45q-76 23 -136 76q-55 49 -55 119q0 29 8 55q12 41 37 78q27 39 76 80q51 43 117 71q63 29 168 52q86 18 225 18q74 0 129 -6q45 -4 78 -14q29 -8 65 -21l37 -12 l-125 -201l-35 8q-121 37 -241 37q-70 0 -113 -8q-59 -10 -76 -19q-33 -14 -47 -26q-20 -16 -26 -27q-8 -12 -11 -18v-8q0 -27 56 -48q55 -22 135 -43q106 -29 160 -47q78 -27 135 -77q55 -49 55 -115q0 -33 -6 -51q-12 -41 -37 -82q-23 -35 -70 -80q-39 -37 -112 -72 q-61 -29 -166 -51q-96 -20 -223 -20q-188 0 -361 77zM772 1130l84 291h356l-84 -291h-356z" />
<glyph unicode="&#x1e6a;" horiz-adv-x="1372" d="M426 1190l66 231h1284l-66 -231h-516l-340 -1190h-254l342 1190h-516zM1024 1606l84 292h326l-84 -292h-326z" />
<glyph unicode="&#x1e6b;" horiz-adv-x="905" d="M283 168q0 57 24 139l127 445h-149l59 211h152l86 305h245l-86 -305h355l-60 -211h-356l-121 -424q-6 -25 -6 -37q0 -45 33 -72q35 -29 112 -29q27 0 150 19l39 6l-17 -186l-39 -11q-166 -39 -253 -38q-164 0 -229.5 49t-65.5 139zM553 1329l84 293h352l-84 -293h-352z " />
<glyph unicode="&#x1e80;" horiz-adv-x="2400" d="M547 1421h268l14 -1091l723 1091h234l24 -1091l713 1091h254l-940 -1421h-242l-28 1087l-715 -1087h-242zM1458 1749l180 195l516 -353l-165 -178z" />
<glyph unicode="&#x1e81;" horiz-adv-x="1890" d="M342 987h256l20 -731l510 731h215l19 -733l522 733h264l-751 -987h-217l-25 711l-508 -711h-219zM1049 1395l215 172l342 -377l-197 -164z" />
<glyph unicode="&#x1e82;" horiz-adv-x="2400" d="M547 1421h268l14 -1091l723 1091h234l24 -1091l713 1091h254l-940 -1421h-242l-28 1087l-715 -1087h-242zM1323 1591l719 353l69 -195l-722 -336z" />
<glyph unicode="&#x1e83;" horiz-adv-x="1890" d="M342 987h256l20 -731l510 731h215l19 -733l522 733h264l-751 -987h-217l-25 711l-508 -711h-219zM1024 1190l557 377l117 -172l-572 -369z" />
<glyph unicode="&#x1e84;" horiz-adv-x="2400" d="M547 1421h268l14 -1091l723 1091h234l24 -1091l713 1091h254l-940 -1421h-242l-28 1087l-715 -1087h-242zM1333 1630l76 268h299l-76 -268h-299zM1815 1630l75 268h297l-76 -268h-296z" />
<glyph unicode="&#x1e85;" horiz-adv-x="1904" d="M342 987h256l20 -731l519 731h215l24 -733l525 733h264l-752 -987h-223l-27 711l-514 -711h-221zM893 1155l76 266h311l-78 -266h-309zM1380 1155l78 266h309l-75 -266h-312z" />
<glyph unicode="&#x1ef2;" horiz-adv-x="1425" d="M508 1421h297l221 -551l547 551h289l-762 -757l-191 -664h-282l188 664zM911 1749l181 195l540 -353l-166 -178z" />
<glyph unicode="&#x1ef3;" horiz-adv-x="1202" d="M100 -530l400 532l-168 985h260l108 -758l514 758h261l-1080 -1517h-295zM684 1395l213 172l371 -377l-195 -164z" />
<glyph unicode="&#x2000;" horiz-adv-x="1077" />
<glyph unicode="&#x2001;" horiz-adv-x="2156" />
<glyph unicode="&#x2002;" horiz-adv-x="1077" />
<glyph unicode="&#x2003;" horiz-adv-x="2156" />
<glyph unicode="&#x2004;" horiz-adv-x="718" />
<glyph unicode="&#x2005;" horiz-adv-x="538" />
<glyph unicode="&#x2006;" horiz-adv-x="358" />
<glyph unicode="&#x2007;" horiz-adv-x="358" />
<glyph unicode="&#x2008;" horiz-adv-x="268" />
<glyph unicode="&#x2009;" horiz-adv-x="430" />
<glyph unicode="&#x200a;" horiz-adv-x="118" />
<glyph unicode="&#x2010;" horiz-adv-x="1208" d="M291 549l63 219h942l-63 -219h-942z" />
<glyph unicode="&#x2011;" horiz-adv-x="1208" d="M291 549l63 219h942l-63 -219h-942z" />
<glyph unicode="&#x2012;" horiz-adv-x="1208" d="M291 549l63 219h942l-63 -219h-942z" />
<glyph unicode="&#x2013;" horiz-adv-x="1239" d="M158 549l63 219h1241l-63 -219h-1241z" />
<glyph unicode="&#x2014;" horiz-adv-x="1464" d="M158 549l63 219h1467l-66 -219h-1464z" />
<glyph unicode="&#x2015;" horiz-adv-x="1681" d="M158 549l63 219h1682l-64 -219h-1681z" />
<glyph unicode="&#x2018;" horiz-adv-x="448" d="M479 1552h283v-516h-281z" />
<glyph unicode="&#x2019;" horiz-adv-x="448" d="M283 1036l297 516h280l-297 -516h-280z" />
<glyph unicode="&#x201a;" horiz-adv-x="448" d="M-88 -256l297 514h280l-296 -514h-281z" />
<glyph unicode="&#x201b;" horiz-adv-x="448" d="M479 1552h283v-516h-281z" />
<glyph unicode="&#x201c;" horiz-adv-x="829" d="M283 1036l297 516h280l-297 -516h-280zM662 1036l296 516h281l-297 -516h-280z" />
<glyph unicode="&#x201d;" horiz-adv-x="829" d="M283 1036l297 516h280l-297 -516h-280zM662 1036l296 516h281l-297 -516h-280z" />
<glyph unicode="&#x201e;" horiz-adv-x="829" d="M-90 -260l297 516h280l-297 -516h-280zM291 -260l297 516h280l-297 -516h-280z" />
<glyph unicode="&#x201f;" horiz-adv-x="829" d="M479 1552h283v-516h-281zM860 1552h281l2 -516h-283v516z" />
<glyph unicode="&#x2020;" horiz-adv-x="940" d="M389 106l293 1027l-231 -11l57 197l225 -10l70 243h225l-70 -243l234 10l-57 -197l-228 11l-293 -1027h-225z" />
<glyph unicode="&#x2021;" horiz-adv-x="940" d="M115 -47l55 194l227 -10l285 996l-231 -11l57 197l225 -10l70 243h225l-70 -243l234 10l-57 -197l-228 11l-284 -996l231 10l-55 -194l-228 8l-69 -242h-226l70 242z" />
<glyph unicode="&#x2022;" horiz-adv-x="638" d="M309 561l99 342h342l-99 -342h-342z" />
<glyph unicode="&#x2026;" horiz-adv-x="1718" d="M127 -41l84 293h293l-84 -293h-293zM692 -41l84 293h291l-84 -293h-291zM1257 -41l84 293h291l-84 -293h-291z" />
<glyph unicode="&#x202f;" horiz-adv-x="430" />
<glyph unicode="&#x2030;" horiz-adv-x="1918" d="M-4 -41l1454 1503h270l-1456 -1503h-268zM348 956q0 57 23 138q22 74 61 135q39 59 90 98q45 33 103 57q49 20 104 21q35 0 70 -10q39 -12 63 -29q31 -20 47 -57q18 -40 19 -92q0 -57 -21 -125q-43 -150 -143 -238t-219 -88q-88 0 -142 45q-55 45 -55 145zM537 1012 q0 -72 61 -72q86 0 129 150q12 41 12 71q0 66 -61 66q-90 0 -127 -133q-14 -49 -14 -82zM784 215q0 57 23 137q43 145 145 230q100 82 213 82q41 0 72 -9q33 -8 63 -30q29 -20 47.5 -57.5t18.5 -92.5q0 -61 -20 -125q-41 -147 -146 -237q-100 -88 -219 -88q-88 0 -141 45 q-56 45 -56 145zM973 270q0 -70 59 -69q88 0 131 147q12 41 13 72q0 66 -64 65q-90 0 -127 -133q-12 -41 -12 -82zM1393 215q0 63 20 137q43 145 146 230q100 82 213 82q41 0 71 -9q33 -8 64 -30q29 -20 47 -57.5t18 -92.5q0 -61 -20 -125q-41 -147 -146 -237 q-100 -88 -219 -88q-86 0 -139 45q-55 45 -55 145zM1579 270q0 -70 59 -69q90 0 134 147q12 41 12 72q0 66 -64 65q-90 0 -127 -133q-14 -49 -14 -82z" />
<glyph unicode="&#x2032;" horiz-adv-x="403" d="M369 1042l145 510h266l-145 -510h-266z" />
<glyph unicode="&#x2033;" horiz-adv-x="808" d="M369 1042l145 510h266l-145 -510h-266zM772 1042l148 510h266l-146 -510h-268z" />
<glyph unicode="&#x2034;" horiz-adv-x="1214" d="M369 1042l145 510h266l-145 -510h-266zM772 1042l148 510h266l-146 -510h-268zM1178 1042l145 510h268l-145 -510h-268z" />
<glyph unicode="&#x2035;" horiz-adv-x="403" d="M401 1036l66 516h278l-65 -516h-279z" />
<glyph unicode="&#x2039;" horiz-adv-x="606" d="M205 623l397 405h291l-422 -405l188 -406h-288z" />
<glyph unicode="&#x203a;" horiz-adv-x="606" d="M72 217l422 406l-189 405h289l168 -405l-402 -406h-288z" />
<glyph unicode="&#x203c;" horiz-adv-x="1298" d="M172 -41l82 283h281l-80 -283h-283zM319 418l299 1044h252l-299 -1044h-252zM821 -41l82 283h283l-82 -283h-283zM969 418l299 1044h252l-299 -1044h-252z" />
<glyph unicode="&#x203d;" horiz-adv-x="1044" d="M258 -41l82 283h281l-80 -283h-283zM395 350l221 770h232l-80 -276q86 57 137 108q53 53 72 119q6 22 6 43q0 58 -49 98q-51 41 -168 41q-127 0 -252 -45l-43 -14l-27 195l41 18q172 72 363 72q43 0 117 -9q51 -6 110 -26q51 -18 90 -47q35 -27 62 -76q23 -43 22 -109 q0 -53 -18 -118q-23 -78 -66 -150q-39 -66 -88 -115q-39 -39 -100 -86q-35 -27 -105 -75q-74 -53 -98 -72q-43 -33 -82 -90q-33 -47 -53 -115l-10 -41h-234z" />
<glyph unicode="&#x2044;" horiz-adv-x="1034" d="M-63 -41l1300 1503h268l-1296 -1503h-272z" />
<glyph unicode="&#x204b;" horiz-adv-x="1325" d="M176 -41l459 1593h575q12 0 35 -1t31 -1q28 0 74 -6q57 -8 82 -14q29 -8 71 -31q39 -20 64 -49q27 -29 41 -72q16 -45 16 -98q0 -61 -22 -147q-33 -109 -82 -189q-52 -83 -111 -135q-61 -55 -129 -90t-131 -51q-68 -16 -125 -23l-197 -686h-245l391 1362h-160l-389 -1362 h-248z" />
<glyph unicode="&#x205f;" horiz-adv-x="538" />
<glyph unicode="&#x20ac;" horiz-adv-x="1333" d="M141 463l62 213h203q12 53 40 131h-143l62 213h188q131 207 334 330t426 123q180 0 340 -80l30 -15l-135 -219l-35 17q-145 63 -270 63q-121 0 -229 -57q-111 -57 -199 -162h426l-61 -213h-498q-35 -78 -43 -131h440l-61 -213h-389q18 -127 104 -207t236 -80 q131 0 291 57l43 17l18 -201l-39 -16q-219 -94 -420 -94q-229 0 -360 137q-129 135 -129 364v23h-232z" />
<glyph unicode="&#x2122;" horiz-adv-x="1423" d="M487 1407l37 129h500l-39 -129h-174l-139 -489h-150l142 489h-177zM928 918l178 618h156l73 -289l234 289h160l-177 -618h-147l106 372l-184 -221h-96l-49 219l-107 -370h-147z" />
<glyph unicode="&#xe000;" horiz-adv-x="965" d="M0 965h965v-965h-965v965z" />
<glyph unicode="&#xfb00;" horiz-adv-x="1923" d="M-307 -479l96 194l39 -10q80 -20 137 -20q236 0 279 151l262 916h-160l62 211h159l19 63l16 55q10 33 21 60q16 41 28 59q29 47 37 57q27 35 51 56q41 33 66 47q29 18 82 37q33 12 102 22q66 10 123 11q121 0 248 -41l33 -13l-101 -202l-37 10q-92 27 -137 26 q-236 0 -284 -174l-21 -73h719l18 63q6 20 23 72q12 35 31 76q25 51 45 77q27 35 63 68q41 39 90 59q39 16 121 35q76 16 156 17q119 0 245 -41l33 -13l-98 -202l-39 10q-94 27 -135 26q-238 0 -287 -174l-20 -73h385l-60 -211h-385l-262 -908q-2 -10 -7 -27.5t-7 -23.5 t-9.5 -25.5l-11.5 -29.5q-10 -29 -26 -57q-14 -25 -37 -54q-23 -27 -49 -51q-10 -8 -66 -41q-47 -27 -80 -37t-102 -20q-51 -8 -123 -8q-129 0 -248 38l-33 13l99 194l37 -10q80 -20 137 -20q236 0 278 151l265 916h-721l-260 -908q-39 -133 -84 -196q-126 -178 -437 -178 q-127 0 -245 38z" />
<glyph unicode="&#xfb01;" horiz-adv-x="1562" d="M-307 -479l96 194l39 -10q80 -20 137 -20q236 0 279 151l262 916h-160l62 211h159l19 63l16 55q10 33 21 60q16 41 28 59q29 47 37 57q27 35 51 56q41 33 66 47q29 18 82 37q33 12 102 22q66 10 123 11q121 0 248 -41l33 -13l-99 -198l-39 10q-90 23 -137 22 q-236 0 -284 -174l-21 -73h385l-61 -211h-385l-260 -908q-39 -133 -84 -196q-126 -178 -437 -178q-127 0 -245 38zM1139 -10l278 973h246l-279 -973h-245zM1456 1151l78 270h276l-77 -270h-277z" />
<glyph unicode="&#xfb02;" horiz-adv-x="1601" d="M-307 -479l96 194l39 -10q80 -20 137 -20q236 0 279 151l262 916h-160l62 211h159l17 61l16 55q8 27 21 58q16 41 28 59q29 47 37 57q27 35 51 56q41 31 66 45q41 23 82 37q33 12 102 22q51 8 123 8q121 0 248 -41l33 -10l-99 -203l-39 11q-80 25 -137 24 q-233 0 -282 -168l-21 -71h385l-61 -211h-385l-260 -908q-39 -133 -84 -196q-126 -178 -437 -178q-127 0 -245 38zM1157 -10l436 1521h246l-434 -1521h-248z" />
<glyph unicode="&#xfb03;" horiz-adv-x="2527" d="M-307 -479l96 194l39 -10q80 -20 137 -20q236 0 279 151l262 916h-160l62 211h159l19 63l16 55q10 33 21 60q16 41 28 59q29 47 37 57q27 35 51 56q41 33 66 47q29 18 82 37q33 12 102 22q66 10 123 11q121 0 248 -41l33 -13l-99 -198l-39 10q-90 23 -137 22 q-236 0 -284 -174l-21 -73h719l18 63q6 20 23 72q12 35 31 76q25 51 45 77q27 35 63 68q41 39 90 59q39 16 121 35q76 16 156 17q119 0 245 -41l33 -13l-96 -198l-39 10q-90 23 -137 22q-238 0 -287 -174l-20 -73h385l-60 -211h-385l-262 -908q-2 -10 -7 -27.5t-7 -23.5 t-9.5 -25.5l-11.5 -29.5q-10 -29 -26 -57q-14 -25 -37 -54q-23 -27 -49 -51q-10 -8 -66 -41q-47 -27 -80 -37t-102 -20q-51 -8 -123 -8q-129 0 -248 38l-33 13l99 194l37 -10q80 -20 137 -20q236 0 278 151l265 916h-721l-260 -908q-39 -133 -84 -196q-126 -178 -437 -178 q-127 0 -245 38zM2103 -10l281 973h246l-281 -973h-246zM2423 1151l76 270h276l-78 -270h-274z" />
<glyph unicode="&#xfb04;" horiz-adv-x="2566" d="M-307 -479l96 194l39 -10q80 -20 137 -20q236 0 279 151l262 916h-160l62 211h159l17 61l16 55q8 27 21 58q16 41 28 59q29 47 37 57q27 35 51 56q41 31 66 45q41 23 82 37q33 12 102 22q51 8 123 8q121 0 248 -41l33 -10l-99 -203l-39 11q-80 25 -137 24 q-233 0 -282 -168l-21 -71h719l18 61l17 55q8 27 20 58q16 41 29 59q29 47 37 57q27 35 51 56q41 31 65 45q41 23 82 37q33 12 103 22q51 8 123 8q119 0 245 -41l33 -10l-98 -203l-39 11q-80 25 -135 24q-236 0 -285 -168l-20 -71h385l-60 -211h-385l-262 -908 q-2 -10 -7 -27.5t-7 -23.5t-9.5 -25.5l-11.5 -29.5q-10 -29 -26 -57q-14 -25 -37 -54q-23 -27 -49 -51q-10 -8 -66 -41q-47 -27 -80 -37t-102 -20q-51 -8 -123 -8q-129 0 -248 38l-33 13l99 194l37 -10q80 -20 137 -20q236 0 278 151l265 916h-721l-260 -908 q-39 -133 -84 -196q-126 -178 -437 -178q-127 0 -245 38zM2124 -10l436 1521h246l-436 -1521h-246z" />
</font>
</defs>
</svg>
